G04 #@! TF.GenerationSoftware,KiCad,Pcbnew,(5.1.4-0-10_14)*
G04 #@! TF.CreationDate,2019-08-27T23:22:26+02:00*
G04 #@! TF.ProjectId,PSU-Matti-v02,5053552d-4d61-4747-9469-2d7630322e6b,v01*
G04 #@! TF.SameCoordinates,Original*
G04 #@! TF.FileFunction,Legend,Top*
G04 #@! TF.FilePolarity,Positive*
%FSLAX46Y46*%
G04 Gerber Fmt 4.6, Leading zero omitted, Abs format (unit mm)*
G04 Created by KiCad (PCBNEW (5.1.4-0-10_14)) date 2019-08-27 23:22:26*
%MOMM*%
%LPD*%
G04 APERTURE LIST*
%ADD10C,0.150000*%
%ADD11C,0.300000*%
%ADD12C,0.250000*%
%ADD13C,0.200000*%
%ADD14C,0.120000*%
G04 APERTURE END LIST*
D10*
X80200500Y-100251000D02*
X80200500Y-102410000D01*
D11*
X76692214Y-103239571D02*
X76835071Y-103239571D01*
X76977928Y-103311000D01*
X77049357Y-103382428D01*
X77120785Y-103525285D01*
X77192214Y-103811000D01*
X77192214Y-104168142D01*
X77120785Y-104453857D01*
X77049357Y-104596714D01*
X76977928Y-104668142D01*
X76835071Y-104739571D01*
X76692214Y-104739571D01*
X76549357Y-104668142D01*
X76477928Y-104596714D01*
X76406500Y-104453857D01*
X76335071Y-104168142D01*
X76335071Y-103811000D01*
X76406500Y-103525285D01*
X76477928Y-103382428D01*
X76549357Y-103311000D01*
X76692214Y-103239571D01*
X77620785Y-103239571D02*
X78120785Y-104739571D01*
X78620785Y-103239571D01*
X76819214Y-98096071D02*
X76962071Y-98096071D01*
X77104928Y-98167500D01*
X77176357Y-98238928D01*
X77247785Y-98381785D01*
X77319214Y-98667500D01*
X77319214Y-99024642D01*
X77247785Y-99310357D01*
X77176357Y-99453214D01*
X77104928Y-99524642D01*
X76962071Y-99596071D01*
X76819214Y-99596071D01*
X76676357Y-99524642D01*
X76604928Y-99453214D01*
X76533500Y-99310357D01*
X76462071Y-99024642D01*
X76462071Y-98667500D01*
X76533500Y-98381785D01*
X76604928Y-98238928D01*
X76676357Y-98167500D01*
X76819214Y-98096071D01*
X77747785Y-98096071D02*
X78247785Y-99596071D01*
X78747785Y-98096071D01*
X150812428Y-112994642D02*
X149669571Y-112994642D01*
X149955285Y-113280357D02*
X149669571Y-112994642D01*
X149955285Y-112708928D01*
X150114071Y-112970857D02*
X151256928Y-112970857D01*
X150971214Y-112685142D02*
X151256928Y-112970857D01*
X150971214Y-113256571D01*
X150241071Y-90999857D02*
X151383928Y-90999857D01*
X151098214Y-90714142D02*
X151383928Y-90999857D01*
X151098214Y-91285571D01*
X150939428Y-91023642D02*
X149796571Y-91023642D01*
X150082285Y-91309357D02*
X149796571Y-91023642D01*
X150082285Y-90737928D01*
D12*
X169767380Y-91099047D02*
X170624523Y-91099047D01*
X171005476Y-90765714D02*
X171767380Y-91051428D01*
X171005476Y-91337142D01*
D11*
X152213571Y-99250785D02*
X152213571Y-99107928D01*
X152285000Y-98965071D01*
X152356428Y-98893642D01*
X152499285Y-98822214D01*
X152785000Y-98750785D01*
X153142142Y-98750785D01*
X153427857Y-98822214D01*
X153570714Y-98893642D01*
X153642142Y-98965071D01*
X153713571Y-99107928D01*
X153713571Y-99250785D01*
X153642142Y-99393642D01*
X153570714Y-99465071D01*
X153427857Y-99536500D01*
X153142142Y-99607928D01*
X152785000Y-99607928D01*
X152499285Y-99536500D01*
X152356428Y-99465071D01*
X152285000Y-99393642D01*
X152213571Y-99250785D01*
X152213571Y-98322214D02*
X153713571Y-97822214D01*
X152213571Y-97322214D01*
X152277071Y-106299285D02*
X152277071Y-106156428D01*
X152348500Y-106013571D01*
X152419928Y-105942142D01*
X152562785Y-105870714D01*
X152848500Y-105799285D01*
X153205642Y-105799285D01*
X153491357Y-105870714D01*
X153634214Y-105942142D01*
X153705642Y-106013571D01*
X153777071Y-106156428D01*
X153777071Y-106299285D01*
X153705642Y-106442142D01*
X153634214Y-106513571D01*
X153491357Y-106585000D01*
X153205642Y-106656428D01*
X152848500Y-106656428D01*
X152562785Y-106585000D01*
X152419928Y-106513571D01*
X152348500Y-106442142D01*
X152277071Y-106299285D01*
X152277071Y-105370714D02*
X153777071Y-104870714D01*
X152277071Y-104370714D01*
X152888142Y-93559357D02*
X152888142Y-92416500D01*
X153459571Y-92987928D02*
X152316714Y-92987928D01*
X153459571Y-90916500D02*
X153459571Y-91773642D01*
X153459571Y-91345071D02*
X151959571Y-91345071D01*
X152173857Y-91487928D01*
X152316714Y-91630785D01*
X152388142Y-91773642D01*
X152102428Y-90345071D02*
X152031000Y-90273642D01*
X151959571Y-90130785D01*
X151959571Y-89773642D01*
X152031000Y-89630785D01*
X152102428Y-89559357D01*
X152245285Y-89487928D01*
X152388142Y-89487928D01*
X152602428Y-89559357D01*
X153459571Y-90416500D01*
X153459571Y-89487928D01*
X151959571Y-89059357D02*
X153459571Y-88559357D01*
X151959571Y-88059357D01*
X152888142Y-116038357D02*
X152888142Y-114895500D01*
X153459571Y-113395500D02*
X153459571Y-114252642D01*
X153459571Y-113824071D02*
X151959571Y-113824071D01*
X152173857Y-113966928D01*
X152316714Y-114109785D01*
X152388142Y-114252642D01*
X152102428Y-112824071D02*
X152031000Y-112752642D01*
X151959571Y-112609785D01*
X151959571Y-112252642D01*
X152031000Y-112109785D01*
X152102428Y-112038357D01*
X152245285Y-111966928D01*
X152388142Y-111966928D01*
X152602428Y-112038357D01*
X153459571Y-112895500D01*
X153459571Y-111966928D01*
X151959571Y-111538357D02*
X153459571Y-111038357D01*
X151959571Y-110538357D01*
D13*
X172720000Y-116888000D02*
X172466000Y-116888000D01*
X154178000Y-116888000D02*
X172720000Y-116888000D01*
D11*
X77268000Y-114010571D02*
X76410857Y-114010571D01*
X76839428Y-114010571D02*
X76839428Y-112510571D01*
X76696571Y-112724857D01*
X76553714Y-112867714D01*
X76410857Y-112939142D01*
X78625142Y-112510571D02*
X77910857Y-112510571D01*
X77839428Y-113224857D01*
X77910857Y-113153428D01*
X78053714Y-113082000D01*
X78410857Y-113082000D01*
X78553714Y-113153428D01*
X78625142Y-113224857D01*
X78696571Y-113367714D01*
X78696571Y-113724857D01*
X78625142Y-113867714D01*
X78553714Y-113939142D01*
X78410857Y-114010571D01*
X78053714Y-114010571D01*
X77910857Y-113939142D01*
X77839428Y-113867714D01*
X79125142Y-112510571D02*
X79625142Y-114010571D01*
X80125142Y-112510571D01*
X80625142Y-113439142D02*
X81768000Y-113439142D01*
X82410857Y-113582000D02*
X83125142Y-113582000D01*
X82268000Y-114010571D02*
X82768000Y-112510571D01*
X83268000Y-114010571D01*
X84625142Y-113867714D02*
X84553714Y-113939142D01*
X84339428Y-114010571D01*
X84196571Y-114010571D01*
X83982285Y-113939142D01*
X83839428Y-113796285D01*
X83768000Y-113653428D01*
X83696571Y-113367714D01*
X83696571Y-113153428D01*
X83768000Y-112867714D01*
X83839428Y-112724857D01*
X83982285Y-112582000D01*
X84196571Y-112510571D01*
X84339428Y-112510571D01*
X84553714Y-112582000D01*
X84625142Y-112653428D01*
X77014000Y-90388571D02*
X76156857Y-90388571D01*
X76585428Y-90388571D02*
X76585428Y-88888571D01*
X76442571Y-89102857D01*
X76299714Y-89245714D01*
X76156857Y-89317142D01*
X78371142Y-88888571D02*
X77656857Y-88888571D01*
X77585428Y-89602857D01*
X77656857Y-89531428D01*
X77799714Y-89460000D01*
X78156857Y-89460000D01*
X78299714Y-89531428D01*
X78371142Y-89602857D01*
X78442571Y-89745714D01*
X78442571Y-90102857D01*
X78371142Y-90245714D01*
X78299714Y-90317142D01*
X78156857Y-90388571D01*
X77799714Y-90388571D01*
X77656857Y-90317142D01*
X77585428Y-90245714D01*
X78871142Y-88888571D02*
X79371142Y-90388571D01*
X79871142Y-88888571D01*
X80371142Y-89817142D02*
X81514000Y-89817142D01*
X82156857Y-89960000D02*
X82871142Y-89960000D01*
X82014000Y-90388571D02*
X82514000Y-88888571D01*
X83014000Y-90388571D01*
X84371142Y-90245714D02*
X84299714Y-90317142D01*
X84085428Y-90388571D01*
X83942571Y-90388571D01*
X83728285Y-90317142D01*
X83585428Y-90174285D01*
X83514000Y-90031428D01*
X83442571Y-89745714D01*
X83442571Y-89531428D01*
X83514000Y-89245714D01*
X83585428Y-89102857D01*
X83728285Y-88960000D01*
X83942571Y-88888571D01*
X84085428Y-88888571D01*
X84299714Y-88960000D01*
X84371142Y-89031428D01*
D10*
X159766000Y-90916500D02*
X157226000Y-90916500D01*
D14*
X132130000Y-122470000D02*
X132130000Y-119530000D01*
X131890000Y-122470000D02*
X131890000Y-119530000D01*
X132010000Y-122470000D02*
X132010000Y-119530000D01*
X127470000Y-119530000D02*
X127470000Y-119660000D01*
X132910000Y-119530000D02*
X127470000Y-119530000D01*
X132910000Y-119660000D02*
X132910000Y-119530000D01*
X127470000Y-122470000D02*
X127470000Y-122340000D01*
X132910000Y-122470000D02*
X127470000Y-122470000D01*
X132910000Y-122340000D02*
X132910000Y-122470000D01*
X128362000Y-81530000D02*
X128362000Y-84470000D01*
X128602000Y-81530000D02*
X128602000Y-84470000D01*
X128482000Y-81530000D02*
X128482000Y-84470000D01*
X133022000Y-84470000D02*
X133022000Y-84340000D01*
X127582000Y-84470000D02*
X133022000Y-84470000D01*
X127582000Y-84340000D02*
X127582000Y-84470000D01*
X133022000Y-81530000D02*
X133022000Y-81660000D01*
X127582000Y-81530000D02*
X133022000Y-81530000D01*
X127582000Y-81660000D02*
X127582000Y-81530000D01*
X105578000Y-98436000D02*
X85878000Y-98436000D01*
X85878000Y-98436000D02*
X85878000Y-105136000D01*
X85878000Y-105136000D02*
X105578000Y-105136000D01*
X105578000Y-105136000D02*
X105578000Y-98436000D01*
X102728000Y-102786000D02*
X102728000Y-105136000D01*
X105778000Y-104036000D02*
X105778000Y-105336000D01*
X105778000Y-105336000D02*
X104578000Y-105336000D01*
X102728000Y-98836000D02*
X102728000Y-98436000D01*
X134933000Y-102928000D02*
X134933000Y-107998000D01*
X125163000Y-102928000D02*
X125163000Y-107998000D01*
X125163000Y-107998000D02*
X134933000Y-107998000D01*
X125163000Y-102928000D02*
X134933000Y-102928000D01*
D10*
X169926000Y-98409500D02*
X167386000Y-98409500D01*
X159766000Y-98409500D02*
X157226000Y-98409500D01*
X169989500Y-105458000D02*
X167449500Y-105458000D01*
X169926000Y-112760500D02*
X167386000Y-112760500D01*
X159829500Y-105458000D02*
X157289500Y-105458000D01*
X159766000Y-112760500D02*
X157226000Y-112760500D01*
X169926000Y-90916500D02*
X167386000Y-90916500D01*
D14*
X75914000Y-90934000D02*
X75914000Y-91434000D01*
X76654000Y-90934000D02*
X75914000Y-90934000D01*
X84664000Y-110264000D02*
X83664000Y-110264000D01*
X84664000Y-107764000D02*
X83664000Y-107764000D01*
X83664000Y-107764000D02*
X83664000Y-110264000D01*
X84664000Y-107764000D02*
X84664000Y-110264000D01*
X79414000Y-107990000D02*
X79354000Y-107930000D01*
X81349000Y-109925000D02*
X81309000Y-109885000D01*
X79219000Y-108144000D02*
X79179000Y-108104000D01*
X81174000Y-110099000D02*
X81115000Y-110039000D01*
X84664000Y-105184000D02*
X83664000Y-105184000D01*
X84664000Y-102684000D02*
X83664000Y-102684000D01*
X83664000Y-102684000D02*
X83664000Y-105184000D01*
X84664000Y-102684000D02*
X84664000Y-105184000D01*
X79414000Y-102910000D02*
X79354000Y-102850000D01*
X81349000Y-104845000D02*
X81309000Y-104805000D01*
X79219000Y-103064000D02*
X79179000Y-103024000D01*
X81174000Y-105019000D02*
X81115000Y-104959000D01*
X84664000Y-100104000D02*
X83664000Y-100104000D01*
X84664000Y-97604000D02*
X83664000Y-97604000D01*
X83664000Y-97604000D02*
X83664000Y-100104000D01*
X84664000Y-97604000D02*
X84664000Y-100104000D01*
X79414000Y-97830000D02*
X79354000Y-97770000D01*
X81349000Y-99765000D02*
X81309000Y-99725000D01*
X79219000Y-97984000D02*
X79179000Y-97944000D01*
X81174000Y-99939000D02*
X81115000Y-99879000D01*
X84664000Y-95024000D02*
X83664000Y-95024000D01*
X84664000Y-92524000D02*
X83664000Y-92524000D01*
X83664000Y-92524000D02*
X83664000Y-95024000D01*
X84664000Y-92524000D02*
X84664000Y-95024000D01*
X84724000Y-111614000D02*
X76154000Y-111614000D01*
X84724000Y-91174000D02*
X76154000Y-91174000D01*
X76154000Y-91174000D02*
X76154000Y-111614000D01*
X84724000Y-91174000D02*
X84724000Y-111614000D01*
X82814000Y-91174000D02*
X82814000Y-111614000D01*
X77814000Y-91174000D02*
X77814000Y-111614000D01*
X76714000Y-91174000D02*
X76714000Y-111614000D01*
X81694000Y-109014000D02*
G75*
G03X81694000Y-109014000I-1430000J0D01*
G01*
X81694000Y-103934000D02*
G75*
G03X81694000Y-103934000I-1430000J0D01*
G01*
X81694000Y-98854000D02*
G75*
G03X81694000Y-98854000I-1430000J0D01*
G01*
X78833060Y-93798280D02*
G75*
G02X78978000Y-93146000I1430940J24280D01*
G01*
X79637254Y-92487389D02*
G75*
G02X80892000Y-92488000I626746J-1286611D01*
G01*
X81549824Y-93146638D02*
G75*
G02X81550000Y-94401000I-1285824J-627362D01*
G01*
X80891362Y-95059824D02*
G75*
G02X79637000Y-95060000I-627362J1285824D01*
G01*
X78978725Y-94400871D02*
G75*
G02X78834000Y-93774000I1285275J626871D01*
G01*
X146356225Y-96231620D02*
G75*
G02X146247728Y-98003000I1344775J-971380D01*
G01*
X138728620Y-99182775D02*
G75*
G02X140500000Y-99291272I971380J1344775D01*
G01*
X138728620Y-105786775D02*
G75*
G02X140500000Y-105895272I971380J1344775D01*
G01*
X147394775Y-107699380D02*
G75*
G02X147503272Y-105928000I-1344775J971380D01*
G01*
X138728620Y-84704775D02*
G75*
G02X140500000Y-84813272I971380J1344775D01*
G01*
X140671380Y-118591225D02*
G75*
G02X138900000Y-118482728I-971380J-1344775D01*
G01*
X104116000Y-86634000D02*
G75*
G03X104116000Y-86634000I-9120000J0D01*
G01*
X104077000Y-86634000D02*
X85915000Y-86634000D01*
X104076000Y-86674000D02*
X85916000Y-86674000D01*
X104076000Y-86714000D02*
X85916000Y-86714000D01*
X104076000Y-86754000D02*
X85916000Y-86754000D01*
X104075000Y-86794000D02*
X85917000Y-86794000D01*
X104074000Y-86834000D02*
X85918000Y-86834000D01*
X104073000Y-86874000D02*
X85919000Y-86874000D01*
X104072000Y-86914000D02*
X85920000Y-86914000D01*
X104071000Y-86954000D02*
X85921000Y-86954000D01*
X104069000Y-86994000D02*
X85923000Y-86994000D01*
X104068000Y-87034000D02*
X85924000Y-87034000D01*
X104066000Y-87074000D02*
X85926000Y-87074000D01*
X104064000Y-87114000D02*
X85928000Y-87114000D01*
X104062000Y-87154000D02*
X85930000Y-87154000D01*
X104059000Y-87194000D02*
X85933000Y-87194000D01*
X104057000Y-87234000D02*
X85935000Y-87234000D01*
X104054000Y-87274000D02*
X85938000Y-87274000D01*
X104051000Y-87314000D02*
X85941000Y-87314000D01*
X104048000Y-87355000D02*
X85944000Y-87355000D01*
X104045000Y-87395000D02*
X85947000Y-87395000D01*
X104041000Y-87435000D02*
X85951000Y-87435000D01*
X104038000Y-87475000D02*
X85954000Y-87475000D01*
X104034000Y-87515000D02*
X85958000Y-87515000D01*
X104030000Y-87555000D02*
X85962000Y-87555000D01*
X104026000Y-87595000D02*
X85966000Y-87595000D01*
X104022000Y-87635000D02*
X85970000Y-87635000D01*
X104017000Y-87675000D02*
X85975000Y-87675000D01*
X104012000Y-87715000D02*
X85980000Y-87715000D01*
X104007000Y-87755000D02*
X85985000Y-87755000D01*
X104002000Y-87795000D02*
X85990000Y-87795000D01*
X103997000Y-87835000D02*
X85995000Y-87835000D01*
X103992000Y-87875000D02*
X86000000Y-87875000D01*
X103986000Y-87915000D02*
X86006000Y-87915000D01*
X103980000Y-87955000D02*
X86012000Y-87955000D01*
X103975000Y-87995000D02*
X86017000Y-87995000D01*
X103968000Y-88035000D02*
X86024000Y-88035000D01*
X103962000Y-88075000D02*
X86030000Y-88075000D01*
X103956000Y-88115000D02*
X86036000Y-88115000D01*
X103949000Y-88155000D02*
X86043000Y-88155000D01*
X103942000Y-88195000D02*
X86050000Y-88195000D01*
X103935000Y-88235000D02*
X86057000Y-88235000D01*
X103928000Y-88275000D02*
X86064000Y-88275000D01*
X103920000Y-88315000D02*
X86072000Y-88315000D01*
X103913000Y-88355000D02*
X86079000Y-88355000D01*
X103905000Y-88395000D02*
X86087000Y-88395000D01*
X103897000Y-88435000D02*
X86095000Y-88435000D01*
X103889000Y-88475000D02*
X86103000Y-88475000D01*
X103881000Y-88515000D02*
X86111000Y-88515000D01*
X103872000Y-88555000D02*
X86120000Y-88555000D01*
X103863000Y-88595000D02*
X86129000Y-88595000D01*
X103854000Y-88635000D02*
X86138000Y-88635000D01*
X103845000Y-88675000D02*
X86147000Y-88675000D01*
X103836000Y-88715000D02*
X86156000Y-88715000D01*
X103827000Y-88755000D02*
X86165000Y-88755000D01*
X103817000Y-88795000D02*
X86175000Y-88795000D01*
X103807000Y-88835000D02*
X86185000Y-88835000D01*
X103797000Y-88875000D02*
X86195000Y-88875000D01*
X103787000Y-88915000D02*
X86205000Y-88915000D01*
X103776000Y-88955000D02*
X96436000Y-88955000D01*
X93556000Y-88955000D02*
X86216000Y-88955000D01*
X103766000Y-88995000D02*
X96436000Y-88995000D01*
X93556000Y-88995000D02*
X86226000Y-88995000D01*
X103755000Y-89035000D02*
X96436000Y-89035000D01*
X93556000Y-89035000D02*
X86237000Y-89035000D01*
X103744000Y-89075000D02*
X96436000Y-89075000D01*
X93556000Y-89075000D02*
X86248000Y-89075000D01*
X103733000Y-89115000D02*
X96436000Y-89115000D01*
X93556000Y-89115000D02*
X86259000Y-89115000D01*
X103721000Y-89155000D02*
X96436000Y-89155000D01*
X93556000Y-89155000D02*
X86271000Y-89155000D01*
X103710000Y-89195000D02*
X96436000Y-89195000D01*
X93556000Y-89195000D02*
X86282000Y-89195000D01*
X103698000Y-89235000D02*
X96436000Y-89235000D01*
X93556000Y-89235000D02*
X86294000Y-89235000D01*
X103686000Y-89275000D02*
X96436000Y-89275000D01*
X93556000Y-89275000D02*
X86306000Y-89275000D01*
X103674000Y-89315000D02*
X96436000Y-89315000D01*
X93556000Y-89315000D02*
X86318000Y-89315000D01*
X103661000Y-89355000D02*
X96436000Y-89355000D01*
X93556000Y-89355000D02*
X86331000Y-89355000D01*
X103649000Y-89395000D02*
X96436000Y-89395000D01*
X93556000Y-89395000D02*
X86343000Y-89395000D01*
X103636000Y-89435000D02*
X96436000Y-89435000D01*
X93556000Y-89435000D02*
X86356000Y-89435000D01*
X103623000Y-89475000D02*
X96436000Y-89475000D01*
X93556000Y-89475000D02*
X86369000Y-89475000D01*
X103610000Y-89515000D02*
X96436000Y-89515000D01*
X93556000Y-89515000D02*
X86382000Y-89515000D01*
X103596000Y-89555000D02*
X96436000Y-89555000D01*
X93556000Y-89555000D02*
X86396000Y-89555000D01*
X103583000Y-89595000D02*
X96436000Y-89595000D01*
X93556000Y-89595000D02*
X86409000Y-89595000D01*
X103569000Y-89635000D02*
X96436000Y-89635000D01*
X93556000Y-89635000D02*
X86423000Y-89635000D01*
X103555000Y-89675000D02*
X96436000Y-89675000D01*
X93556000Y-89675000D02*
X86437000Y-89675000D01*
X103541000Y-89715000D02*
X96436000Y-89715000D01*
X93556000Y-89715000D02*
X86451000Y-89715000D01*
X103526000Y-89755000D02*
X96436000Y-89755000D01*
X93556000Y-89755000D02*
X86466000Y-89755000D01*
X103512000Y-89795000D02*
X96436000Y-89795000D01*
X93556000Y-89795000D02*
X86480000Y-89795000D01*
X103497000Y-89835000D02*
X96436000Y-89835000D01*
X93556000Y-89835000D02*
X86495000Y-89835000D01*
X103482000Y-89875000D02*
X96436000Y-89875000D01*
X93556000Y-89875000D02*
X86510000Y-89875000D01*
X103466000Y-89915000D02*
X96436000Y-89915000D01*
X93556000Y-89915000D02*
X86526000Y-89915000D01*
X103451000Y-89955000D02*
X96436000Y-89955000D01*
X93556000Y-89955000D02*
X86541000Y-89955000D01*
X103435000Y-89995000D02*
X96436000Y-89995000D01*
X93556000Y-89995000D02*
X86557000Y-89995000D01*
X103419000Y-90035000D02*
X96436000Y-90035000D01*
X93556000Y-90035000D02*
X86573000Y-90035000D01*
X103403000Y-90075000D02*
X96436000Y-90075000D01*
X93556000Y-90075000D02*
X86589000Y-90075000D01*
X103386000Y-90115000D02*
X96436000Y-90115000D01*
X93556000Y-90115000D02*
X86606000Y-90115000D01*
X103370000Y-90155000D02*
X96436000Y-90155000D01*
X93556000Y-90155000D02*
X86622000Y-90155000D01*
X103353000Y-90195000D02*
X96436000Y-90195000D01*
X93556000Y-90195000D02*
X86639000Y-90195000D01*
X103336000Y-90235000D02*
X96436000Y-90235000D01*
X93556000Y-90235000D02*
X86656000Y-90235000D01*
X103319000Y-90275000D02*
X96436000Y-90275000D01*
X93556000Y-90275000D02*
X86673000Y-90275000D01*
X103301000Y-90315000D02*
X96436000Y-90315000D01*
X93556000Y-90315000D02*
X86691000Y-90315000D01*
X103283000Y-90355000D02*
X96436000Y-90355000D01*
X93556000Y-90355000D02*
X86709000Y-90355000D01*
X103265000Y-90395000D02*
X96436000Y-90395000D01*
X93556000Y-90395000D02*
X86727000Y-90395000D01*
X103247000Y-90435000D02*
X96436000Y-90435000D01*
X93556000Y-90435000D02*
X86745000Y-90435000D01*
X103229000Y-90475000D02*
X96436000Y-90475000D01*
X93556000Y-90475000D02*
X86763000Y-90475000D01*
X103210000Y-90515000D02*
X96436000Y-90515000D01*
X93556000Y-90515000D02*
X86782000Y-90515000D01*
X103191000Y-90555000D02*
X96436000Y-90555000D01*
X93556000Y-90555000D02*
X86801000Y-90555000D01*
X103172000Y-90595000D02*
X96436000Y-90595000D01*
X93556000Y-90595000D02*
X86820000Y-90595000D01*
X103152000Y-90635000D02*
X96436000Y-90635000D01*
X93556000Y-90635000D02*
X86840000Y-90635000D01*
X103133000Y-90675000D02*
X96436000Y-90675000D01*
X93556000Y-90675000D02*
X86859000Y-90675000D01*
X103113000Y-90715000D02*
X96436000Y-90715000D01*
X93556000Y-90715000D02*
X86879000Y-90715000D01*
X103093000Y-90755000D02*
X96436000Y-90755000D01*
X93556000Y-90755000D02*
X86899000Y-90755000D01*
X103072000Y-90795000D02*
X96436000Y-90795000D01*
X93556000Y-90795000D02*
X86920000Y-90795000D01*
X103052000Y-90835000D02*
X96436000Y-90835000D01*
X93556000Y-90835000D02*
X86940000Y-90835000D01*
X103031000Y-90875000D02*
X96436000Y-90875000D01*
X93556000Y-90875000D02*
X86961000Y-90875000D01*
X103010000Y-90915000D02*
X96436000Y-90915000D01*
X93556000Y-90915000D02*
X86982000Y-90915000D01*
X102988000Y-90955000D02*
X96436000Y-90955000D01*
X93556000Y-90955000D02*
X87004000Y-90955000D01*
X102967000Y-90995000D02*
X96436000Y-90995000D01*
X93556000Y-90995000D02*
X87025000Y-90995000D01*
X102945000Y-91035000D02*
X96436000Y-91035000D01*
X93556000Y-91035000D02*
X87047000Y-91035000D01*
X102923000Y-91075000D02*
X96436000Y-91075000D01*
X93556000Y-91075000D02*
X87069000Y-91075000D01*
X102900000Y-91115000D02*
X96436000Y-91115000D01*
X93556000Y-91115000D02*
X87092000Y-91115000D01*
X102878000Y-91155000D02*
X96436000Y-91155000D01*
X93556000Y-91155000D02*
X87114000Y-91155000D01*
X102855000Y-91195000D02*
X96436000Y-91195000D01*
X93556000Y-91195000D02*
X87137000Y-91195000D01*
X102831000Y-91235000D02*
X96436000Y-91235000D01*
X93556000Y-91235000D02*
X87161000Y-91235000D01*
X102808000Y-91275000D02*
X96436000Y-91275000D01*
X93556000Y-91275000D02*
X87184000Y-91275000D01*
X102784000Y-91315000D02*
X96436000Y-91315000D01*
X93556000Y-91315000D02*
X87208000Y-91315000D01*
X102760000Y-91355000D02*
X96436000Y-91355000D01*
X93556000Y-91355000D02*
X87232000Y-91355000D01*
X102736000Y-91395000D02*
X96436000Y-91395000D01*
X93556000Y-91395000D02*
X87256000Y-91395000D01*
X102711000Y-91435000D02*
X96436000Y-91435000D01*
X93556000Y-91435000D02*
X87281000Y-91435000D01*
X102686000Y-91475000D02*
X96436000Y-91475000D01*
X93556000Y-91475000D02*
X87306000Y-91475000D01*
X102661000Y-91515000D02*
X96436000Y-91515000D01*
X93556000Y-91515000D02*
X87331000Y-91515000D01*
X102636000Y-91555000D02*
X96436000Y-91555000D01*
X93556000Y-91555000D02*
X87356000Y-91555000D01*
X102610000Y-91595000D02*
X96436000Y-91595000D01*
X93556000Y-91595000D02*
X87382000Y-91595000D01*
X102584000Y-91635000D02*
X96436000Y-91635000D01*
X93556000Y-91635000D02*
X87408000Y-91635000D01*
X102557000Y-91675000D02*
X96436000Y-91675000D01*
X93556000Y-91675000D02*
X87435000Y-91675000D01*
X102531000Y-91715000D02*
X96436000Y-91715000D01*
X93556000Y-91715000D02*
X87461000Y-91715000D01*
X102504000Y-91755000D02*
X96436000Y-91755000D01*
X93556000Y-91755000D02*
X87488000Y-91755000D01*
X102476000Y-91795000D02*
X96436000Y-91795000D01*
X93556000Y-91795000D02*
X87516000Y-91795000D01*
X102449000Y-91835000D02*
X87543000Y-91835000D01*
X102421000Y-91875000D02*
X87571000Y-91875000D01*
X102393000Y-91915000D02*
X87599000Y-91915000D01*
X102364000Y-91955000D02*
X87628000Y-91955000D01*
X102335000Y-91995000D02*
X87657000Y-91995000D01*
X102306000Y-92035000D02*
X87686000Y-92035000D01*
X102276000Y-92075000D02*
X87716000Y-92075000D01*
X102246000Y-92115000D02*
X87746000Y-92115000D01*
X102216000Y-92155000D02*
X87776000Y-92155000D01*
X102186000Y-92195000D02*
X87806000Y-92195000D01*
X102155000Y-92235000D02*
X87837000Y-92235000D01*
X102123000Y-92275000D02*
X87869000Y-92275000D01*
X102092000Y-92315000D02*
X87900000Y-92315000D01*
X102060000Y-92355000D02*
X87932000Y-92355000D01*
X102027000Y-92395000D02*
X87965000Y-92395000D01*
X101995000Y-92435000D02*
X87997000Y-92435000D01*
X101961000Y-92475000D02*
X88031000Y-92475000D01*
X101928000Y-92515000D02*
X88064000Y-92515000D01*
X101894000Y-92555000D02*
X88098000Y-92555000D01*
X101860000Y-92595000D02*
X88132000Y-92595000D01*
X101825000Y-92635000D02*
X88167000Y-92635000D01*
X101790000Y-92675000D02*
X88202000Y-92675000D01*
X101754000Y-92715000D02*
X88238000Y-92715000D01*
X101718000Y-92755000D02*
X88274000Y-92755000D01*
X101682000Y-92795000D02*
X88310000Y-92795000D01*
X101645000Y-92835000D02*
X88347000Y-92835000D01*
X101608000Y-92875000D02*
X88384000Y-92875000D01*
X101570000Y-92915000D02*
X88422000Y-92915000D01*
X101532000Y-92955000D02*
X88460000Y-92955000D01*
X101493000Y-92995000D02*
X88499000Y-92995000D01*
X101454000Y-93035000D02*
X88538000Y-93035000D01*
X101414000Y-93075000D02*
X88578000Y-93075000D01*
X101374000Y-93115000D02*
X88618000Y-93115000D01*
X101333000Y-93155000D02*
X88659000Y-93155000D01*
X101292000Y-93195000D02*
X88700000Y-93195000D01*
X101250000Y-93235000D02*
X88742000Y-93235000D01*
X101208000Y-93275000D02*
X88784000Y-93275000D01*
X101166000Y-93315000D02*
X88826000Y-93315000D01*
X101122000Y-93355000D02*
X88870000Y-93355000D01*
X101078000Y-93395000D02*
X88914000Y-93395000D01*
X101034000Y-93435000D02*
X88958000Y-93435000D01*
X100989000Y-93475000D02*
X89003000Y-93475000D01*
X100943000Y-93515000D02*
X89049000Y-93515000D01*
X100897000Y-93555000D02*
X89095000Y-93555000D01*
X100850000Y-93595000D02*
X89142000Y-93595000D01*
X100802000Y-93635000D02*
X89190000Y-93635000D01*
X100754000Y-93675000D02*
X89238000Y-93675000D01*
X100705000Y-93715000D02*
X89287000Y-93715000D01*
X100656000Y-93755000D02*
X89336000Y-93755000D01*
X100605000Y-93795000D02*
X89387000Y-93795000D01*
X100554000Y-93835000D02*
X89438000Y-93835000D01*
X100502000Y-93875000D02*
X89490000Y-93875000D01*
X100450000Y-93915000D02*
X89542000Y-93915000D01*
X100396000Y-93955000D02*
X89596000Y-93955000D01*
X100342000Y-93995000D02*
X89650000Y-93995000D01*
X100287000Y-94035000D02*
X89705000Y-94035000D01*
X100231000Y-94075000D02*
X89761000Y-94075000D01*
X100174000Y-94115000D02*
X89818000Y-94115000D01*
X100116000Y-94155000D02*
X89876000Y-94155000D01*
X100058000Y-94195000D02*
X89934000Y-94195000D01*
X99998000Y-94235000D02*
X89994000Y-94235000D01*
X99937000Y-94275000D02*
X90055000Y-94275000D01*
X99875000Y-94315000D02*
X90117000Y-94315000D01*
X99812000Y-94355000D02*
X90180000Y-94355000D01*
X99748000Y-94395000D02*
X90244000Y-94395000D01*
X99682000Y-94435000D02*
X90310000Y-94435000D01*
X99616000Y-94475000D02*
X90376000Y-94475000D01*
X99548000Y-94515000D02*
X90444000Y-94515000D01*
X99478000Y-94555000D02*
X90514000Y-94555000D01*
X99408000Y-94595000D02*
X90584000Y-94595000D01*
X99335000Y-94635000D02*
X90657000Y-94635000D01*
X99261000Y-94675000D02*
X90731000Y-94675000D01*
X99186000Y-94715000D02*
X90806000Y-94715000D01*
X99109000Y-94755000D02*
X90883000Y-94755000D01*
X99029000Y-94795000D02*
X90963000Y-94795000D01*
X98948000Y-94834000D02*
X91044000Y-94834000D01*
X98865000Y-94874000D02*
X91127000Y-94874000D01*
X98780000Y-94914000D02*
X91212000Y-94914000D01*
X98692000Y-94954000D02*
X91300000Y-94954000D01*
X98601000Y-94994000D02*
X91391000Y-94994000D01*
X98508000Y-95034000D02*
X91484000Y-95034000D01*
X98412000Y-95074000D02*
X91580000Y-95074000D01*
X98313000Y-95114000D02*
X91679000Y-95114000D01*
X98210000Y-95154000D02*
X91782000Y-95154000D01*
X98103000Y-95194000D02*
X91889000Y-95194000D01*
X97992000Y-95234000D02*
X92000000Y-95234000D01*
X97876000Y-95274000D02*
X92116000Y-95274000D01*
X97755000Y-95314000D02*
X92237000Y-95314000D01*
X97628000Y-95354000D02*
X92364000Y-95354000D01*
X97494000Y-95394000D02*
X92498000Y-95394000D01*
X97351000Y-95434000D02*
X92641000Y-95434000D01*
X97199000Y-95474000D02*
X92793000Y-95474000D01*
X97035000Y-95514000D02*
X92957000Y-95514000D01*
X96856000Y-95554000D02*
X93136000Y-95554000D01*
X96657000Y-95594000D02*
X93335000Y-95594000D01*
X96431000Y-95634000D02*
X93561000Y-95634000D01*
X96162000Y-95674000D02*
X93830000Y-95674000D01*
X95810000Y-95714000D02*
X94182000Y-95714000D01*
X95036000Y-95754000D02*
X94956000Y-95754000D01*
X100111000Y-76874560D02*
X100111000Y-78674560D01*
X101011000Y-77774560D02*
X99211000Y-77774560D01*
X104116000Y-116796000D02*
G75*
G03X104116000Y-116796000I-9120000J0D01*
G01*
X104077000Y-116796000D02*
X85915000Y-116796000D01*
X104076000Y-116836000D02*
X85916000Y-116836000D01*
X104076000Y-116876000D02*
X85916000Y-116876000D01*
X104076000Y-116916000D02*
X85916000Y-116916000D01*
X104075000Y-116956000D02*
X85917000Y-116956000D01*
X104074000Y-116996000D02*
X85918000Y-116996000D01*
X104073000Y-117036000D02*
X85919000Y-117036000D01*
X104072000Y-117076000D02*
X85920000Y-117076000D01*
X104071000Y-117116000D02*
X85921000Y-117116000D01*
X104069000Y-117156000D02*
X85923000Y-117156000D01*
X104068000Y-117196000D02*
X85924000Y-117196000D01*
X104066000Y-117236000D02*
X85926000Y-117236000D01*
X104064000Y-117276000D02*
X85928000Y-117276000D01*
X104062000Y-117316000D02*
X85930000Y-117316000D01*
X104059000Y-117356000D02*
X85933000Y-117356000D01*
X104057000Y-117396000D02*
X85935000Y-117396000D01*
X104054000Y-117436000D02*
X85938000Y-117436000D01*
X104051000Y-117476000D02*
X85941000Y-117476000D01*
X104048000Y-117517000D02*
X85944000Y-117517000D01*
X104045000Y-117557000D02*
X85947000Y-117557000D01*
X104041000Y-117597000D02*
X85951000Y-117597000D01*
X104038000Y-117637000D02*
X85954000Y-117637000D01*
X104034000Y-117677000D02*
X85958000Y-117677000D01*
X104030000Y-117717000D02*
X85962000Y-117717000D01*
X104026000Y-117757000D02*
X85966000Y-117757000D01*
X104022000Y-117797000D02*
X85970000Y-117797000D01*
X104017000Y-117837000D02*
X85975000Y-117837000D01*
X104012000Y-117877000D02*
X85980000Y-117877000D01*
X104007000Y-117917000D02*
X85985000Y-117917000D01*
X104002000Y-117957000D02*
X85990000Y-117957000D01*
X103997000Y-117997000D02*
X85995000Y-117997000D01*
X103992000Y-118037000D02*
X86000000Y-118037000D01*
X103986000Y-118077000D02*
X86006000Y-118077000D01*
X103980000Y-118117000D02*
X86012000Y-118117000D01*
X103975000Y-118157000D02*
X86017000Y-118157000D01*
X103968000Y-118197000D02*
X86024000Y-118197000D01*
X103962000Y-118237000D02*
X86030000Y-118237000D01*
X103956000Y-118277000D02*
X86036000Y-118277000D01*
X103949000Y-118317000D02*
X86043000Y-118317000D01*
X103942000Y-118357000D02*
X86050000Y-118357000D01*
X103935000Y-118397000D02*
X86057000Y-118397000D01*
X103928000Y-118437000D02*
X86064000Y-118437000D01*
X103920000Y-118477000D02*
X86072000Y-118477000D01*
X103913000Y-118517000D02*
X86079000Y-118517000D01*
X103905000Y-118557000D02*
X86087000Y-118557000D01*
X103897000Y-118597000D02*
X86095000Y-118597000D01*
X103889000Y-118637000D02*
X86103000Y-118637000D01*
X103881000Y-118677000D02*
X86111000Y-118677000D01*
X103872000Y-118717000D02*
X86120000Y-118717000D01*
X103863000Y-118757000D02*
X86129000Y-118757000D01*
X103854000Y-118797000D02*
X86138000Y-118797000D01*
X103845000Y-118837000D02*
X86147000Y-118837000D01*
X103836000Y-118877000D02*
X86156000Y-118877000D01*
X103827000Y-118917000D02*
X86165000Y-118917000D01*
X103817000Y-118957000D02*
X86175000Y-118957000D01*
X103807000Y-118997000D02*
X86185000Y-118997000D01*
X103797000Y-119037000D02*
X86195000Y-119037000D01*
X103787000Y-119077000D02*
X86205000Y-119077000D01*
X103776000Y-119117000D02*
X96436000Y-119117000D01*
X93556000Y-119117000D02*
X86216000Y-119117000D01*
X103766000Y-119157000D02*
X96436000Y-119157000D01*
X93556000Y-119157000D02*
X86226000Y-119157000D01*
X103755000Y-119197000D02*
X96436000Y-119197000D01*
X93556000Y-119197000D02*
X86237000Y-119197000D01*
X103744000Y-119237000D02*
X96436000Y-119237000D01*
X93556000Y-119237000D02*
X86248000Y-119237000D01*
X103733000Y-119277000D02*
X96436000Y-119277000D01*
X93556000Y-119277000D02*
X86259000Y-119277000D01*
X103721000Y-119317000D02*
X96436000Y-119317000D01*
X93556000Y-119317000D02*
X86271000Y-119317000D01*
X103710000Y-119357000D02*
X96436000Y-119357000D01*
X93556000Y-119357000D02*
X86282000Y-119357000D01*
X103698000Y-119397000D02*
X96436000Y-119397000D01*
X93556000Y-119397000D02*
X86294000Y-119397000D01*
X103686000Y-119437000D02*
X96436000Y-119437000D01*
X93556000Y-119437000D02*
X86306000Y-119437000D01*
X103674000Y-119477000D02*
X96436000Y-119477000D01*
X93556000Y-119477000D02*
X86318000Y-119477000D01*
X103661000Y-119517000D02*
X96436000Y-119517000D01*
X93556000Y-119517000D02*
X86331000Y-119517000D01*
X103649000Y-119557000D02*
X96436000Y-119557000D01*
X93556000Y-119557000D02*
X86343000Y-119557000D01*
X103636000Y-119597000D02*
X96436000Y-119597000D01*
X93556000Y-119597000D02*
X86356000Y-119597000D01*
X103623000Y-119637000D02*
X96436000Y-119637000D01*
X93556000Y-119637000D02*
X86369000Y-119637000D01*
X103610000Y-119677000D02*
X96436000Y-119677000D01*
X93556000Y-119677000D02*
X86382000Y-119677000D01*
X103596000Y-119717000D02*
X96436000Y-119717000D01*
X93556000Y-119717000D02*
X86396000Y-119717000D01*
X103583000Y-119757000D02*
X96436000Y-119757000D01*
X93556000Y-119757000D02*
X86409000Y-119757000D01*
X103569000Y-119797000D02*
X96436000Y-119797000D01*
X93556000Y-119797000D02*
X86423000Y-119797000D01*
X103555000Y-119837000D02*
X96436000Y-119837000D01*
X93556000Y-119837000D02*
X86437000Y-119837000D01*
X103541000Y-119877000D02*
X96436000Y-119877000D01*
X93556000Y-119877000D02*
X86451000Y-119877000D01*
X103526000Y-119917000D02*
X96436000Y-119917000D01*
X93556000Y-119917000D02*
X86466000Y-119917000D01*
X103512000Y-119957000D02*
X96436000Y-119957000D01*
X93556000Y-119957000D02*
X86480000Y-119957000D01*
X103497000Y-119997000D02*
X96436000Y-119997000D01*
X93556000Y-119997000D02*
X86495000Y-119997000D01*
X103482000Y-120037000D02*
X96436000Y-120037000D01*
X93556000Y-120037000D02*
X86510000Y-120037000D01*
X103466000Y-120077000D02*
X96436000Y-120077000D01*
X93556000Y-120077000D02*
X86526000Y-120077000D01*
X103451000Y-120117000D02*
X96436000Y-120117000D01*
X93556000Y-120117000D02*
X86541000Y-120117000D01*
X103435000Y-120157000D02*
X96436000Y-120157000D01*
X93556000Y-120157000D02*
X86557000Y-120157000D01*
X103419000Y-120197000D02*
X96436000Y-120197000D01*
X93556000Y-120197000D02*
X86573000Y-120197000D01*
X103403000Y-120237000D02*
X96436000Y-120237000D01*
X93556000Y-120237000D02*
X86589000Y-120237000D01*
X103386000Y-120277000D02*
X96436000Y-120277000D01*
X93556000Y-120277000D02*
X86606000Y-120277000D01*
X103370000Y-120317000D02*
X96436000Y-120317000D01*
X93556000Y-120317000D02*
X86622000Y-120317000D01*
X103353000Y-120357000D02*
X96436000Y-120357000D01*
X93556000Y-120357000D02*
X86639000Y-120357000D01*
X103336000Y-120397000D02*
X96436000Y-120397000D01*
X93556000Y-120397000D02*
X86656000Y-120397000D01*
X103319000Y-120437000D02*
X96436000Y-120437000D01*
X93556000Y-120437000D02*
X86673000Y-120437000D01*
X103301000Y-120477000D02*
X96436000Y-120477000D01*
X93556000Y-120477000D02*
X86691000Y-120477000D01*
X103283000Y-120517000D02*
X96436000Y-120517000D01*
X93556000Y-120517000D02*
X86709000Y-120517000D01*
X103265000Y-120557000D02*
X96436000Y-120557000D01*
X93556000Y-120557000D02*
X86727000Y-120557000D01*
X103247000Y-120597000D02*
X96436000Y-120597000D01*
X93556000Y-120597000D02*
X86745000Y-120597000D01*
X103229000Y-120637000D02*
X96436000Y-120637000D01*
X93556000Y-120637000D02*
X86763000Y-120637000D01*
X103210000Y-120677000D02*
X96436000Y-120677000D01*
X93556000Y-120677000D02*
X86782000Y-120677000D01*
X103191000Y-120717000D02*
X96436000Y-120717000D01*
X93556000Y-120717000D02*
X86801000Y-120717000D01*
X103172000Y-120757000D02*
X96436000Y-120757000D01*
X93556000Y-120757000D02*
X86820000Y-120757000D01*
X103152000Y-120797000D02*
X96436000Y-120797000D01*
X93556000Y-120797000D02*
X86840000Y-120797000D01*
X103133000Y-120837000D02*
X96436000Y-120837000D01*
X93556000Y-120837000D02*
X86859000Y-120837000D01*
X103113000Y-120877000D02*
X96436000Y-120877000D01*
X93556000Y-120877000D02*
X86879000Y-120877000D01*
X103093000Y-120917000D02*
X96436000Y-120917000D01*
X93556000Y-120917000D02*
X86899000Y-120917000D01*
X103072000Y-120957000D02*
X96436000Y-120957000D01*
X93556000Y-120957000D02*
X86920000Y-120957000D01*
X103052000Y-120997000D02*
X96436000Y-120997000D01*
X93556000Y-120997000D02*
X86940000Y-120997000D01*
X103031000Y-121037000D02*
X96436000Y-121037000D01*
X93556000Y-121037000D02*
X86961000Y-121037000D01*
X103010000Y-121077000D02*
X96436000Y-121077000D01*
X93556000Y-121077000D02*
X86982000Y-121077000D01*
X102988000Y-121117000D02*
X96436000Y-121117000D01*
X93556000Y-121117000D02*
X87004000Y-121117000D01*
X102967000Y-121157000D02*
X96436000Y-121157000D01*
X93556000Y-121157000D02*
X87025000Y-121157000D01*
X102945000Y-121197000D02*
X96436000Y-121197000D01*
X93556000Y-121197000D02*
X87047000Y-121197000D01*
X102923000Y-121237000D02*
X96436000Y-121237000D01*
X93556000Y-121237000D02*
X87069000Y-121237000D01*
X102900000Y-121277000D02*
X96436000Y-121277000D01*
X93556000Y-121277000D02*
X87092000Y-121277000D01*
X102878000Y-121317000D02*
X96436000Y-121317000D01*
X93556000Y-121317000D02*
X87114000Y-121317000D01*
X102855000Y-121357000D02*
X96436000Y-121357000D01*
X93556000Y-121357000D02*
X87137000Y-121357000D01*
X102831000Y-121397000D02*
X96436000Y-121397000D01*
X93556000Y-121397000D02*
X87161000Y-121397000D01*
X102808000Y-121437000D02*
X96436000Y-121437000D01*
X93556000Y-121437000D02*
X87184000Y-121437000D01*
X102784000Y-121477000D02*
X96436000Y-121477000D01*
X93556000Y-121477000D02*
X87208000Y-121477000D01*
X102760000Y-121517000D02*
X96436000Y-121517000D01*
X93556000Y-121517000D02*
X87232000Y-121517000D01*
X102736000Y-121557000D02*
X96436000Y-121557000D01*
X93556000Y-121557000D02*
X87256000Y-121557000D01*
X102711000Y-121597000D02*
X96436000Y-121597000D01*
X93556000Y-121597000D02*
X87281000Y-121597000D01*
X102686000Y-121637000D02*
X96436000Y-121637000D01*
X93556000Y-121637000D02*
X87306000Y-121637000D01*
X102661000Y-121677000D02*
X96436000Y-121677000D01*
X93556000Y-121677000D02*
X87331000Y-121677000D01*
X102636000Y-121717000D02*
X96436000Y-121717000D01*
X93556000Y-121717000D02*
X87356000Y-121717000D01*
X102610000Y-121757000D02*
X96436000Y-121757000D01*
X93556000Y-121757000D02*
X87382000Y-121757000D01*
X102584000Y-121797000D02*
X96436000Y-121797000D01*
X93556000Y-121797000D02*
X87408000Y-121797000D01*
X102557000Y-121837000D02*
X96436000Y-121837000D01*
X93556000Y-121837000D02*
X87435000Y-121837000D01*
X102531000Y-121877000D02*
X96436000Y-121877000D01*
X93556000Y-121877000D02*
X87461000Y-121877000D01*
X102504000Y-121917000D02*
X96436000Y-121917000D01*
X93556000Y-121917000D02*
X87488000Y-121917000D01*
X102476000Y-121957000D02*
X96436000Y-121957000D01*
X93556000Y-121957000D02*
X87516000Y-121957000D01*
X102449000Y-121997000D02*
X87543000Y-121997000D01*
X102421000Y-122037000D02*
X87571000Y-122037000D01*
X102393000Y-122077000D02*
X87599000Y-122077000D01*
X102364000Y-122117000D02*
X87628000Y-122117000D01*
X102335000Y-122157000D02*
X87657000Y-122157000D01*
X102306000Y-122197000D02*
X87686000Y-122197000D01*
X102276000Y-122237000D02*
X87716000Y-122237000D01*
X102246000Y-122277000D02*
X87746000Y-122277000D01*
X102216000Y-122317000D02*
X87776000Y-122317000D01*
X102186000Y-122357000D02*
X87806000Y-122357000D01*
X102155000Y-122397000D02*
X87837000Y-122397000D01*
X102123000Y-122437000D02*
X87869000Y-122437000D01*
X102092000Y-122477000D02*
X87900000Y-122477000D01*
X102060000Y-122517000D02*
X87932000Y-122517000D01*
X102027000Y-122557000D02*
X87965000Y-122557000D01*
X101995000Y-122597000D02*
X87997000Y-122597000D01*
X101961000Y-122637000D02*
X88031000Y-122637000D01*
X101928000Y-122677000D02*
X88064000Y-122677000D01*
X101894000Y-122717000D02*
X88098000Y-122717000D01*
X101860000Y-122757000D02*
X88132000Y-122757000D01*
X101825000Y-122797000D02*
X88167000Y-122797000D01*
X101790000Y-122837000D02*
X88202000Y-122837000D01*
X101754000Y-122877000D02*
X88238000Y-122877000D01*
X101718000Y-122917000D02*
X88274000Y-122917000D01*
X101682000Y-122957000D02*
X88310000Y-122957000D01*
X101645000Y-122997000D02*
X88347000Y-122997000D01*
X101608000Y-123037000D02*
X88384000Y-123037000D01*
X101570000Y-123077000D02*
X88422000Y-123077000D01*
X101532000Y-123117000D02*
X88460000Y-123117000D01*
X101493000Y-123157000D02*
X88499000Y-123157000D01*
X101454000Y-123197000D02*
X88538000Y-123197000D01*
X101414000Y-123237000D02*
X88578000Y-123237000D01*
X101374000Y-123277000D02*
X88618000Y-123277000D01*
X101333000Y-123317000D02*
X88659000Y-123317000D01*
X101292000Y-123357000D02*
X88700000Y-123357000D01*
X101250000Y-123397000D02*
X88742000Y-123397000D01*
X101208000Y-123437000D02*
X88784000Y-123437000D01*
X101166000Y-123477000D02*
X88826000Y-123477000D01*
X101122000Y-123517000D02*
X88870000Y-123517000D01*
X101078000Y-123557000D02*
X88914000Y-123557000D01*
X101034000Y-123597000D02*
X88958000Y-123597000D01*
X100989000Y-123637000D02*
X89003000Y-123637000D01*
X100943000Y-123677000D02*
X89049000Y-123677000D01*
X100897000Y-123717000D02*
X89095000Y-123717000D01*
X100850000Y-123757000D02*
X89142000Y-123757000D01*
X100802000Y-123797000D02*
X89190000Y-123797000D01*
X100754000Y-123837000D02*
X89238000Y-123837000D01*
X100705000Y-123877000D02*
X89287000Y-123877000D01*
X100656000Y-123917000D02*
X89336000Y-123917000D01*
X100605000Y-123957000D02*
X89387000Y-123957000D01*
X100554000Y-123997000D02*
X89438000Y-123997000D01*
X100502000Y-124037000D02*
X89490000Y-124037000D01*
X100450000Y-124077000D02*
X89542000Y-124077000D01*
X100396000Y-124117000D02*
X89596000Y-124117000D01*
X100342000Y-124157000D02*
X89650000Y-124157000D01*
X100287000Y-124197000D02*
X89705000Y-124197000D01*
X100231000Y-124237000D02*
X89761000Y-124237000D01*
X100174000Y-124277000D02*
X89818000Y-124277000D01*
X100116000Y-124317000D02*
X89876000Y-124317000D01*
X100058000Y-124357000D02*
X89934000Y-124357000D01*
X99998000Y-124397000D02*
X89994000Y-124397000D01*
X99937000Y-124437000D02*
X90055000Y-124437000D01*
X99875000Y-124477000D02*
X90117000Y-124477000D01*
X99812000Y-124517000D02*
X90180000Y-124517000D01*
X99748000Y-124557000D02*
X90244000Y-124557000D01*
X99682000Y-124597000D02*
X90310000Y-124597000D01*
X99616000Y-124637000D02*
X90376000Y-124637000D01*
X99548000Y-124677000D02*
X90444000Y-124677000D01*
X99478000Y-124717000D02*
X90514000Y-124717000D01*
X99408000Y-124757000D02*
X90584000Y-124757000D01*
X99335000Y-124797000D02*
X90657000Y-124797000D01*
X99261000Y-124837000D02*
X90731000Y-124837000D01*
X99186000Y-124877000D02*
X90806000Y-124877000D01*
X99109000Y-124917000D02*
X90883000Y-124917000D01*
X99029000Y-124957000D02*
X90963000Y-124957000D01*
X98948000Y-124996000D02*
X91044000Y-124996000D01*
X98865000Y-125036000D02*
X91127000Y-125036000D01*
X98780000Y-125076000D02*
X91212000Y-125076000D01*
X98692000Y-125116000D02*
X91300000Y-125116000D01*
X98601000Y-125156000D02*
X91391000Y-125156000D01*
X98508000Y-125196000D02*
X91484000Y-125196000D01*
X98412000Y-125236000D02*
X91580000Y-125236000D01*
X98313000Y-125276000D02*
X91679000Y-125276000D01*
X98210000Y-125316000D02*
X91782000Y-125316000D01*
X98103000Y-125356000D02*
X91889000Y-125356000D01*
X97992000Y-125396000D02*
X92000000Y-125396000D01*
X97876000Y-125436000D02*
X92116000Y-125436000D01*
X97755000Y-125476000D02*
X92237000Y-125476000D01*
X97628000Y-125516000D02*
X92364000Y-125516000D01*
X97494000Y-125556000D02*
X92498000Y-125556000D01*
X97351000Y-125596000D02*
X92641000Y-125596000D01*
X97199000Y-125636000D02*
X92793000Y-125636000D01*
X97035000Y-125676000D02*
X92957000Y-125676000D01*
X96856000Y-125716000D02*
X93136000Y-125716000D01*
X96657000Y-125756000D02*
X93335000Y-125756000D01*
X96431000Y-125796000D02*
X93561000Y-125796000D01*
X96162000Y-125836000D02*
X93830000Y-125836000D01*
X95810000Y-125876000D02*
X94182000Y-125876000D01*
X95036000Y-125916000D02*
X94956000Y-125916000D01*
X100111000Y-107036560D02*
X100111000Y-108836560D01*
X101011000Y-107936560D02*
X99211000Y-107936560D01*
X120315000Y-77774560D02*
X118515000Y-77774560D01*
X119415000Y-76874560D02*
X119415000Y-78674560D01*
X114340000Y-95754000D02*
X114260000Y-95754000D01*
X115114000Y-95714000D02*
X113486000Y-95714000D01*
X115466000Y-95674000D02*
X113134000Y-95674000D01*
X115735000Y-95634000D02*
X112865000Y-95634000D01*
X115961000Y-95594000D02*
X112639000Y-95594000D01*
X116160000Y-95554000D02*
X112440000Y-95554000D01*
X116339000Y-95514000D02*
X112261000Y-95514000D01*
X116503000Y-95474000D02*
X112097000Y-95474000D01*
X116655000Y-95434000D02*
X111945000Y-95434000D01*
X116798000Y-95394000D02*
X111802000Y-95394000D01*
X116932000Y-95354000D02*
X111668000Y-95354000D01*
X117059000Y-95314000D02*
X111541000Y-95314000D01*
X117180000Y-95274000D02*
X111420000Y-95274000D01*
X117296000Y-95234000D02*
X111304000Y-95234000D01*
X117407000Y-95194000D02*
X111193000Y-95194000D01*
X117514000Y-95154000D02*
X111086000Y-95154000D01*
X117617000Y-95114000D02*
X110983000Y-95114000D01*
X117716000Y-95074000D02*
X110884000Y-95074000D01*
X117812000Y-95034000D02*
X110788000Y-95034000D01*
X117905000Y-94994000D02*
X110695000Y-94994000D01*
X117996000Y-94954000D02*
X110604000Y-94954000D01*
X118084000Y-94914000D02*
X110516000Y-94914000D01*
X118169000Y-94874000D02*
X110431000Y-94874000D01*
X118252000Y-94834000D02*
X110348000Y-94834000D01*
X118333000Y-94795000D02*
X110267000Y-94795000D01*
X118413000Y-94755000D02*
X110187000Y-94755000D01*
X118490000Y-94715000D02*
X110110000Y-94715000D01*
X118565000Y-94675000D02*
X110035000Y-94675000D01*
X118639000Y-94635000D02*
X109961000Y-94635000D01*
X118712000Y-94595000D02*
X109888000Y-94595000D01*
X118782000Y-94555000D02*
X109818000Y-94555000D01*
X118852000Y-94515000D02*
X109748000Y-94515000D01*
X118920000Y-94475000D02*
X109680000Y-94475000D01*
X118986000Y-94435000D02*
X109614000Y-94435000D01*
X119052000Y-94395000D02*
X109548000Y-94395000D01*
X119116000Y-94355000D02*
X109484000Y-94355000D01*
X119179000Y-94315000D02*
X109421000Y-94315000D01*
X119241000Y-94275000D02*
X109359000Y-94275000D01*
X119302000Y-94235000D02*
X109298000Y-94235000D01*
X119362000Y-94195000D02*
X109238000Y-94195000D01*
X119420000Y-94155000D02*
X109180000Y-94155000D01*
X119478000Y-94115000D02*
X109122000Y-94115000D01*
X119535000Y-94075000D02*
X109065000Y-94075000D01*
X119591000Y-94035000D02*
X109009000Y-94035000D01*
X119646000Y-93995000D02*
X108954000Y-93995000D01*
X119700000Y-93955000D02*
X108900000Y-93955000D01*
X119754000Y-93915000D02*
X108846000Y-93915000D01*
X119806000Y-93875000D02*
X108794000Y-93875000D01*
X119858000Y-93835000D02*
X108742000Y-93835000D01*
X119909000Y-93795000D02*
X108691000Y-93795000D01*
X119960000Y-93755000D02*
X108640000Y-93755000D01*
X120009000Y-93715000D02*
X108591000Y-93715000D01*
X120058000Y-93675000D02*
X108542000Y-93675000D01*
X120106000Y-93635000D02*
X108494000Y-93635000D01*
X120154000Y-93595000D02*
X108446000Y-93595000D01*
X120201000Y-93555000D02*
X108399000Y-93555000D01*
X120247000Y-93515000D02*
X108353000Y-93515000D01*
X120293000Y-93475000D02*
X108307000Y-93475000D01*
X120338000Y-93435000D02*
X108262000Y-93435000D01*
X120382000Y-93395000D02*
X108218000Y-93395000D01*
X120426000Y-93355000D02*
X108174000Y-93355000D01*
X120470000Y-93315000D02*
X108130000Y-93315000D01*
X120512000Y-93275000D02*
X108088000Y-93275000D01*
X120554000Y-93235000D02*
X108046000Y-93235000D01*
X120596000Y-93195000D02*
X108004000Y-93195000D01*
X120637000Y-93155000D02*
X107963000Y-93155000D01*
X120678000Y-93115000D02*
X107922000Y-93115000D01*
X120718000Y-93075000D02*
X107882000Y-93075000D01*
X120758000Y-93035000D02*
X107842000Y-93035000D01*
X120797000Y-92995000D02*
X107803000Y-92995000D01*
X120836000Y-92955000D02*
X107764000Y-92955000D01*
X120874000Y-92915000D02*
X107726000Y-92915000D01*
X120912000Y-92875000D02*
X107688000Y-92875000D01*
X120949000Y-92835000D02*
X107651000Y-92835000D01*
X120986000Y-92795000D02*
X107614000Y-92795000D01*
X121022000Y-92755000D02*
X107578000Y-92755000D01*
X121058000Y-92715000D02*
X107542000Y-92715000D01*
X121094000Y-92675000D02*
X107506000Y-92675000D01*
X121129000Y-92635000D02*
X107471000Y-92635000D01*
X121164000Y-92595000D02*
X107436000Y-92595000D01*
X121198000Y-92555000D02*
X107402000Y-92555000D01*
X121232000Y-92515000D02*
X107368000Y-92515000D01*
X121265000Y-92475000D02*
X107335000Y-92475000D01*
X121299000Y-92435000D02*
X107301000Y-92435000D01*
X121331000Y-92395000D02*
X107269000Y-92395000D01*
X121364000Y-92355000D02*
X107236000Y-92355000D01*
X121396000Y-92315000D02*
X107204000Y-92315000D01*
X121427000Y-92275000D02*
X107173000Y-92275000D01*
X121459000Y-92235000D02*
X107141000Y-92235000D01*
X121490000Y-92195000D02*
X107110000Y-92195000D01*
X121520000Y-92155000D02*
X107080000Y-92155000D01*
X121550000Y-92115000D02*
X107050000Y-92115000D01*
X121580000Y-92075000D02*
X107020000Y-92075000D01*
X121610000Y-92035000D02*
X106990000Y-92035000D01*
X121639000Y-91995000D02*
X106961000Y-91995000D01*
X121668000Y-91955000D02*
X106932000Y-91955000D01*
X121697000Y-91915000D02*
X106903000Y-91915000D01*
X121725000Y-91875000D02*
X106875000Y-91875000D01*
X121753000Y-91835000D02*
X106847000Y-91835000D01*
X112860000Y-91795000D02*
X106820000Y-91795000D01*
X121780000Y-91795000D02*
X115740000Y-91795000D01*
X112860000Y-91755000D02*
X106792000Y-91755000D01*
X121808000Y-91755000D02*
X115740000Y-91755000D01*
X112860000Y-91715000D02*
X106765000Y-91715000D01*
X121835000Y-91715000D02*
X115740000Y-91715000D01*
X112860000Y-91675000D02*
X106739000Y-91675000D01*
X121861000Y-91675000D02*
X115740000Y-91675000D01*
X112860000Y-91635000D02*
X106712000Y-91635000D01*
X121888000Y-91635000D02*
X115740000Y-91635000D01*
X112860000Y-91595000D02*
X106686000Y-91595000D01*
X121914000Y-91595000D02*
X115740000Y-91595000D01*
X112860000Y-91555000D02*
X106660000Y-91555000D01*
X121940000Y-91555000D02*
X115740000Y-91555000D01*
X112860000Y-91515000D02*
X106635000Y-91515000D01*
X121965000Y-91515000D02*
X115740000Y-91515000D01*
X112860000Y-91475000D02*
X106610000Y-91475000D01*
X121990000Y-91475000D02*
X115740000Y-91475000D01*
X112860000Y-91435000D02*
X106585000Y-91435000D01*
X122015000Y-91435000D02*
X115740000Y-91435000D01*
X112860000Y-91395000D02*
X106560000Y-91395000D01*
X122040000Y-91395000D02*
X115740000Y-91395000D01*
X112860000Y-91355000D02*
X106536000Y-91355000D01*
X122064000Y-91355000D02*
X115740000Y-91355000D01*
X112860000Y-91315000D02*
X106512000Y-91315000D01*
X122088000Y-91315000D02*
X115740000Y-91315000D01*
X112860000Y-91275000D02*
X106488000Y-91275000D01*
X122112000Y-91275000D02*
X115740000Y-91275000D01*
X112860000Y-91235000D02*
X106465000Y-91235000D01*
X122135000Y-91235000D02*
X115740000Y-91235000D01*
X112860000Y-91195000D02*
X106441000Y-91195000D01*
X122159000Y-91195000D02*
X115740000Y-91195000D01*
X112860000Y-91155000D02*
X106418000Y-91155000D01*
X122182000Y-91155000D02*
X115740000Y-91155000D01*
X112860000Y-91115000D02*
X106396000Y-91115000D01*
X122204000Y-91115000D02*
X115740000Y-91115000D01*
X112860000Y-91075000D02*
X106373000Y-91075000D01*
X122227000Y-91075000D02*
X115740000Y-91075000D01*
X112860000Y-91035000D02*
X106351000Y-91035000D01*
X122249000Y-91035000D02*
X115740000Y-91035000D01*
X112860000Y-90995000D02*
X106329000Y-90995000D01*
X122271000Y-90995000D02*
X115740000Y-90995000D01*
X112860000Y-90955000D02*
X106308000Y-90955000D01*
X122292000Y-90955000D02*
X115740000Y-90955000D01*
X112860000Y-90915000D02*
X106286000Y-90915000D01*
X122314000Y-90915000D02*
X115740000Y-90915000D01*
X112860000Y-90875000D02*
X106265000Y-90875000D01*
X122335000Y-90875000D02*
X115740000Y-90875000D01*
X112860000Y-90835000D02*
X106244000Y-90835000D01*
X122356000Y-90835000D02*
X115740000Y-90835000D01*
X112860000Y-90795000D02*
X106224000Y-90795000D01*
X122376000Y-90795000D02*
X115740000Y-90795000D01*
X112860000Y-90755000D02*
X106203000Y-90755000D01*
X122397000Y-90755000D02*
X115740000Y-90755000D01*
X112860000Y-90715000D02*
X106183000Y-90715000D01*
X122417000Y-90715000D02*
X115740000Y-90715000D01*
X112860000Y-90675000D02*
X106163000Y-90675000D01*
X122437000Y-90675000D02*
X115740000Y-90675000D01*
X112860000Y-90635000D02*
X106144000Y-90635000D01*
X122456000Y-90635000D02*
X115740000Y-90635000D01*
X112860000Y-90595000D02*
X106124000Y-90595000D01*
X122476000Y-90595000D02*
X115740000Y-90595000D01*
X112860000Y-90555000D02*
X106105000Y-90555000D01*
X122495000Y-90555000D02*
X115740000Y-90555000D01*
X112860000Y-90515000D02*
X106086000Y-90515000D01*
X122514000Y-90515000D02*
X115740000Y-90515000D01*
X112860000Y-90475000D02*
X106067000Y-90475000D01*
X122533000Y-90475000D02*
X115740000Y-90475000D01*
X112860000Y-90435000D02*
X106049000Y-90435000D01*
X122551000Y-90435000D02*
X115740000Y-90435000D01*
X112860000Y-90395000D02*
X106031000Y-90395000D01*
X122569000Y-90395000D02*
X115740000Y-90395000D01*
X112860000Y-90355000D02*
X106013000Y-90355000D01*
X122587000Y-90355000D02*
X115740000Y-90355000D01*
X112860000Y-90315000D02*
X105995000Y-90315000D01*
X122605000Y-90315000D02*
X115740000Y-90315000D01*
X112860000Y-90275000D02*
X105977000Y-90275000D01*
X122623000Y-90275000D02*
X115740000Y-90275000D01*
X112860000Y-90235000D02*
X105960000Y-90235000D01*
X122640000Y-90235000D02*
X115740000Y-90235000D01*
X112860000Y-90195000D02*
X105943000Y-90195000D01*
X122657000Y-90195000D02*
X115740000Y-90195000D01*
X112860000Y-90155000D02*
X105926000Y-90155000D01*
X122674000Y-90155000D02*
X115740000Y-90155000D01*
X112860000Y-90115000D02*
X105910000Y-90115000D01*
X122690000Y-90115000D02*
X115740000Y-90115000D01*
X112860000Y-90075000D02*
X105893000Y-90075000D01*
X122707000Y-90075000D02*
X115740000Y-90075000D01*
X112860000Y-90035000D02*
X105877000Y-90035000D01*
X122723000Y-90035000D02*
X115740000Y-90035000D01*
X112860000Y-89995000D02*
X105861000Y-89995000D01*
X122739000Y-89995000D02*
X115740000Y-89995000D01*
X112860000Y-89955000D02*
X105845000Y-89955000D01*
X122755000Y-89955000D02*
X115740000Y-89955000D01*
X112860000Y-89915000D02*
X105830000Y-89915000D01*
X122770000Y-89915000D02*
X115740000Y-89915000D01*
X112860000Y-89875000D02*
X105814000Y-89875000D01*
X122786000Y-89875000D02*
X115740000Y-89875000D01*
X112860000Y-89835000D02*
X105799000Y-89835000D01*
X122801000Y-89835000D02*
X115740000Y-89835000D01*
X112860000Y-89795000D02*
X105784000Y-89795000D01*
X122816000Y-89795000D02*
X115740000Y-89795000D01*
X112860000Y-89755000D02*
X105770000Y-89755000D01*
X122830000Y-89755000D02*
X115740000Y-89755000D01*
X112860000Y-89715000D02*
X105755000Y-89715000D01*
X122845000Y-89715000D02*
X115740000Y-89715000D01*
X112860000Y-89675000D02*
X105741000Y-89675000D01*
X122859000Y-89675000D02*
X115740000Y-89675000D01*
X112860000Y-89635000D02*
X105727000Y-89635000D01*
X122873000Y-89635000D02*
X115740000Y-89635000D01*
X112860000Y-89595000D02*
X105713000Y-89595000D01*
X122887000Y-89595000D02*
X115740000Y-89595000D01*
X112860000Y-89555000D02*
X105700000Y-89555000D01*
X122900000Y-89555000D02*
X115740000Y-89555000D01*
X112860000Y-89515000D02*
X105686000Y-89515000D01*
X122914000Y-89515000D02*
X115740000Y-89515000D01*
X112860000Y-89475000D02*
X105673000Y-89475000D01*
X122927000Y-89475000D02*
X115740000Y-89475000D01*
X112860000Y-89435000D02*
X105660000Y-89435000D01*
X122940000Y-89435000D02*
X115740000Y-89435000D01*
X112860000Y-89395000D02*
X105647000Y-89395000D01*
X122953000Y-89395000D02*
X115740000Y-89395000D01*
X112860000Y-89355000D02*
X105635000Y-89355000D01*
X122965000Y-89355000D02*
X115740000Y-89355000D01*
X112860000Y-89315000D02*
X105622000Y-89315000D01*
X122978000Y-89315000D02*
X115740000Y-89315000D01*
X112860000Y-89275000D02*
X105610000Y-89275000D01*
X122990000Y-89275000D02*
X115740000Y-89275000D01*
X112860000Y-89235000D02*
X105598000Y-89235000D01*
X123002000Y-89235000D02*
X115740000Y-89235000D01*
X112860000Y-89195000D02*
X105586000Y-89195000D01*
X123014000Y-89195000D02*
X115740000Y-89195000D01*
X112860000Y-89155000D02*
X105575000Y-89155000D01*
X123025000Y-89155000D02*
X115740000Y-89155000D01*
X112860000Y-89115000D02*
X105563000Y-89115000D01*
X123037000Y-89115000D02*
X115740000Y-89115000D01*
X112860000Y-89075000D02*
X105552000Y-89075000D01*
X123048000Y-89075000D02*
X115740000Y-89075000D01*
X112860000Y-89035000D02*
X105541000Y-89035000D01*
X123059000Y-89035000D02*
X115740000Y-89035000D01*
X112860000Y-88995000D02*
X105530000Y-88995000D01*
X123070000Y-88995000D02*
X115740000Y-88995000D01*
X112860000Y-88955000D02*
X105520000Y-88955000D01*
X123080000Y-88955000D02*
X115740000Y-88955000D01*
X123091000Y-88915000D02*
X105509000Y-88915000D01*
X123101000Y-88875000D02*
X105499000Y-88875000D01*
X123111000Y-88835000D02*
X105489000Y-88835000D01*
X123121000Y-88795000D02*
X105479000Y-88795000D01*
X123131000Y-88755000D02*
X105469000Y-88755000D01*
X123140000Y-88715000D02*
X105460000Y-88715000D01*
X123149000Y-88675000D02*
X105451000Y-88675000D01*
X123158000Y-88635000D02*
X105442000Y-88635000D01*
X123167000Y-88595000D02*
X105433000Y-88595000D01*
X123176000Y-88555000D02*
X105424000Y-88555000D01*
X123185000Y-88515000D02*
X105415000Y-88515000D01*
X123193000Y-88475000D02*
X105407000Y-88475000D01*
X123201000Y-88435000D02*
X105399000Y-88435000D01*
X123209000Y-88395000D02*
X105391000Y-88395000D01*
X123217000Y-88355000D02*
X105383000Y-88355000D01*
X123224000Y-88315000D02*
X105376000Y-88315000D01*
X123232000Y-88275000D02*
X105368000Y-88275000D01*
X123239000Y-88235000D02*
X105361000Y-88235000D01*
X123246000Y-88195000D02*
X105354000Y-88195000D01*
X123253000Y-88155000D02*
X105347000Y-88155000D01*
X123260000Y-88115000D02*
X105340000Y-88115000D01*
X123266000Y-88075000D02*
X105334000Y-88075000D01*
X123272000Y-88035000D02*
X105328000Y-88035000D01*
X123279000Y-87995000D02*
X105321000Y-87995000D01*
X123284000Y-87955000D02*
X105316000Y-87955000D01*
X123290000Y-87915000D02*
X105310000Y-87915000D01*
X123296000Y-87875000D02*
X105304000Y-87875000D01*
X123301000Y-87835000D02*
X105299000Y-87835000D01*
X123306000Y-87795000D02*
X105294000Y-87795000D01*
X123311000Y-87755000D02*
X105289000Y-87755000D01*
X123316000Y-87715000D02*
X105284000Y-87715000D01*
X123321000Y-87675000D02*
X105279000Y-87675000D01*
X123326000Y-87635000D02*
X105274000Y-87635000D01*
X123330000Y-87595000D02*
X105270000Y-87595000D01*
X123334000Y-87555000D02*
X105266000Y-87555000D01*
X123338000Y-87515000D02*
X105262000Y-87515000D01*
X123342000Y-87475000D02*
X105258000Y-87475000D01*
X123345000Y-87435000D02*
X105255000Y-87435000D01*
X123349000Y-87395000D02*
X105251000Y-87395000D01*
X123352000Y-87355000D02*
X105248000Y-87355000D01*
X123355000Y-87314000D02*
X105245000Y-87314000D01*
X123358000Y-87274000D02*
X105242000Y-87274000D01*
X123361000Y-87234000D02*
X105239000Y-87234000D01*
X123363000Y-87194000D02*
X105237000Y-87194000D01*
X123366000Y-87154000D02*
X105234000Y-87154000D01*
X123368000Y-87114000D02*
X105232000Y-87114000D01*
X123370000Y-87074000D02*
X105230000Y-87074000D01*
X123372000Y-87034000D02*
X105228000Y-87034000D01*
X123373000Y-86994000D02*
X105227000Y-86994000D01*
X123375000Y-86954000D02*
X105225000Y-86954000D01*
X123376000Y-86914000D02*
X105224000Y-86914000D01*
X123377000Y-86874000D02*
X105223000Y-86874000D01*
X123378000Y-86834000D02*
X105222000Y-86834000D01*
X123379000Y-86794000D02*
X105221000Y-86794000D01*
X123380000Y-86754000D02*
X105220000Y-86754000D01*
X123380000Y-86714000D02*
X105220000Y-86714000D01*
X123380000Y-86674000D02*
X105220000Y-86674000D01*
X123381000Y-86634000D02*
X105219000Y-86634000D01*
X123420000Y-86634000D02*
G75*
G03X123420000Y-86634000I-9120000J0D01*
G01*
X120315000Y-107936560D02*
X118515000Y-107936560D01*
X119415000Y-107036560D02*
X119415000Y-108836560D01*
X114340000Y-125916000D02*
X114260000Y-125916000D01*
X115114000Y-125876000D02*
X113486000Y-125876000D01*
X115466000Y-125836000D02*
X113134000Y-125836000D01*
X115735000Y-125796000D02*
X112865000Y-125796000D01*
X115961000Y-125756000D02*
X112639000Y-125756000D01*
X116160000Y-125716000D02*
X112440000Y-125716000D01*
X116339000Y-125676000D02*
X112261000Y-125676000D01*
X116503000Y-125636000D02*
X112097000Y-125636000D01*
X116655000Y-125596000D02*
X111945000Y-125596000D01*
X116798000Y-125556000D02*
X111802000Y-125556000D01*
X116932000Y-125516000D02*
X111668000Y-125516000D01*
X117059000Y-125476000D02*
X111541000Y-125476000D01*
X117180000Y-125436000D02*
X111420000Y-125436000D01*
X117296000Y-125396000D02*
X111304000Y-125396000D01*
X117407000Y-125356000D02*
X111193000Y-125356000D01*
X117514000Y-125316000D02*
X111086000Y-125316000D01*
X117617000Y-125276000D02*
X110983000Y-125276000D01*
X117716000Y-125236000D02*
X110884000Y-125236000D01*
X117812000Y-125196000D02*
X110788000Y-125196000D01*
X117905000Y-125156000D02*
X110695000Y-125156000D01*
X117996000Y-125116000D02*
X110604000Y-125116000D01*
X118084000Y-125076000D02*
X110516000Y-125076000D01*
X118169000Y-125036000D02*
X110431000Y-125036000D01*
X118252000Y-124996000D02*
X110348000Y-124996000D01*
X118333000Y-124957000D02*
X110267000Y-124957000D01*
X118413000Y-124917000D02*
X110187000Y-124917000D01*
X118490000Y-124877000D02*
X110110000Y-124877000D01*
X118565000Y-124837000D02*
X110035000Y-124837000D01*
X118639000Y-124797000D02*
X109961000Y-124797000D01*
X118712000Y-124757000D02*
X109888000Y-124757000D01*
X118782000Y-124717000D02*
X109818000Y-124717000D01*
X118852000Y-124677000D02*
X109748000Y-124677000D01*
X118920000Y-124637000D02*
X109680000Y-124637000D01*
X118986000Y-124597000D02*
X109614000Y-124597000D01*
X119052000Y-124557000D02*
X109548000Y-124557000D01*
X119116000Y-124517000D02*
X109484000Y-124517000D01*
X119179000Y-124477000D02*
X109421000Y-124477000D01*
X119241000Y-124437000D02*
X109359000Y-124437000D01*
X119302000Y-124397000D02*
X109298000Y-124397000D01*
X119362000Y-124357000D02*
X109238000Y-124357000D01*
X119420000Y-124317000D02*
X109180000Y-124317000D01*
X119478000Y-124277000D02*
X109122000Y-124277000D01*
X119535000Y-124237000D02*
X109065000Y-124237000D01*
X119591000Y-124197000D02*
X109009000Y-124197000D01*
X119646000Y-124157000D02*
X108954000Y-124157000D01*
X119700000Y-124117000D02*
X108900000Y-124117000D01*
X119754000Y-124077000D02*
X108846000Y-124077000D01*
X119806000Y-124037000D02*
X108794000Y-124037000D01*
X119858000Y-123997000D02*
X108742000Y-123997000D01*
X119909000Y-123957000D02*
X108691000Y-123957000D01*
X119960000Y-123917000D02*
X108640000Y-123917000D01*
X120009000Y-123877000D02*
X108591000Y-123877000D01*
X120058000Y-123837000D02*
X108542000Y-123837000D01*
X120106000Y-123797000D02*
X108494000Y-123797000D01*
X120154000Y-123757000D02*
X108446000Y-123757000D01*
X120201000Y-123717000D02*
X108399000Y-123717000D01*
X120247000Y-123677000D02*
X108353000Y-123677000D01*
X120293000Y-123637000D02*
X108307000Y-123637000D01*
X120338000Y-123597000D02*
X108262000Y-123597000D01*
X120382000Y-123557000D02*
X108218000Y-123557000D01*
X120426000Y-123517000D02*
X108174000Y-123517000D01*
X120470000Y-123477000D02*
X108130000Y-123477000D01*
X120512000Y-123437000D02*
X108088000Y-123437000D01*
X120554000Y-123397000D02*
X108046000Y-123397000D01*
X120596000Y-123357000D02*
X108004000Y-123357000D01*
X120637000Y-123317000D02*
X107963000Y-123317000D01*
X120678000Y-123277000D02*
X107922000Y-123277000D01*
X120718000Y-123237000D02*
X107882000Y-123237000D01*
X120758000Y-123197000D02*
X107842000Y-123197000D01*
X120797000Y-123157000D02*
X107803000Y-123157000D01*
X120836000Y-123117000D02*
X107764000Y-123117000D01*
X120874000Y-123077000D02*
X107726000Y-123077000D01*
X120912000Y-123037000D02*
X107688000Y-123037000D01*
X120949000Y-122997000D02*
X107651000Y-122997000D01*
X120986000Y-122957000D02*
X107614000Y-122957000D01*
X121022000Y-122917000D02*
X107578000Y-122917000D01*
X121058000Y-122877000D02*
X107542000Y-122877000D01*
X121094000Y-122837000D02*
X107506000Y-122837000D01*
X121129000Y-122797000D02*
X107471000Y-122797000D01*
X121164000Y-122757000D02*
X107436000Y-122757000D01*
X121198000Y-122717000D02*
X107402000Y-122717000D01*
X121232000Y-122677000D02*
X107368000Y-122677000D01*
X121265000Y-122637000D02*
X107335000Y-122637000D01*
X121299000Y-122597000D02*
X107301000Y-122597000D01*
X121331000Y-122557000D02*
X107269000Y-122557000D01*
X121364000Y-122517000D02*
X107236000Y-122517000D01*
X121396000Y-122477000D02*
X107204000Y-122477000D01*
X121427000Y-122437000D02*
X107173000Y-122437000D01*
X121459000Y-122397000D02*
X107141000Y-122397000D01*
X121490000Y-122357000D02*
X107110000Y-122357000D01*
X121520000Y-122317000D02*
X107080000Y-122317000D01*
X121550000Y-122277000D02*
X107050000Y-122277000D01*
X121580000Y-122237000D02*
X107020000Y-122237000D01*
X121610000Y-122197000D02*
X106990000Y-122197000D01*
X121639000Y-122157000D02*
X106961000Y-122157000D01*
X121668000Y-122117000D02*
X106932000Y-122117000D01*
X121697000Y-122077000D02*
X106903000Y-122077000D01*
X121725000Y-122037000D02*
X106875000Y-122037000D01*
X121753000Y-121997000D02*
X106847000Y-121997000D01*
X112860000Y-121957000D02*
X106820000Y-121957000D01*
X121780000Y-121957000D02*
X115740000Y-121957000D01*
X112860000Y-121917000D02*
X106792000Y-121917000D01*
X121808000Y-121917000D02*
X115740000Y-121917000D01*
X112860000Y-121877000D02*
X106765000Y-121877000D01*
X121835000Y-121877000D02*
X115740000Y-121877000D01*
X112860000Y-121837000D02*
X106739000Y-121837000D01*
X121861000Y-121837000D02*
X115740000Y-121837000D01*
X112860000Y-121797000D02*
X106712000Y-121797000D01*
X121888000Y-121797000D02*
X115740000Y-121797000D01*
X112860000Y-121757000D02*
X106686000Y-121757000D01*
X121914000Y-121757000D02*
X115740000Y-121757000D01*
X112860000Y-121717000D02*
X106660000Y-121717000D01*
X121940000Y-121717000D02*
X115740000Y-121717000D01*
X112860000Y-121677000D02*
X106635000Y-121677000D01*
X121965000Y-121677000D02*
X115740000Y-121677000D01*
X112860000Y-121637000D02*
X106610000Y-121637000D01*
X121990000Y-121637000D02*
X115740000Y-121637000D01*
X112860000Y-121597000D02*
X106585000Y-121597000D01*
X122015000Y-121597000D02*
X115740000Y-121597000D01*
X112860000Y-121557000D02*
X106560000Y-121557000D01*
X122040000Y-121557000D02*
X115740000Y-121557000D01*
X112860000Y-121517000D02*
X106536000Y-121517000D01*
X122064000Y-121517000D02*
X115740000Y-121517000D01*
X112860000Y-121477000D02*
X106512000Y-121477000D01*
X122088000Y-121477000D02*
X115740000Y-121477000D01*
X112860000Y-121437000D02*
X106488000Y-121437000D01*
X122112000Y-121437000D02*
X115740000Y-121437000D01*
X112860000Y-121397000D02*
X106465000Y-121397000D01*
X122135000Y-121397000D02*
X115740000Y-121397000D01*
X112860000Y-121357000D02*
X106441000Y-121357000D01*
X122159000Y-121357000D02*
X115740000Y-121357000D01*
X112860000Y-121317000D02*
X106418000Y-121317000D01*
X122182000Y-121317000D02*
X115740000Y-121317000D01*
X112860000Y-121277000D02*
X106396000Y-121277000D01*
X122204000Y-121277000D02*
X115740000Y-121277000D01*
X112860000Y-121237000D02*
X106373000Y-121237000D01*
X122227000Y-121237000D02*
X115740000Y-121237000D01*
X112860000Y-121197000D02*
X106351000Y-121197000D01*
X122249000Y-121197000D02*
X115740000Y-121197000D01*
X112860000Y-121157000D02*
X106329000Y-121157000D01*
X122271000Y-121157000D02*
X115740000Y-121157000D01*
X112860000Y-121117000D02*
X106308000Y-121117000D01*
X122292000Y-121117000D02*
X115740000Y-121117000D01*
X112860000Y-121077000D02*
X106286000Y-121077000D01*
X122314000Y-121077000D02*
X115740000Y-121077000D01*
X112860000Y-121037000D02*
X106265000Y-121037000D01*
X122335000Y-121037000D02*
X115740000Y-121037000D01*
X112860000Y-120997000D02*
X106244000Y-120997000D01*
X122356000Y-120997000D02*
X115740000Y-120997000D01*
X112860000Y-120957000D02*
X106224000Y-120957000D01*
X122376000Y-120957000D02*
X115740000Y-120957000D01*
X112860000Y-120917000D02*
X106203000Y-120917000D01*
X122397000Y-120917000D02*
X115740000Y-120917000D01*
X112860000Y-120877000D02*
X106183000Y-120877000D01*
X122417000Y-120877000D02*
X115740000Y-120877000D01*
X112860000Y-120837000D02*
X106163000Y-120837000D01*
X122437000Y-120837000D02*
X115740000Y-120837000D01*
X112860000Y-120797000D02*
X106144000Y-120797000D01*
X122456000Y-120797000D02*
X115740000Y-120797000D01*
X112860000Y-120757000D02*
X106124000Y-120757000D01*
X122476000Y-120757000D02*
X115740000Y-120757000D01*
X112860000Y-120717000D02*
X106105000Y-120717000D01*
X122495000Y-120717000D02*
X115740000Y-120717000D01*
X112860000Y-120677000D02*
X106086000Y-120677000D01*
X122514000Y-120677000D02*
X115740000Y-120677000D01*
X112860000Y-120637000D02*
X106067000Y-120637000D01*
X122533000Y-120637000D02*
X115740000Y-120637000D01*
X112860000Y-120597000D02*
X106049000Y-120597000D01*
X122551000Y-120597000D02*
X115740000Y-120597000D01*
X112860000Y-120557000D02*
X106031000Y-120557000D01*
X122569000Y-120557000D02*
X115740000Y-120557000D01*
X112860000Y-120517000D02*
X106013000Y-120517000D01*
X122587000Y-120517000D02*
X115740000Y-120517000D01*
X112860000Y-120477000D02*
X105995000Y-120477000D01*
X122605000Y-120477000D02*
X115740000Y-120477000D01*
X112860000Y-120437000D02*
X105977000Y-120437000D01*
X122623000Y-120437000D02*
X115740000Y-120437000D01*
X112860000Y-120397000D02*
X105960000Y-120397000D01*
X122640000Y-120397000D02*
X115740000Y-120397000D01*
X112860000Y-120357000D02*
X105943000Y-120357000D01*
X122657000Y-120357000D02*
X115740000Y-120357000D01*
X112860000Y-120317000D02*
X105926000Y-120317000D01*
X122674000Y-120317000D02*
X115740000Y-120317000D01*
X112860000Y-120277000D02*
X105910000Y-120277000D01*
X122690000Y-120277000D02*
X115740000Y-120277000D01*
X112860000Y-120237000D02*
X105893000Y-120237000D01*
X122707000Y-120237000D02*
X115740000Y-120237000D01*
X112860000Y-120197000D02*
X105877000Y-120197000D01*
X122723000Y-120197000D02*
X115740000Y-120197000D01*
X112860000Y-120157000D02*
X105861000Y-120157000D01*
X122739000Y-120157000D02*
X115740000Y-120157000D01*
X112860000Y-120117000D02*
X105845000Y-120117000D01*
X122755000Y-120117000D02*
X115740000Y-120117000D01*
X112860000Y-120077000D02*
X105830000Y-120077000D01*
X122770000Y-120077000D02*
X115740000Y-120077000D01*
X112860000Y-120037000D02*
X105814000Y-120037000D01*
X122786000Y-120037000D02*
X115740000Y-120037000D01*
X112860000Y-119997000D02*
X105799000Y-119997000D01*
X122801000Y-119997000D02*
X115740000Y-119997000D01*
X112860000Y-119957000D02*
X105784000Y-119957000D01*
X122816000Y-119957000D02*
X115740000Y-119957000D01*
X112860000Y-119917000D02*
X105770000Y-119917000D01*
X122830000Y-119917000D02*
X115740000Y-119917000D01*
X112860000Y-119877000D02*
X105755000Y-119877000D01*
X122845000Y-119877000D02*
X115740000Y-119877000D01*
X112860000Y-119837000D02*
X105741000Y-119837000D01*
X122859000Y-119837000D02*
X115740000Y-119837000D01*
X112860000Y-119797000D02*
X105727000Y-119797000D01*
X122873000Y-119797000D02*
X115740000Y-119797000D01*
X112860000Y-119757000D02*
X105713000Y-119757000D01*
X122887000Y-119757000D02*
X115740000Y-119757000D01*
X112860000Y-119717000D02*
X105700000Y-119717000D01*
X122900000Y-119717000D02*
X115740000Y-119717000D01*
X112860000Y-119677000D02*
X105686000Y-119677000D01*
X122914000Y-119677000D02*
X115740000Y-119677000D01*
X112860000Y-119637000D02*
X105673000Y-119637000D01*
X122927000Y-119637000D02*
X115740000Y-119637000D01*
X112860000Y-119597000D02*
X105660000Y-119597000D01*
X122940000Y-119597000D02*
X115740000Y-119597000D01*
X112860000Y-119557000D02*
X105647000Y-119557000D01*
X122953000Y-119557000D02*
X115740000Y-119557000D01*
X112860000Y-119517000D02*
X105635000Y-119517000D01*
X122965000Y-119517000D02*
X115740000Y-119517000D01*
X112860000Y-119477000D02*
X105622000Y-119477000D01*
X122978000Y-119477000D02*
X115740000Y-119477000D01*
X112860000Y-119437000D02*
X105610000Y-119437000D01*
X122990000Y-119437000D02*
X115740000Y-119437000D01*
X112860000Y-119397000D02*
X105598000Y-119397000D01*
X123002000Y-119397000D02*
X115740000Y-119397000D01*
X112860000Y-119357000D02*
X105586000Y-119357000D01*
X123014000Y-119357000D02*
X115740000Y-119357000D01*
X112860000Y-119317000D02*
X105575000Y-119317000D01*
X123025000Y-119317000D02*
X115740000Y-119317000D01*
X112860000Y-119277000D02*
X105563000Y-119277000D01*
X123037000Y-119277000D02*
X115740000Y-119277000D01*
X112860000Y-119237000D02*
X105552000Y-119237000D01*
X123048000Y-119237000D02*
X115740000Y-119237000D01*
X112860000Y-119197000D02*
X105541000Y-119197000D01*
X123059000Y-119197000D02*
X115740000Y-119197000D01*
X112860000Y-119157000D02*
X105530000Y-119157000D01*
X123070000Y-119157000D02*
X115740000Y-119157000D01*
X112860000Y-119117000D02*
X105520000Y-119117000D01*
X123080000Y-119117000D02*
X115740000Y-119117000D01*
X123091000Y-119077000D02*
X105509000Y-119077000D01*
X123101000Y-119037000D02*
X105499000Y-119037000D01*
X123111000Y-118997000D02*
X105489000Y-118997000D01*
X123121000Y-118957000D02*
X105479000Y-118957000D01*
X123131000Y-118917000D02*
X105469000Y-118917000D01*
X123140000Y-118877000D02*
X105460000Y-118877000D01*
X123149000Y-118837000D02*
X105451000Y-118837000D01*
X123158000Y-118797000D02*
X105442000Y-118797000D01*
X123167000Y-118757000D02*
X105433000Y-118757000D01*
X123176000Y-118717000D02*
X105424000Y-118717000D01*
X123185000Y-118677000D02*
X105415000Y-118677000D01*
X123193000Y-118637000D02*
X105407000Y-118637000D01*
X123201000Y-118597000D02*
X105399000Y-118597000D01*
X123209000Y-118557000D02*
X105391000Y-118557000D01*
X123217000Y-118517000D02*
X105383000Y-118517000D01*
X123224000Y-118477000D02*
X105376000Y-118477000D01*
X123232000Y-118437000D02*
X105368000Y-118437000D01*
X123239000Y-118397000D02*
X105361000Y-118397000D01*
X123246000Y-118357000D02*
X105354000Y-118357000D01*
X123253000Y-118317000D02*
X105347000Y-118317000D01*
X123260000Y-118277000D02*
X105340000Y-118277000D01*
X123266000Y-118237000D02*
X105334000Y-118237000D01*
X123272000Y-118197000D02*
X105328000Y-118197000D01*
X123279000Y-118157000D02*
X105321000Y-118157000D01*
X123284000Y-118117000D02*
X105316000Y-118117000D01*
X123290000Y-118077000D02*
X105310000Y-118077000D01*
X123296000Y-118037000D02*
X105304000Y-118037000D01*
X123301000Y-117997000D02*
X105299000Y-117997000D01*
X123306000Y-117957000D02*
X105294000Y-117957000D01*
X123311000Y-117917000D02*
X105289000Y-117917000D01*
X123316000Y-117877000D02*
X105284000Y-117877000D01*
X123321000Y-117837000D02*
X105279000Y-117837000D01*
X123326000Y-117797000D02*
X105274000Y-117797000D01*
X123330000Y-117757000D02*
X105270000Y-117757000D01*
X123334000Y-117717000D02*
X105266000Y-117717000D01*
X123338000Y-117677000D02*
X105262000Y-117677000D01*
X123342000Y-117637000D02*
X105258000Y-117637000D01*
X123345000Y-117597000D02*
X105255000Y-117597000D01*
X123349000Y-117557000D02*
X105251000Y-117557000D01*
X123352000Y-117517000D02*
X105248000Y-117517000D01*
X123355000Y-117476000D02*
X105245000Y-117476000D01*
X123358000Y-117436000D02*
X105242000Y-117436000D01*
X123361000Y-117396000D02*
X105239000Y-117396000D01*
X123363000Y-117356000D02*
X105237000Y-117356000D01*
X123366000Y-117316000D02*
X105234000Y-117316000D01*
X123368000Y-117276000D02*
X105232000Y-117276000D01*
X123370000Y-117236000D02*
X105230000Y-117236000D01*
X123372000Y-117196000D02*
X105228000Y-117196000D01*
X123373000Y-117156000D02*
X105227000Y-117156000D01*
X123375000Y-117116000D02*
X105225000Y-117116000D01*
X123376000Y-117076000D02*
X105224000Y-117076000D01*
X123377000Y-117036000D02*
X105223000Y-117036000D01*
X123378000Y-116996000D02*
X105222000Y-116996000D01*
X123379000Y-116956000D02*
X105221000Y-116956000D01*
X123380000Y-116916000D02*
X105220000Y-116916000D01*
X123380000Y-116876000D02*
X105220000Y-116876000D01*
X123380000Y-116836000D02*
X105220000Y-116836000D01*
X123381000Y-116796000D02*
X105219000Y-116796000D01*
X123420000Y-116796000D02*
G75*
G03X123420000Y-116796000I-9120000J0D01*
G01*
X127642000Y-92086500D02*
X132882000Y-92086500D01*
X127642000Y-94826500D02*
X132882000Y-94826500D01*
X127642000Y-92086500D02*
X127642000Y-92401500D01*
X127642000Y-94511500D02*
X127642000Y-94826500D01*
X132882000Y-92086500D02*
X132882000Y-92401500D01*
X132882000Y-94511500D02*
X132882000Y-94826500D01*
X132628000Y-112101000D02*
X132628000Y-112416000D01*
X132628000Y-109676000D02*
X132628000Y-109991000D01*
X127388000Y-112101000D02*
X127388000Y-112416000D01*
X127388000Y-109676000D02*
X127388000Y-109991000D01*
X127388000Y-112416000D02*
X132628000Y-112416000D01*
X127388000Y-109676000D02*
X132628000Y-109676000D01*
X137129225Y-90271000D02*
X137129225Y-90771000D01*
X136879225Y-90521000D02*
X137379225Y-90521000D01*
X142285000Y-91712000D02*
X142285000Y-92280000D01*
X142245000Y-91478000D02*
X142245000Y-92514000D01*
X142205000Y-91319000D02*
X142205000Y-92673000D01*
X142165000Y-91191000D02*
X142165000Y-92801000D01*
X142125000Y-91081000D02*
X142125000Y-92911000D01*
X142085000Y-90985000D02*
X142085000Y-93007000D01*
X142045000Y-90898000D02*
X142045000Y-93094000D01*
X142005000Y-90818000D02*
X142005000Y-93174000D01*
X141965000Y-90745000D02*
X141965000Y-93247000D01*
X141925000Y-90677000D02*
X141925000Y-93315000D01*
X141885000Y-90613000D02*
X141885000Y-93379000D01*
X141845000Y-90553000D02*
X141845000Y-93439000D01*
X141805000Y-90496000D02*
X141805000Y-93496000D01*
X141765000Y-90442000D02*
X141765000Y-93550000D01*
X141725000Y-90391000D02*
X141725000Y-93601000D01*
X141685000Y-93036000D02*
X141685000Y-93649000D01*
X141685000Y-90343000D02*
X141685000Y-90956000D01*
X141645000Y-93036000D02*
X141645000Y-93695000D01*
X141645000Y-90297000D02*
X141645000Y-90956000D01*
X141605000Y-93036000D02*
X141605000Y-93739000D01*
X141605000Y-90253000D02*
X141605000Y-90956000D01*
X141565000Y-93036000D02*
X141565000Y-93781000D01*
X141565000Y-90211000D02*
X141565000Y-90956000D01*
X141525000Y-93036000D02*
X141525000Y-93822000D01*
X141525000Y-90170000D02*
X141525000Y-90956000D01*
X141485000Y-93036000D02*
X141485000Y-93860000D01*
X141485000Y-90132000D02*
X141485000Y-90956000D01*
X141445000Y-93036000D02*
X141445000Y-93897000D01*
X141445000Y-90095000D02*
X141445000Y-90956000D01*
X141405000Y-93036000D02*
X141405000Y-93933000D01*
X141405000Y-90059000D02*
X141405000Y-90956000D01*
X141365000Y-93036000D02*
X141365000Y-93967000D01*
X141365000Y-90025000D02*
X141365000Y-90956000D01*
X141325000Y-93036000D02*
X141325000Y-94000000D01*
X141325000Y-89992000D02*
X141325000Y-90956000D01*
X141285000Y-93036000D02*
X141285000Y-94031000D01*
X141285000Y-89961000D02*
X141285000Y-90956000D01*
X141245000Y-93036000D02*
X141245000Y-94061000D01*
X141245000Y-89931000D02*
X141245000Y-90956000D01*
X141205000Y-93036000D02*
X141205000Y-94091000D01*
X141205000Y-89901000D02*
X141205000Y-90956000D01*
X141165000Y-93036000D02*
X141165000Y-94118000D01*
X141165000Y-89874000D02*
X141165000Y-90956000D01*
X141125000Y-93036000D02*
X141125000Y-94145000D01*
X141125000Y-89847000D02*
X141125000Y-90956000D01*
X141085000Y-93036000D02*
X141085000Y-94171000D01*
X141085000Y-89821000D02*
X141085000Y-90956000D01*
X141045000Y-93036000D02*
X141045000Y-94196000D01*
X141045000Y-89796000D02*
X141045000Y-90956000D01*
X141005000Y-93036000D02*
X141005000Y-94220000D01*
X141005000Y-89772000D02*
X141005000Y-90956000D01*
X140965000Y-93036000D02*
X140965000Y-94243000D01*
X140965000Y-89749000D02*
X140965000Y-90956000D01*
X140925000Y-93036000D02*
X140925000Y-94264000D01*
X140925000Y-89728000D02*
X140925000Y-90956000D01*
X140885000Y-93036000D02*
X140885000Y-94286000D01*
X140885000Y-89706000D02*
X140885000Y-90956000D01*
X140845000Y-93036000D02*
X140845000Y-94306000D01*
X140845000Y-89686000D02*
X140845000Y-90956000D01*
X140805000Y-93036000D02*
X140805000Y-94325000D01*
X140805000Y-89667000D02*
X140805000Y-90956000D01*
X140765000Y-93036000D02*
X140765000Y-94344000D01*
X140765000Y-89648000D02*
X140765000Y-90956000D01*
X140725000Y-93036000D02*
X140725000Y-94361000D01*
X140725000Y-89631000D02*
X140725000Y-90956000D01*
X140685000Y-93036000D02*
X140685000Y-94378000D01*
X140685000Y-89614000D02*
X140685000Y-90956000D01*
X140645000Y-93036000D02*
X140645000Y-94394000D01*
X140645000Y-89598000D02*
X140645000Y-90956000D01*
X140605000Y-93036000D02*
X140605000Y-94410000D01*
X140605000Y-89582000D02*
X140605000Y-90956000D01*
X140565000Y-93036000D02*
X140565000Y-94424000D01*
X140565000Y-89568000D02*
X140565000Y-90956000D01*
X140525000Y-93036000D02*
X140525000Y-94438000D01*
X140525000Y-89554000D02*
X140525000Y-90956000D01*
X140485000Y-93036000D02*
X140485000Y-94451000D01*
X140485000Y-89541000D02*
X140485000Y-90956000D01*
X140445000Y-93036000D02*
X140445000Y-94464000D01*
X140445000Y-89528000D02*
X140445000Y-90956000D01*
X140405000Y-93036000D02*
X140405000Y-94476000D01*
X140405000Y-89516000D02*
X140405000Y-90956000D01*
X140364000Y-93036000D02*
X140364000Y-94487000D01*
X140364000Y-89505000D02*
X140364000Y-90956000D01*
X140324000Y-93036000D02*
X140324000Y-94497000D01*
X140324000Y-89495000D02*
X140324000Y-90956000D01*
X140284000Y-93036000D02*
X140284000Y-94507000D01*
X140284000Y-89485000D02*
X140284000Y-90956000D01*
X140244000Y-93036000D02*
X140244000Y-94516000D01*
X140244000Y-89476000D02*
X140244000Y-90956000D01*
X140204000Y-93036000D02*
X140204000Y-94524000D01*
X140204000Y-89468000D02*
X140204000Y-90956000D01*
X140164000Y-93036000D02*
X140164000Y-94532000D01*
X140164000Y-89460000D02*
X140164000Y-90956000D01*
X140124000Y-93036000D02*
X140124000Y-94539000D01*
X140124000Y-89453000D02*
X140124000Y-90956000D01*
X140084000Y-93036000D02*
X140084000Y-94546000D01*
X140084000Y-89446000D02*
X140084000Y-90956000D01*
X140044000Y-93036000D02*
X140044000Y-94552000D01*
X140044000Y-89440000D02*
X140044000Y-90956000D01*
X140004000Y-93036000D02*
X140004000Y-94557000D01*
X140004000Y-89435000D02*
X140004000Y-90956000D01*
X139964000Y-93036000D02*
X139964000Y-94561000D01*
X139964000Y-89431000D02*
X139964000Y-90956000D01*
X139924000Y-93036000D02*
X139924000Y-94565000D01*
X139924000Y-89427000D02*
X139924000Y-90956000D01*
X139884000Y-93036000D02*
X139884000Y-94569000D01*
X139884000Y-89423000D02*
X139884000Y-90956000D01*
X139844000Y-93036000D02*
X139844000Y-94572000D01*
X139844000Y-89420000D02*
X139844000Y-90956000D01*
X139804000Y-93036000D02*
X139804000Y-94574000D01*
X139804000Y-89418000D02*
X139804000Y-90956000D01*
X139764000Y-93036000D02*
X139764000Y-94575000D01*
X139764000Y-89417000D02*
X139764000Y-90956000D01*
X139724000Y-89416000D02*
X139724000Y-90956000D01*
X139724000Y-93036000D02*
X139724000Y-94576000D01*
X139684000Y-89416000D02*
X139684000Y-90956000D01*
X139684000Y-93036000D02*
X139684000Y-94576000D01*
X142304000Y-91996000D02*
G75*
G03X142304000Y-91996000I-2620000J0D01*
G01*
X142209000Y-112189000D02*
G75*
G03X142209000Y-112189000I-2620000J0D01*
G01*
X139589000Y-111149000D02*
X139589000Y-109609000D01*
X139589000Y-114769000D02*
X139589000Y-113229000D01*
X139549000Y-111149000D02*
X139549000Y-109609000D01*
X139549000Y-114769000D02*
X139549000Y-113229000D01*
X139509000Y-114768000D02*
X139509000Y-113229000D01*
X139509000Y-111149000D02*
X139509000Y-109610000D01*
X139469000Y-114767000D02*
X139469000Y-113229000D01*
X139469000Y-111149000D02*
X139469000Y-109611000D01*
X139429000Y-114765000D02*
X139429000Y-113229000D01*
X139429000Y-111149000D02*
X139429000Y-109613000D01*
X139389000Y-114762000D02*
X139389000Y-113229000D01*
X139389000Y-111149000D02*
X139389000Y-109616000D01*
X139349000Y-114758000D02*
X139349000Y-113229000D01*
X139349000Y-111149000D02*
X139349000Y-109620000D01*
X139309000Y-114754000D02*
X139309000Y-113229000D01*
X139309000Y-111149000D02*
X139309000Y-109624000D01*
X139269000Y-114750000D02*
X139269000Y-113229000D01*
X139269000Y-111149000D02*
X139269000Y-109628000D01*
X139229000Y-114745000D02*
X139229000Y-113229000D01*
X139229000Y-111149000D02*
X139229000Y-109633000D01*
X139189000Y-114739000D02*
X139189000Y-113229000D01*
X139189000Y-111149000D02*
X139189000Y-109639000D01*
X139149000Y-114732000D02*
X139149000Y-113229000D01*
X139149000Y-111149000D02*
X139149000Y-109646000D01*
X139109000Y-114725000D02*
X139109000Y-113229000D01*
X139109000Y-111149000D02*
X139109000Y-109653000D01*
X139069000Y-114717000D02*
X139069000Y-113229000D01*
X139069000Y-111149000D02*
X139069000Y-109661000D01*
X139029000Y-114709000D02*
X139029000Y-113229000D01*
X139029000Y-111149000D02*
X139029000Y-109669000D01*
X138989000Y-114700000D02*
X138989000Y-113229000D01*
X138989000Y-111149000D02*
X138989000Y-109678000D01*
X138949000Y-114690000D02*
X138949000Y-113229000D01*
X138949000Y-111149000D02*
X138949000Y-109688000D01*
X138909000Y-114680000D02*
X138909000Y-113229000D01*
X138909000Y-111149000D02*
X138909000Y-109698000D01*
X138868000Y-114669000D02*
X138868000Y-113229000D01*
X138868000Y-111149000D02*
X138868000Y-109709000D01*
X138828000Y-114657000D02*
X138828000Y-113229000D01*
X138828000Y-111149000D02*
X138828000Y-109721000D01*
X138788000Y-114644000D02*
X138788000Y-113229000D01*
X138788000Y-111149000D02*
X138788000Y-109734000D01*
X138748000Y-114631000D02*
X138748000Y-113229000D01*
X138748000Y-111149000D02*
X138748000Y-109747000D01*
X138708000Y-114617000D02*
X138708000Y-113229000D01*
X138708000Y-111149000D02*
X138708000Y-109761000D01*
X138668000Y-114603000D02*
X138668000Y-113229000D01*
X138668000Y-111149000D02*
X138668000Y-109775000D01*
X138628000Y-114587000D02*
X138628000Y-113229000D01*
X138628000Y-111149000D02*
X138628000Y-109791000D01*
X138588000Y-114571000D02*
X138588000Y-113229000D01*
X138588000Y-111149000D02*
X138588000Y-109807000D01*
X138548000Y-114554000D02*
X138548000Y-113229000D01*
X138548000Y-111149000D02*
X138548000Y-109824000D01*
X138508000Y-114537000D02*
X138508000Y-113229000D01*
X138508000Y-111149000D02*
X138508000Y-109841000D01*
X138468000Y-114518000D02*
X138468000Y-113229000D01*
X138468000Y-111149000D02*
X138468000Y-109860000D01*
X138428000Y-114499000D02*
X138428000Y-113229000D01*
X138428000Y-111149000D02*
X138428000Y-109879000D01*
X138388000Y-114479000D02*
X138388000Y-113229000D01*
X138388000Y-111149000D02*
X138388000Y-109899000D01*
X138348000Y-114457000D02*
X138348000Y-113229000D01*
X138348000Y-111149000D02*
X138348000Y-109921000D01*
X138308000Y-114436000D02*
X138308000Y-113229000D01*
X138308000Y-111149000D02*
X138308000Y-109942000D01*
X138268000Y-114413000D02*
X138268000Y-113229000D01*
X138268000Y-111149000D02*
X138268000Y-109965000D01*
X138228000Y-114389000D02*
X138228000Y-113229000D01*
X138228000Y-111149000D02*
X138228000Y-109989000D01*
X138188000Y-114364000D02*
X138188000Y-113229000D01*
X138188000Y-111149000D02*
X138188000Y-110014000D01*
X138148000Y-114338000D02*
X138148000Y-113229000D01*
X138148000Y-111149000D02*
X138148000Y-110040000D01*
X138108000Y-114311000D02*
X138108000Y-113229000D01*
X138108000Y-111149000D02*
X138108000Y-110067000D01*
X138068000Y-114284000D02*
X138068000Y-113229000D01*
X138068000Y-111149000D02*
X138068000Y-110094000D01*
X138028000Y-114254000D02*
X138028000Y-113229000D01*
X138028000Y-111149000D02*
X138028000Y-110124000D01*
X137988000Y-114224000D02*
X137988000Y-113229000D01*
X137988000Y-111149000D02*
X137988000Y-110154000D01*
X137948000Y-114193000D02*
X137948000Y-113229000D01*
X137948000Y-111149000D02*
X137948000Y-110185000D01*
X137908000Y-114160000D02*
X137908000Y-113229000D01*
X137908000Y-111149000D02*
X137908000Y-110218000D01*
X137868000Y-114126000D02*
X137868000Y-113229000D01*
X137868000Y-111149000D02*
X137868000Y-110252000D01*
X137828000Y-114090000D02*
X137828000Y-113229000D01*
X137828000Y-111149000D02*
X137828000Y-110288000D01*
X137788000Y-114053000D02*
X137788000Y-113229000D01*
X137788000Y-111149000D02*
X137788000Y-110325000D01*
X137748000Y-114015000D02*
X137748000Y-113229000D01*
X137748000Y-111149000D02*
X137748000Y-110363000D01*
X137708000Y-113974000D02*
X137708000Y-113229000D01*
X137708000Y-111149000D02*
X137708000Y-110404000D01*
X137668000Y-113932000D02*
X137668000Y-113229000D01*
X137668000Y-111149000D02*
X137668000Y-110446000D01*
X137628000Y-113888000D02*
X137628000Y-113229000D01*
X137628000Y-111149000D02*
X137628000Y-110490000D01*
X137588000Y-113842000D02*
X137588000Y-113229000D01*
X137588000Y-111149000D02*
X137588000Y-110536000D01*
X137548000Y-113794000D02*
X137548000Y-110584000D01*
X137508000Y-113743000D02*
X137508000Y-110635000D01*
X137468000Y-113689000D02*
X137468000Y-110689000D01*
X137428000Y-113632000D02*
X137428000Y-110746000D01*
X137388000Y-113572000D02*
X137388000Y-110806000D01*
X137348000Y-113508000D02*
X137348000Y-110870000D01*
X137308000Y-113440000D02*
X137308000Y-110938000D01*
X137268000Y-113367000D02*
X137268000Y-111011000D01*
X137228000Y-113287000D02*
X137228000Y-111091000D01*
X137188000Y-113200000D02*
X137188000Y-111178000D01*
X137148000Y-113104000D02*
X137148000Y-111274000D01*
X137108000Y-112994000D02*
X137108000Y-111384000D01*
X137068000Y-112866000D02*
X137068000Y-111512000D01*
X137028000Y-112707000D02*
X137028000Y-111671000D01*
X136988000Y-112473000D02*
X136988000Y-111905000D01*
X142393775Y-113664000D02*
X141893775Y-113664000D01*
X142143775Y-113914000D02*
X142143775Y-113414000D01*
X145371000Y-82871260D02*
G75*
G03X147491000Y-82871259I1060000J-2119740D01*
G01*
X147766000Y-82453712D02*
X147766000Y-82903712D01*
X147991000Y-82678712D02*
X147541000Y-82678712D01*
X145506000Y-120998288D02*
X145956000Y-120998288D01*
X145731000Y-121223288D02*
X145731000Y-120773288D01*
X148126000Y-120805740D02*
G75*
G03X146006000Y-120805741I-1060000J2119740D01*
G01*
X148484335Y-89901392D02*
G75*
G03X145252000Y-89744484I-1672335J-1078608D01*
G01*
X148484335Y-92058608D02*
G75*
G02X145252000Y-92215516I-1672335J1078608D01*
G01*
X147853130Y-89900163D02*
G75*
G03X145771039Y-89900000I-1041130J-1079837D01*
G01*
X147853130Y-92059837D02*
G75*
G02X145771039Y-92060000I-1041130J1079837D01*
G01*
X145252000Y-89744000D02*
X145252000Y-89900000D01*
X145252000Y-92060000D02*
X145252000Y-92216000D01*
X145393665Y-114156608D02*
G75*
G03X148626000Y-114313516I1672335J1078608D01*
G01*
X145393665Y-111999392D02*
G75*
G02X148626000Y-111842484I1672335J-1078608D01*
G01*
X146024870Y-114157837D02*
G75*
G03X148106961Y-114158000I1041130J1079837D01*
G01*
X146024870Y-111998163D02*
G75*
G02X148106961Y-111998000I1041130J-1079837D01*
G01*
X148626000Y-114314000D02*
X148626000Y-114158000D01*
X148626000Y-111998000D02*
X148626000Y-111842000D01*
X125163000Y-96070000D02*
X134933000Y-96070000D01*
X125163000Y-101140000D02*
X134933000Y-101140000D01*
X125163000Y-96070000D02*
X125163000Y-101140000D01*
X134933000Y-96070000D02*
X134933000Y-101140000D01*
X124928000Y-69730000D02*
X135168000Y-69730000D01*
X124928000Y-74371000D02*
X135168000Y-74371000D01*
X124928000Y-69730000D02*
X124928000Y-74371000D01*
X135168000Y-69730000D02*
X135168000Y-74371000D01*
X124928000Y-71240000D02*
X135168000Y-71240000D01*
X128198000Y-69730000D02*
X128198000Y-71240000D01*
X131899000Y-69730000D02*
X131899000Y-71240000D01*
X128197000Y-134270000D02*
X128197000Y-132760000D01*
X131898000Y-134270000D02*
X131898000Y-132760000D01*
X135168000Y-132760000D02*
X124928000Y-132760000D01*
X124928000Y-134270000D02*
X124928000Y-129629000D01*
X135168000Y-134270000D02*
X135168000Y-129629000D01*
X135168000Y-129629000D02*
X124928000Y-129629000D01*
X135168000Y-134270000D02*
X124928000Y-134270000D01*
D10*
X129197904Y-123738380D02*
X129197904Y-122738380D01*
X129436000Y-122738380D01*
X129578857Y-122786000D01*
X129674095Y-122881238D01*
X129721714Y-122976476D01*
X129769333Y-123166952D01*
X129769333Y-123309809D01*
X129721714Y-123500285D01*
X129674095Y-123595523D01*
X129578857Y-123690761D01*
X129436000Y-123738380D01*
X129197904Y-123738380D01*
X130102666Y-122738380D02*
X130721714Y-122738380D01*
X130388380Y-123119333D01*
X130531238Y-123119333D01*
X130626476Y-123166952D01*
X130674095Y-123214571D01*
X130721714Y-123309809D01*
X130721714Y-123547904D01*
X130674095Y-123643142D01*
X130626476Y-123690761D01*
X130531238Y-123738380D01*
X130245523Y-123738380D01*
X130150285Y-123690761D01*
X130102666Y-123643142D01*
X129563904Y-81102880D02*
X129563904Y-80102880D01*
X129802000Y-80102880D01*
X129944857Y-80150500D01*
X130040095Y-80245738D01*
X130087714Y-80340976D01*
X130135333Y-80531452D01*
X130135333Y-80674309D01*
X130087714Y-80864785D01*
X130040095Y-80960023D01*
X129944857Y-81055261D01*
X129802000Y-81102880D01*
X129563904Y-81102880D01*
X130516285Y-80198119D02*
X130563904Y-80150500D01*
X130659142Y-80102880D01*
X130897238Y-80102880D01*
X130992476Y-80150500D01*
X131040095Y-80198119D01*
X131087714Y-80293357D01*
X131087714Y-80388595D01*
X131040095Y-80531452D01*
X130468666Y-81102880D01*
X131087714Y-81102880D01*
X86002904Y-98099880D02*
X86002904Y-97099880D01*
X86241000Y-97099880D01*
X86383857Y-97147500D01*
X86479095Y-97242738D01*
X86526714Y-97337976D01*
X86574333Y-97528452D01*
X86574333Y-97671309D01*
X86526714Y-97861785D01*
X86479095Y-97957023D01*
X86383857Y-98052261D01*
X86241000Y-98099880D01*
X86002904Y-98099880D01*
X87526714Y-98099880D02*
X86955285Y-98099880D01*
X87241000Y-98099880D02*
X87241000Y-97099880D01*
X87145761Y-97242738D01*
X87050523Y-97337976D01*
X86955285Y-97385595D01*
X122848761Y-105592880D02*
X122515428Y-105116690D01*
X122277333Y-105592880D02*
X122277333Y-104592880D01*
X122658285Y-104592880D01*
X122753523Y-104640500D01*
X122801142Y-104688119D01*
X122848761Y-104783357D01*
X122848761Y-104926214D01*
X122801142Y-105021452D01*
X122753523Y-105069071D01*
X122658285Y-105116690D01*
X122277333Y-105116690D01*
X123134476Y-104592880D02*
X123467809Y-105592880D01*
X123801142Y-104592880D01*
X124086857Y-104688119D02*
X124134476Y-104640500D01*
X124229714Y-104592880D01*
X124467809Y-104592880D01*
X124563047Y-104640500D01*
X124610666Y-104688119D01*
X124658285Y-104783357D01*
X124658285Y-104878595D01*
X124610666Y-105021452D01*
X124039238Y-105592880D01*
X124658285Y-105592880D01*
X77009666Y-91765880D02*
X77009666Y-92480166D01*
X76962047Y-92623023D01*
X76866809Y-92718261D01*
X76723952Y-92765880D01*
X76628714Y-92765880D01*
X78009666Y-92765880D02*
X77438238Y-92765880D01*
X77723952Y-92765880D02*
X77723952Y-91765880D01*
X77628714Y-91908738D01*
X77533476Y-92003976D01*
X77438238Y-92051595D01*
X146518333Y-95178880D02*
X146185000Y-94702690D01*
X145946904Y-95178880D02*
X145946904Y-94178880D01*
X146327857Y-94178880D01*
X146423095Y-94226500D01*
X146470714Y-94274119D01*
X146518333Y-94369357D01*
X146518333Y-94512214D01*
X146470714Y-94607452D01*
X146423095Y-94655071D01*
X146327857Y-94702690D01*
X145946904Y-94702690D01*
X147423095Y-94178880D02*
X146946904Y-94178880D01*
X146899285Y-94655071D01*
X146946904Y-94607452D01*
X147042142Y-94559833D01*
X147280238Y-94559833D01*
X147375476Y-94607452D01*
X147423095Y-94655071D01*
X147470714Y-94750309D01*
X147470714Y-94988404D01*
X147423095Y-95083642D01*
X147375476Y-95131261D01*
X147280238Y-95178880D01*
X147042142Y-95178880D01*
X146946904Y-95131261D01*
X146899285Y-95083642D01*
X136802833Y-98671380D02*
X136469500Y-98195190D01*
X136231404Y-98671380D02*
X136231404Y-97671380D01*
X136612357Y-97671380D01*
X136707595Y-97719000D01*
X136755214Y-97766619D01*
X136802833Y-97861857D01*
X136802833Y-98004714D01*
X136755214Y-98099952D01*
X136707595Y-98147571D01*
X136612357Y-98195190D01*
X136231404Y-98195190D01*
X137755214Y-98671380D02*
X137183785Y-98671380D01*
X137469500Y-98671380D02*
X137469500Y-97671380D01*
X137374261Y-97814238D01*
X137279023Y-97909476D01*
X137183785Y-97957095D01*
X136675833Y-105402380D02*
X136342500Y-104926190D01*
X136104404Y-105402380D02*
X136104404Y-104402380D01*
X136485357Y-104402380D01*
X136580595Y-104450000D01*
X136628214Y-104497619D01*
X136675833Y-104592857D01*
X136675833Y-104735714D01*
X136628214Y-104830952D01*
X136580595Y-104878571D01*
X136485357Y-104926190D01*
X136104404Y-104926190D01*
X137056785Y-104497619D02*
X137104404Y-104450000D01*
X137199642Y-104402380D01*
X137437738Y-104402380D01*
X137532976Y-104450000D01*
X137580595Y-104497619D01*
X137628214Y-104592857D01*
X137628214Y-104688095D01*
X137580595Y-104830952D01*
X137009166Y-105402380D01*
X137628214Y-105402380D01*
X146772333Y-104640380D02*
X146439000Y-104164190D01*
X146200904Y-104640380D02*
X146200904Y-103640380D01*
X146581857Y-103640380D01*
X146677095Y-103688000D01*
X146724714Y-103735619D01*
X146772333Y-103830857D01*
X146772333Y-103973714D01*
X146724714Y-104068952D01*
X146677095Y-104116571D01*
X146581857Y-104164190D01*
X146200904Y-104164190D01*
X147629476Y-103640380D02*
X147439000Y-103640380D01*
X147343761Y-103688000D01*
X147296142Y-103735619D01*
X147200904Y-103878476D01*
X147153285Y-104068952D01*
X147153285Y-104449904D01*
X147200904Y-104545142D01*
X147248523Y-104592761D01*
X147343761Y-104640380D01*
X147534238Y-104640380D01*
X147629476Y-104592761D01*
X147677095Y-104545142D01*
X147724714Y-104449904D01*
X147724714Y-104211809D01*
X147677095Y-104116571D01*
X147629476Y-104068952D01*
X147534238Y-104021333D01*
X147343761Y-104021333D01*
X147248523Y-104068952D01*
X147200904Y-104116571D01*
X147153285Y-104211809D01*
X138644333Y-81208880D02*
X138311000Y-80732690D01*
X138072904Y-81208880D02*
X138072904Y-80208880D01*
X138453857Y-80208880D01*
X138549095Y-80256500D01*
X138596714Y-80304119D01*
X138644333Y-80399357D01*
X138644333Y-80542214D01*
X138596714Y-80637452D01*
X138549095Y-80685071D01*
X138453857Y-80732690D01*
X138072904Y-80732690D01*
X138977666Y-80208880D02*
X139596714Y-80208880D01*
X139263380Y-80589833D01*
X139406238Y-80589833D01*
X139501476Y-80637452D01*
X139549095Y-80685071D01*
X139596714Y-80780309D01*
X139596714Y-81018404D01*
X139549095Y-81113642D01*
X139501476Y-81161261D01*
X139406238Y-81208880D01*
X139120523Y-81208880D01*
X139025285Y-81161261D01*
X138977666Y-81113642D01*
X136813333Y-119118380D02*
X136480000Y-118642190D01*
X136241904Y-119118380D02*
X136241904Y-118118380D01*
X136622857Y-118118380D01*
X136718095Y-118166000D01*
X136765714Y-118213619D01*
X136813333Y-118308857D01*
X136813333Y-118451714D01*
X136765714Y-118546952D01*
X136718095Y-118594571D01*
X136622857Y-118642190D01*
X136241904Y-118642190D01*
X137670476Y-118451714D02*
X137670476Y-119118380D01*
X137432380Y-118070761D02*
X137194285Y-118785047D01*
X137813333Y-118785047D01*
X86955333Y-79431142D02*
X86907714Y-79478761D01*
X86764857Y-79526380D01*
X86669619Y-79526380D01*
X86526761Y-79478761D01*
X86431523Y-79383523D01*
X86383904Y-79288285D01*
X86336285Y-79097809D01*
X86336285Y-78954952D01*
X86383904Y-78764476D01*
X86431523Y-78669238D01*
X86526761Y-78574000D01*
X86669619Y-78526380D01*
X86764857Y-78526380D01*
X86907714Y-78574000D01*
X86955333Y-78621619D01*
X87907714Y-79526380D02*
X87336285Y-79526380D01*
X87622000Y-79526380D02*
X87622000Y-78526380D01*
X87526761Y-78669238D01*
X87431523Y-78764476D01*
X87336285Y-78812095D01*
X87907833Y-109085142D02*
X87860214Y-109132761D01*
X87717357Y-109180380D01*
X87622119Y-109180380D01*
X87479261Y-109132761D01*
X87384023Y-109037523D01*
X87336404Y-108942285D01*
X87288785Y-108751809D01*
X87288785Y-108608952D01*
X87336404Y-108418476D01*
X87384023Y-108323238D01*
X87479261Y-108228000D01*
X87622119Y-108180380D01*
X87717357Y-108180380D01*
X87860214Y-108228000D01*
X87907833Y-108275619D01*
X88288785Y-108275619D02*
X88336404Y-108228000D01*
X88431642Y-108180380D01*
X88669738Y-108180380D01*
X88764976Y-108228000D01*
X88812595Y-108275619D01*
X88860214Y-108370857D01*
X88860214Y-108466095D01*
X88812595Y-108608952D01*
X88241166Y-109180380D01*
X88860214Y-109180380D01*
X105751333Y-79431142D02*
X105703714Y-79478761D01*
X105560857Y-79526380D01*
X105465619Y-79526380D01*
X105322761Y-79478761D01*
X105227523Y-79383523D01*
X105179904Y-79288285D01*
X105132285Y-79097809D01*
X105132285Y-78954952D01*
X105179904Y-78764476D01*
X105227523Y-78669238D01*
X105322761Y-78574000D01*
X105465619Y-78526380D01*
X105560857Y-78526380D01*
X105703714Y-78574000D01*
X105751333Y-78621619D01*
X106084666Y-78526380D02*
X106703714Y-78526380D01*
X106370380Y-78907333D01*
X106513238Y-78907333D01*
X106608476Y-78954952D01*
X106656095Y-79002571D01*
X106703714Y-79097809D01*
X106703714Y-79335904D01*
X106656095Y-79431142D01*
X106608476Y-79478761D01*
X106513238Y-79526380D01*
X106227523Y-79526380D01*
X106132285Y-79478761D01*
X106084666Y-79431142D01*
X107529333Y-109148642D02*
X107481714Y-109196261D01*
X107338857Y-109243880D01*
X107243619Y-109243880D01*
X107100761Y-109196261D01*
X107005523Y-109101023D01*
X106957904Y-109005785D01*
X106910285Y-108815309D01*
X106910285Y-108672452D01*
X106957904Y-108481976D01*
X107005523Y-108386738D01*
X107100761Y-108291500D01*
X107243619Y-108243880D01*
X107338857Y-108243880D01*
X107481714Y-108291500D01*
X107529333Y-108339119D01*
X108386476Y-108577214D02*
X108386476Y-109243880D01*
X108148380Y-108196261D02*
X107910285Y-108910547D01*
X108529333Y-108910547D01*
X125372833Y-93813642D02*
X125325214Y-93861261D01*
X125182357Y-93908880D01*
X125087119Y-93908880D01*
X124944261Y-93861261D01*
X124849023Y-93766023D01*
X124801404Y-93670785D01*
X124753785Y-93480309D01*
X124753785Y-93337452D01*
X124801404Y-93146976D01*
X124849023Y-93051738D01*
X124944261Y-92956500D01*
X125087119Y-92908880D01*
X125182357Y-92908880D01*
X125325214Y-92956500D01*
X125372833Y-93004119D01*
X126277595Y-92908880D02*
X125801404Y-92908880D01*
X125753785Y-93385071D01*
X125801404Y-93337452D01*
X125896642Y-93289833D01*
X126134738Y-93289833D01*
X126229976Y-93337452D01*
X126277595Y-93385071D01*
X126325214Y-93480309D01*
X126325214Y-93718404D01*
X126277595Y-93813642D01*
X126229976Y-93861261D01*
X126134738Y-93908880D01*
X125896642Y-93908880D01*
X125801404Y-93861261D01*
X125753785Y-93813642D01*
X125182333Y-111403142D02*
X125134714Y-111450761D01*
X124991857Y-111498380D01*
X124896619Y-111498380D01*
X124753761Y-111450761D01*
X124658523Y-111355523D01*
X124610904Y-111260285D01*
X124563285Y-111069809D01*
X124563285Y-110926952D01*
X124610904Y-110736476D01*
X124658523Y-110641238D01*
X124753761Y-110546000D01*
X124896619Y-110498380D01*
X124991857Y-110498380D01*
X125134714Y-110546000D01*
X125182333Y-110593619D01*
X126039476Y-110498380D02*
X125849000Y-110498380D01*
X125753761Y-110546000D01*
X125706142Y-110593619D01*
X125610904Y-110736476D01*
X125563285Y-110926952D01*
X125563285Y-111307904D01*
X125610904Y-111403142D01*
X125658523Y-111450761D01*
X125753761Y-111498380D01*
X125944238Y-111498380D01*
X126039476Y-111450761D01*
X126087095Y-111403142D01*
X126134714Y-111307904D01*
X126134714Y-111069809D01*
X126087095Y-110974571D01*
X126039476Y-110926952D01*
X125944238Y-110879333D01*
X125753761Y-110879333D01*
X125658523Y-110926952D01*
X125610904Y-110974571D01*
X125563285Y-111069809D01*
X137882333Y-89305142D02*
X137834714Y-89352761D01*
X137691857Y-89400380D01*
X137596619Y-89400380D01*
X137453761Y-89352761D01*
X137358523Y-89257523D01*
X137310904Y-89162285D01*
X137263285Y-88971809D01*
X137263285Y-88828952D01*
X137310904Y-88638476D01*
X137358523Y-88543238D01*
X137453761Y-88448000D01*
X137596619Y-88400380D01*
X137691857Y-88400380D01*
X137834714Y-88448000D01*
X137882333Y-88495619D01*
X138215666Y-88400380D02*
X138882333Y-88400380D01*
X138453761Y-89400380D01*
X136358333Y-110260142D02*
X136310714Y-110307761D01*
X136167857Y-110355380D01*
X136072619Y-110355380D01*
X135929761Y-110307761D01*
X135834523Y-110212523D01*
X135786904Y-110117285D01*
X135739285Y-109926809D01*
X135739285Y-109783952D01*
X135786904Y-109593476D01*
X135834523Y-109498238D01*
X135929761Y-109403000D01*
X136072619Y-109355380D01*
X136167857Y-109355380D01*
X136310714Y-109403000D01*
X136358333Y-109450619D01*
X136929761Y-109783952D02*
X136834523Y-109736333D01*
X136786904Y-109688714D01*
X136739285Y-109593476D01*
X136739285Y-109545857D01*
X136786904Y-109450619D01*
X136834523Y-109403000D01*
X136929761Y-109355380D01*
X137120238Y-109355380D01*
X137215476Y-109403000D01*
X137263095Y-109450619D01*
X137310714Y-109545857D01*
X137310714Y-109593476D01*
X137263095Y-109688714D01*
X137215476Y-109736333D01*
X137120238Y-109783952D01*
X136929761Y-109783952D01*
X136834523Y-109831571D01*
X136786904Y-109879190D01*
X136739285Y-109974428D01*
X136739285Y-110164904D01*
X136786904Y-110260142D01*
X136834523Y-110307761D01*
X136929761Y-110355380D01*
X137120238Y-110355380D01*
X137215476Y-110307761D01*
X137263095Y-110260142D01*
X137310714Y-110164904D01*
X137310714Y-109974428D01*
X137263095Y-109879190D01*
X137215476Y-109831571D01*
X137120238Y-109783952D01*
X144359333Y-82256642D02*
X144311714Y-82304261D01*
X144168857Y-82351880D01*
X144073619Y-82351880D01*
X143930761Y-82304261D01*
X143835523Y-82209023D01*
X143787904Y-82113785D01*
X143740285Y-81923309D01*
X143740285Y-81780452D01*
X143787904Y-81589976D01*
X143835523Y-81494738D01*
X143930761Y-81399500D01*
X144073619Y-81351880D01*
X144168857Y-81351880D01*
X144311714Y-81399500D01*
X144359333Y-81447119D01*
X144835523Y-82351880D02*
X145026000Y-82351880D01*
X145121238Y-82304261D01*
X145168857Y-82256642D01*
X145264095Y-82113785D01*
X145311714Y-81923309D01*
X145311714Y-81542357D01*
X145264095Y-81447119D01*
X145216476Y-81399500D01*
X145121238Y-81351880D01*
X144930761Y-81351880D01*
X144835523Y-81399500D01*
X144787904Y-81447119D01*
X144740285Y-81542357D01*
X144740285Y-81780452D01*
X144787904Y-81875690D01*
X144835523Y-81923309D01*
X144930761Y-81970928D01*
X145121238Y-81970928D01*
X145216476Y-81923309D01*
X145264095Y-81875690D01*
X145311714Y-81780452D01*
X143121142Y-117054642D02*
X143073523Y-117102261D01*
X142930666Y-117149880D01*
X142835428Y-117149880D01*
X142692571Y-117102261D01*
X142597333Y-117007023D01*
X142549714Y-116911785D01*
X142502095Y-116721309D01*
X142502095Y-116578452D01*
X142549714Y-116387976D01*
X142597333Y-116292738D01*
X142692571Y-116197500D01*
X142835428Y-116149880D01*
X142930666Y-116149880D01*
X143073523Y-116197500D01*
X143121142Y-116245119D01*
X144073523Y-117149880D02*
X143502095Y-117149880D01*
X143787809Y-117149880D02*
X143787809Y-116149880D01*
X143692571Y-116292738D01*
X143597333Y-116387976D01*
X143502095Y-116435595D01*
X144692571Y-116149880D02*
X144787809Y-116149880D01*
X144883047Y-116197500D01*
X144930666Y-116245119D01*
X144978285Y-116340357D01*
X145025904Y-116530833D01*
X145025904Y-116768928D01*
X144978285Y-116959404D01*
X144930666Y-117054642D01*
X144883047Y-117102261D01*
X144787809Y-117149880D01*
X144692571Y-117149880D01*
X144597333Y-117102261D01*
X144549714Y-117054642D01*
X144502095Y-116959404D01*
X144454476Y-116768928D01*
X144454476Y-116530833D01*
X144502095Y-116340357D01*
X144549714Y-116245119D01*
X144597333Y-116197500D01*
X144692571Y-116149880D01*
X144486404Y-88574880D02*
X144486404Y-87574880D01*
X144724500Y-87574880D01*
X144867357Y-87622500D01*
X144962595Y-87717738D01*
X145010214Y-87812976D01*
X145057833Y-88003452D01*
X145057833Y-88146309D01*
X145010214Y-88336785D01*
X144962595Y-88432023D01*
X144867357Y-88527261D01*
X144724500Y-88574880D01*
X144486404Y-88574880D01*
X145914976Y-87908214D02*
X145914976Y-88574880D01*
X145676880Y-87527261D02*
X145438785Y-88241547D01*
X146057833Y-88241547D01*
X146137404Y-110609380D02*
X146137404Y-109609380D01*
X146375500Y-109609380D01*
X146518357Y-109657000D01*
X146613595Y-109752238D01*
X146661214Y-109847476D01*
X146708833Y-110037952D01*
X146708833Y-110180809D01*
X146661214Y-110371285D01*
X146613595Y-110466523D01*
X146518357Y-110561761D01*
X146375500Y-110609380D01*
X146137404Y-110609380D01*
X147613595Y-109609380D02*
X147137404Y-109609380D01*
X147089785Y-110085571D01*
X147137404Y-110037952D01*
X147232642Y-109990333D01*
X147470738Y-109990333D01*
X147565976Y-110037952D01*
X147613595Y-110085571D01*
X147661214Y-110180809D01*
X147661214Y-110418904D01*
X147613595Y-110514142D01*
X147565976Y-110561761D01*
X147470738Y-110609380D01*
X147232642Y-110609380D01*
X147137404Y-110561761D01*
X147089785Y-110514142D01*
X122975761Y-98861880D02*
X122642428Y-98385690D01*
X122404333Y-98861880D02*
X122404333Y-97861880D01*
X122785285Y-97861880D01*
X122880523Y-97909500D01*
X122928142Y-97957119D01*
X122975761Y-98052357D01*
X122975761Y-98195214D01*
X122928142Y-98290452D01*
X122880523Y-98338071D01*
X122785285Y-98385690D01*
X122404333Y-98385690D01*
X123261476Y-97861880D02*
X123594809Y-98861880D01*
X123928142Y-97861880D01*
X124785285Y-98861880D02*
X124213857Y-98861880D01*
X124499571Y-98861880D02*
X124499571Y-97861880D01*
X124404333Y-98004738D01*
X124309095Y-98099976D01*
X124213857Y-98147595D01*
X122682095Y-71944380D02*
X122682095Y-72753904D01*
X122729714Y-72849142D01*
X122777333Y-72896761D01*
X122872571Y-72944380D01*
X123063047Y-72944380D01*
X123158285Y-72896761D01*
X123205904Y-72849142D01*
X123253523Y-72753904D01*
X123253523Y-71944380D01*
X124253523Y-72944380D02*
X123682095Y-72944380D01*
X123967809Y-72944380D02*
X123967809Y-71944380D01*
X123872571Y-72087238D01*
X123777333Y-72182476D01*
X123682095Y-72230095D01*
X122428095Y-131722380D02*
X122428095Y-132531904D01*
X122475714Y-132627142D01*
X122523333Y-132674761D01*
X122618571Y-132722380D01*
X122809047Y-132722380D01*
X122904285Y-132674761D01*
X122951904Y-132627142D01*
X122999523Y-132531904D01*
X122999523Y-131722380D01*
X123428095Y-131817619D02*
X123475714Y-131770000D01*
X123570952Y-131722380D01*
X123809047Y-131722380D01*
X123904285Y-131770000D01*
X123951904Y-131817619D01*
X123999523Y-131912857D01*
X123999523Y-132008095D01*
X123951904Y-132150952D01*
X123380476Y-132722380D01*
X123999523Y-132722380D01*
M02*
