M48
; DRILL file {KiCad (5.1.4-0-10_14)} date Tuesday, 27 August 2019 at 23:22:32
; FORMAT={-:-/ absolute / inch / decimal}
; #@! TF.CreationDate,2019-08-27T23:22:32+02:00
; #@! TF.GenerationSoftware,Kicad,Pcbnew,(5.1.4-0-10_14)
; #@! TF.FileFunction,Plated,1,2,PTH
FMAT,2
INCH
T1C0.0150
T2C0.0315
T3C0.0354
T4C0.0433
T5C0.0472
T6C0.0551
T7C0.0571
%
G90
G05
T1
X3.7205Y-5.1969
X3.7244Y-2.8071
X4.4961Y-5.1969
X4.5Y-2.8071
X5.7087Y-5.1969
X5.7126Y-2.8071
X6.2874Y-5.1969
X6.2913Y-2.8071
T2
X5.46Y-3.6219
X5.5387Y-3.6219
X5.02Y-4.3719
X5.2169Y-4.3719
X5.5Y-4.1119
X5.5Y-4.2119
X5.715Y-3.8269
X5.815Y-3.8269
X5.5Y-4.6219
X5.5Y-4.7219
X5.02Y-3.8819
X5.12Y-3.8819
X5.22Y-3.8819
X5.79Y-4.6235
X5.79Y-4.7219
X5.75Y-4.2019
X5.85Y-4.2019
X5.765Y-3.2969
X5.765Y-3.3953
X5.5Y-3.8519
X5.03Y-3.6794
X5.2269Y-3.6794
X5.4563Y-4.4169
X5.535Y-4.4169
X5.02Y-4.1519
X5.5Y-3.9519
X5.5Y-3.2819
X5.5Y-3.3819
X5.12Y-4.1519
X5.22Y-4.1519
T3
X5.73Y-3.5819
X5.83Y-3.5819
X5.74Y-4.4519
X5.84Y-4.4519
T4
X5.02Y-2.874
X5.12Y-2.874
X5.22Y-2.874
X4.9756Y-4.7638
X5.2756Y-4.7638
X5.02Y-5.1575
X5.12Y-5.1575
X5.22Y-5.1575
X3.16Y-3.6919
X3.16Y-3.8919
X3.16Y-4.0919
X3.16Y-4.2919
X4.98Y-3.2677
X5.28Y-3.2677
T5
X4.5Y-4.4506
X4.5Y-4.7459
X3.74Y-3.2631
X3.74Y-3.5584
X3.74Y-4.4506
X3.74Y-4.7459
X4.5Y-3.2631
X4.5Y-3.5584
T6
X3.47Y-3.9719
X3.67Y-3.9719
X3.87Y-3.9719
X4.07Y-3.9719
T7
X6.14Y-3.8744
X6.34Y-3.8744
X6.14Y-4.4394
X6.34Y-4.4394
X6.5425Y-4.1519
X6.7425Y-4.1519
X6.74Y-3.5794
X6.14Y-3.5794
X6.34Y-3.5794
X6.54Y-3.5794
X6.54Y-3.8744
X6.74Y-3.8744
X6.54Y-4.4394
X6.74Y-4.4394
X6.1425Y-4.1519
X6.3425Y-4.1519
T0
M30
