G04 #@! TF.GenerationSoftware,KiCad,Pcbnew,(5.1.4-0-10_14)*
G04 #@! TF.CreationDate,2019-08-27T23:22:26+02:00*
G04 #@! TF.ProjectId,PSU-Matti-v02,5053552d-4d61-4747-9469-2d7630322e6b,v01*
G04 #@! TF.SameCoordinates,Original*
G04 #@! TF.FileFunction,Soldermask,Bot*
G04 #@! TF.FilePolarity,Negative*
%FSLAX46Y46*%
G04 Gerber Fmt 4.6, Leading zero omitted, Abs format (unit mm)*
G04 Created by KiCad (PCBNEW (5.1.4-0-10_14)) date 2019-08-27 23:22:26*
%MOMM*%
%LPD*%
G04 APERTURE LIST*
%ADD10C,0.100000*%
G04 APERTURE END LIST*
D10*
G36*
X127704681Y-129963717D02*
G01*
X127893804Y-130021087D01*
X127893806Y-130021088D01*
X128068099Y-130114250D01*
X128068101Y-130114251D01*
X128068100Y-130114251D01*
X128220873Y-130239627D01*
X128346249Y-130392400D01*
X128439413Y-130566697D01*
X128496783Y-130755820D01*
X128511300Y-130903217D01*
X128511300Y-131096784D01*
X128496783Y-131244181D01*
X128439413Y-131433303D01*
X128439412Y-131433306D01*
X128346250Y-131607599D01*
X128220873Y-131760373D01*
X128068099Y-131885750D01*
X127893805Y-131978912D01*
X127893803Y-131978913D01*
X127704680Y-132036283D01*
X127508000Y-132055654D01*
X127311319Y-132036283D01*
X127122196Y-131978913D01*
X127122194Y-131978912D01*
X126947901Y-131885750D01*
X126795127Y-131760373D01*
X126669750Y-131607599D01*
X126576588Y-131433305D01*
X126576587Y-131433303D01*
X126519217Y-131244180D01*
X126504700Y-131096783D01*
X126504700Y-130903216D01*
X126519217Y-130755819D01*
X126576587Y-130566696D01*
X126669751Y-130392400D01*
X126795127Y-130239627D01*
X126947900Y-130114251D01*
X127122197Y-130021087D01*
X127311320Y-129963717D01*
X127508000Y-129944346D01*
X127704681Y-129963717D01*
X127704681Y-129963717D01*
G37*
G36*
X130244681Y-129963717D02*
G01*
X130433804Y-130021087D01*
X130433806Y-130021088D01*
X130608099Y-130114250D01*
X130608101Y-130114251D01*
X130608100Y-130114251D01*
X130760873Y-130239627D01*
X130886249Y-130392400D01*
X130979413Y-130566697D01*
X131036783Y-130755820D01*
X131051300Y-130903217D01*
X131051300Y-131096784D01*
X131036783Y-131244181D01*
X130979413Y-131433303D01*
X130979412Y-131433306D01*
X130886250Y-131607599D01*
X130760873Y-131760373D01*
X130608099Y-131885750D01*
X130433805Y-131978912D01*
X130433803Y-131978913D01*
X130244680Y-132036283D01*
X130048000Y-132055654D01*
X129851319Y-132036283D01*
X129662196Y-131978913D01*
X129662194Y-131978912D01*
X129487901Y-131885750D01*
X129335127Y-131760373D01*
X129209750Y-131607599D01*
X129116588Y-131433305D01*
X129116587Y-131433303D01*
X129059217Y-131244180D01*
X129044700Y-131096783D01*
X129044700Y-130903216D01*
X129059217Y-130755819D01*
X129116587Y-130566696D01*
X129209751Y-130392400D01*
X129335127Y-130239627D01*
X129487900Y-130114251D01*
X129662197Y-130021087D01*
X129851320Y-129963717D01*
X130048000Y-129944346D01*
X130244681Y-129963717D01*
X130244681Y-129963717D01*
G37*
G36*
X133591300Y-132050800D02*
G01*
X131584700Y-132050800D01*
X131584700Y-129949200D01*
X133591300Y-129949200D01*
X133591300Y-132050800D01*
X133591300Y-132050800D01*
G37*
G36*
X169686900Y-126370346D02*
G01*
X169899521Y-126412639D01*
X170199947Y-126537080D01*
X170470324Y-126717740D01*
X170700260Y-126947676D01*
X170880920Y-127218053D01*
X171005361Y-127518479D01*
X171068800Y-127837410D01*
X171068800Y-128162590D01*
X171005361Y-128481521D01*
X170880920Y-128781947D01*
X170700260Y-129052324D01*
X170470324Y-129282260D01*
X170199947Y-129462920D01*
X169899521Y-129587361D01*
X169686900Y-129629654D01*
X169580591Y-129650800D01*
X169255409Y-129650800D01*
X169149100Y-129629654D01*
X168936479Y-129587361D01*
X168636053Y-129462920D01*
X168365676Y-129282260D01*
X168135740Y-129052324D01*
X167955080Y-128781947D01*
X167830639Y-128481521D01*
X167767200Y-128162590D01*
X167767200Y-127837410D01*
X167830639Y-127518479D01*
X167955080Y-127218053D01*
X168135740Y-126947676D01*
X168365676Y-126717740D01*
X168636053Y-126537080D01*
X168936479Y-126412639D01*
X169149100Y-126370346D01*
X169255409Y-126349200D01*
X169580591Y-126349200D01*
X169686900Y-126370346D01*
X169686900Y-126370346D01*
G37*
G36*
X81268900Y-126370346D02*
G01*
X81481521Y-126412639D01*
X81781947Y-126537080D01*
X82052324Y-126717740D01*
X82282260Y-126947676D01*
X82462920Y-127218053D01*
X82587361Y-127518479D01*
X82650800Y-127837410D01*
X82650800Y-128162590D01*
X82587361Y-128481521D01*
X82462920Y-128781947D01*
X82282260Y-129052324D01*
X82052324Y-129282260D01*
X81781947Y-129462920D01*
X81481521Y-129587361D01*
X81268900Y-129629654D01*
X81162591Y-129650800D01*
X80837409Y-129650800D01*
X80731100Y-129629654D01*
X80518479Y-129587361D01*
X80218053Y-129462920D01*
X79947676Y-129282260D01*
X79717740Y-129052324D01*
X79537080Y-128781947D01*
X79412639Y-128481521D01*
X79349200Y-128162590D01*
X79349200Y-127837410D01*
X79412639Y-127518479D01*
X79537080Y-127218053D01*
X79717740Y-126947676D01*
X79947676Y-126717740D01*
X80218053Y-126537080D01*
X80518479Y-126412639D01*
X80731100Y-126370346D01*
X80837409Y-126349200D01*
X81162591Y-126349200D01*
X81268900Y-126370346D01*
X81268900Y-126370346D01*
G37*
G36*
X135150800Y-122150800D02*
G01*
X132849200Y-122150800D01*
X132849200Y-119849200D01*
X135150800Y-119849200D01*
X135150800Y-122150800D01*
X135150800Y-122150800D01*
G37*
G36*
X126492888Y-119854750D02*
G01*
X126605596Y-119865851D01*
X126822523Y-119931655D01*
X126822525Y-119931656D01*
X127022439Y-120038512D01*
X127022440Y-120038513D01*
X127022444Y-120038515D01*
X127197676Y-120182324D01*
X127341485Y-120357556D01*
X127341487Y-120357560D01*
X127341488Y-120357561D01*
X127406052Y-120478352D01*
X127448345Y-120557477D01*
X127514149Y-120774404D01*
X127536368Y-121000000D01*
X127514149Y-121225596D01*
X127448345Y-121442523D01*
X127341485Y-121642444D01*
X127197676Y-121817676D01*
X127022444Y-121961485D01*
X127022440Y-121961487D01*
X127022439Y-121961488D01*
X126822525Y-122068344D01*
X126822523Y-122068345D01*
X126605596Y-122134149D01*
X126492888Y-122145250D01*
X126436535Y-122150800D01*
X126323465Y-122150800D01*
X126267112Y-122145250D01*
X126154404Y-122134149D01*
X125937477Y-122068345D01*
X125937475Y-122068344D01*
X125737561Y-121961488D01*
X125737560Y-121961487D01*
X125737556Y-121961485D01*
X125562324Y-121817676D01*
X125418515Y-121642444D01*
X125311655Y-121442523D01*
X125245851Y-121225596D01*
X125223632Y-121000000D01*
X125245851Y-120774404D01*
X125311655Y-120557477D01*
X125353948Y-120478352D01*
X125418512Y-120357561D01*
X125418513Y-120357560D01*
X125418515Y-120357556D01*
X125562324Y-120182324D01*
X125737556Y-120038515D01*
X125737560Y-120038513D01*
X125737561Y-120038512D01*
X125937475Y-119931656D01*
X125937477Y-119931655D01*
X126154404Y-119865851D01*
X126267112Y-119854750D01*
X126323465Y-119849200D01*
X126436535Y-119849200D01*
X126492888Y-119854750D01*
X126492888Y-119854750D01*
G37*
G36*
X95360844Y-119343267D02*
G01*
X95588476Y-119437555D01*
X95588477Y-119437556D01*
X95793336Y-119574438D01*
X95967562Y-119748664D01*
X96034738Y-119849200D01*
X96104445Y-119953524D01*
X96131896Y-120019797D01*
X96198733Y-120181156D01*
X96246800Y-120422806D01*
X96246800Y-120669194D01*
X96198733Y-120910844D01*
X96161803Y-121000000D01*
X96104445Y-121138476D01*
X96104444Y-121138477D01*
X95967562Y-121343336D01*
X95793336Y-121517562D01*
X95656763Y-121608817D01*
X95588476Y-121654445D01*
X95360844Y-121748733D01*
X95119194Y-121796800D01*
X94872806Y-121796800D01*
X94631156Y-121748733D01*
X94403524Y-121654445D01*
X94335237Y-121608817D01*
X94198664Y-121517562D01*
X94024438Y-121343336D01*
X93887556Y-121138477D01*
X93887555Y-121138476D01*
X93830197Y-121000000D01*
X93793267Y-120910844D01*
X93745200Y-120669194D01*
X93745200Y-120422806D01*
X93793267Y-120181156D01*
X93860104Y-120019797D01*
X93887555Y-119953524D01*
X93957262Y-119849200D01*
X94024438Y-119748664D01*
X94198664Y-119574438D01*
X94403523Y-119437556D01*
X94403524Y-119437555D01*
X94631156Y-119343267D01*
X94872806Y-119295200D01*
X95119194Y-119295200D01*
X95360844Y-119343267D01*
X95360844Y-119343267D01*
G37*
G36*
X114664844Y-119343267D02*
G01*
X114892476Y-119437555D01*
X114892477Y-119437556D01*
X115097336Y-119574438D01*
X115271562Y-119748664D01*
X115338738Y-119849200D01*
X115408445Y-119953524D01*
X115435896Y-120019797D01*
X115502733Y-120181156D01*
X115550800Y-120422806D01*
X115550800Y-120669194D01*
X115502733Y-120910844D01*
X115465803Y-121000000D01*
X115408445Y-121138476D01*
X115408444Y-121138477D01*
X115271562Y-121343336D01*
X115097336Y-121517562D01*
X114960763Y-121608817D01*
X114892476Y-121654445D01*
X114664844Y-121748733D01*
X114423194Y-121796800D01*
X114176806Y-121796800D01*
X113935156Y-121748733D01*
X113707524Y-121654445D01*
X113639237Y-121608817D01*
X113502664Y-121517562D01*
X113328438Y-121343336D01*
X113191556Y-121138477D01*
X113191555Y-121138476D01*
X113134197Y-121000000D01*
X113097267Y-120910844D01*
X113049200Y-120669194D01*
X113049200Y-120422806D01*
X113097267Y-120181156D01*
X113164104Y-120019797D01*
X113191555Y-119953524D01*
X113261262Y-119849200D01*
X113328438Y-119748664D01*
X113502664Y-119574438D01*
X113707523Y-119437556D01*
X113707524Y-119437555D01*
X113935156Y-119343267D01*
X114176806Y-119295200D01*
X114423194Y-119295200D01*
X114664844Y-119343267D01*
X114664844Y-119343267D01*
G37*
G36*
X147916800Y-120786800D02*
G01*
X146215200Y-120786800D01*
X146215200Y-119085200D01*
X147916800Y-119085200D01*
X147916800Y-120786800D01*
X147916800Y-120786800D01*
G37*
G36*
X139948169Y-119117895D02*
G01*
X140103005Y-119182031D01*
X140242354Y-119275140D01*
X140360860Y-119393646D01*
X140453969Y-119532995D01*
X140518105Y-119687831D01*
X140550800Y-119852203D01*
X140550800Y-120019797D01*
X140518105Y-120184169D01*
X140453969Y-120339005D01*
X140360860Y-120478354D01*
X140242354Y-120596860D01*
X140103005Y-120689969D01*
X139948169Y-120754105D01*
X139783797Y-120786800D01*
X139616203Y-120786800D01*
X139451831Y-120754105D01*
X139296995Y-120689969D01*
X139157646Y-120596860D01*
X139039140Y-120478354D01*
X138946031Y-120339005D01*
X138881895Y-120184169D01*
X138849200Y-120019797D01*
X138849200Y-119852203D01*
X138881895Y-119687831D01*
X138946031Y-119532995D01*
X139039140Y-119393646D01*
X139157646Y-119275140D01*
X139296995Y-119182031D01*
X139451831Y-119117895D01*
X139616203Y-119085200D01*
X139783797Y-119085200D01*
X139948169Y-119117895D01*
X139948169Y-119117895D01*
G37*
G36*
X147314169Y-116617895D02*
G01*
X147469005Y-116682031D01*
X147608354Y-116775140D01*
X147726860Y-116893646D01*
X147819969Y-117032995D01*
X147884105Y-117187831D01*
X147916800Y-117352203D01*
X147916800Y-117519797D01*
X147884105Y-117684169D01*
X147819969Y-117839005D01*
X147726860Y-117978354D01*
X147608354Y-118096860D01*
X147469005Y-118189969D01*
X147314169Y-118254105D01*
X147149797Y-118286800D01*
X146982203Y-118286800D01*
X146817831Y-118254105D01*
X146662995Y-118189969D01*
X146523646Y-118096860D01*
X146405140Y-117978354D01*
X146312031Y-117839005D01*
X146247895Y-117684169D01*
X146215200Y-117519797D01*
X146215200Y-117352203D01*
X146247895Y-117187831D01*
X146312031Y-117032995D01*
X146405140Y-116893646D01*
X146523646Y-116775140D01*
X146662995Y-116682031D01*
X146817831Y-116617895D01*
X146982203Y-116585200D01*
X147149797Y-116585200D01*
X147314169Y-116617895D01*
X147314169Y-116617895D01*
G37*
G36*
X139866787Y-116557510D02*
G01*
X140027162Y-116606160D01*
X140174965Y-116685162D01*
X140304517Y-116791483D01*
X140410838Y-116921035D01*
X140489840Y-117068838D01*
X140538490Y-117229213D01*
X140554916Y-117396000D01*
X140538490Y-117562787D01*
X140489840Y-117723162D01*
X140410838Y-117870965D01*
X140304517Y-118000517D01*
X140174965Y-118106838D01*
X140027162Y-118185840D01*
X139866787Y-118234490D01*
X139741794Y-118246800D01*
X139658206Y-118246800D01*
X139533213Y-118234490D01*
X139372838Y-118185840D01*
X139225035Y-118106838D01*
X139095483Y-118000517D01*
X138989162Y-117870965D01*
X138910160Y-117723162D01*
X138861510Y-117562787D01*
X138845084Y-117396000D01*
X138861510Y-117229213D01*
X138910160Y-117068838D01*
X138989162Y-116921035D01*
X139095483Y-116791483D01*
X139225035Y-116685162D01*
X139372838Y-116606160D01*
X139533213Y-116557510D01*
X139658206Y-116545200D01*
X139741794Y-116545200D01*
X139866787Y-116557510D01*
X139866787Y-116557510D01*
G37*
G36*
X166374920Y-110188811D02*
G01*
X166499408Y-110226574D01*
X166623894Y-110264336D01*
X166623896Y-110264337D01*
X166853346Y-110386981D01*
X167054465Y-110552035D01*
X167219519Y-110753154D01*
X167342163Y-110982604D01*
X167417689Y-111231580D01*
X167436800Y-111425619D01*
X167436800Y-114095381D01*
X167417689Y-114289420D01*
X167342163Y-114538396D01*
X167219520Y-114767845D01*
X167219518Y-114767847D01*
X167054465Y-114968965D01*
X166889411Y-115104420D01*
X166853345Y-115134019D01*
X166623895Y-115256663D01*
X166623893Y-115256664D01*
X166499407Y-115294426D01*
X166374919Y-115332189D01*
X166116000Y-115357690D01*
X165857080Y-115332189D01*
X165732592Y-115294426D01*
X165608106Y-115256664D01*
X165608104Y-115256663D01*
X165378654Y-115134019D01*
X165348073Y-115108921D01*
X165177535Y-114968965D01*
X165012482Y-114767846D01*
X164889836Y-114538393D01*
X164814312Y-114289421D01*
X164814311Y-114289419D01*
X164795200Y-114095380D01*
X164795201Y-111425619D01*
X164814312Y-111231580D01*
X164889838Y-110982604D01*
X165012482Y-110753154D01*
X165177536Y-110552035D01*
X165378655Y-110386981D01*
X165608105Y-110264337D01*
X165608107Y-110264336D01*
X165732593Y-110226574D01*
X165857081Y-110188811D01*
X166116000Y-110163310D01*
X166374920Y-110188811D01*
X166374920Y-110188811D01*
G37*
G36*
X171454920Y-110188811D02*
G01*
X171579408Y-110226574D01*
X171703894Y-110264336D01*
X171703896Y-110264337D01*
X171933346Y-110386981D01*
X172134465Y-110552035D01*
X172299519Y-110753154D01*
X172422163Y-110982604D01*
X172497689Y-111231580D01*
X172516800Y-111425619D01*
X172516800Y-114095381D01*
X172497689Y-114289420D01*
X172422163Y-114538396D01*
X172299520Y-114767845D01*
X172299518Y-114767847D01*
X172134465Y-114968965D01*
X171969411Y-115104420D01*
X171933345Y-115134019D01*
X171703895Y-115256663D01*
X171703893Y-115256664D01*
X171579407Y-115294426D01*
X171454919Y-115332189D01*
X171196000Y-115357690D01*
X170937080Y-115332189D01*
X170812592Y-115294426D01*
X170688106Y-115256664D01*
X170688104Y-115256663D01*
X170458654Y-115134019D01*
X170428073Y-115108921D01*
X170257535Y-114968965D01*
X170092482Y-114767846D01*
X169969836Y-114538393D01*
X169894312Y-114289421D01*
X169894311Y-114289419D01*
X169875200Y-114095380D01*
X169875201Y-111425619D01*
X169894312Y-111231580D01*
X169969838Y-110982604D01*
X170092482Y-110753154D01*
X170257536Y-110552035D01*
X170458655Y-110386981D01*
X170688105Y-110264337D01*
X170688107Y-110264336D01*
X170812593Y-110226574D01*
X170937081Y-110188811D01*
X171196000Y-110163310D01*
X171454920Y-110188811D01*
X171454920Y-110188811D01*
G37*
G36*
X156214920Y-110188811D02*
G01*
X156339408Y-110226574D01*
X156463894Y-110264336D01*
X156463896Y-110264337D01*
X156693346Y-110386981D01*
X156894465Y-110552035D01*
X157059519Y-110753154D01*
X157182163Y-110982604D01*
X157257689Y-111231580D01*
X157276800Y-111425619D01*
X157276800Y-114095381D01*
X157257689Y-114289420D01*
X157182163Y-114538396D01*
X157059520Y-114767845D01*
X157059518Y-114767847D01*
X156894465Y-114968965D01*
X156729411Y-115104420D01*
X156693345Y-115134019D01*
X156463895Y-115256663D01*
X156463893Y-115256664D01*
X156339407Y-115294426D01*
X156214919Y-115332189D01*
X155956000Y-115357690D01*
X155697080Y-115332189D01*
X155572592Y-115294426D01*
X155448106Y-115256664D01*
X155448104Y-115256663D01*
X155218654Y-115134019D01*
X155188073Y-115108921D01*
X155017535Y-114968965D01*
X154852482Y-114767846D01*
X154729836Y-114538393D01*
X154654312Y-114289421D01*
X154654311Y-114289419D01*
X154635200Y-114095380D01*
X154635201Y-111425619D01*
X154654312Y-111231580D01*
X154729838Y-110982604D01*
X154852482Y-110753154D01*
X155017536Y-110552035D01*
X155218655Y-110386981D01*
X155448105Y-110264337D01*
X155448107Y-110264336D01*
X155572593Y-110226574D01*
X155697081Y-110188811D01*
X155956000Y-110163310D01*
X156214920Y-110188811D01*
X156214920Y-110188811D01*
G37*
G36*
X161294920Y-110188811D02*
G01*
X161419408Y-110226574D01*
X161543894Y-110264336D01*
X161543896Y-110264337D01*
X161773346Y-110386981D01*
X161974465Y-110552035D01*
X162139519Y-110753154D01*
X162262163Y-110982604D01*
X162337689Y-111231580D01*
X162356800Y-111425619D01*
X162356800Y-114095381D01*
X162337689Y-114289420D01*
X162262163Y-114538396D01*
X162139520Y-114767845D01*
X162139518Y-114767847D01*
X161974465Y-114968965D01*
X161809411Y-115104420D01*
X161773345Y-115134019D01*
X161543895Y-115256663D01*
X161543893Y-115256664D01*
X161419407Y-115294426D01*
X161294919Y-115332189D01*
X161036000Y-115357690D01*
X160777080Y-115332189D01*
X160652592Y-115294426D01*
X160528106Y-115256664D01*
X160528104Y-115256663D01*
X160298654Y-115134019D01*
X160268073Y-115108921D01*
X160097535Y-114968965D01*
X159932482Y-114767846D01*
X159809836Y-114538393D01*
X159734312Y-114289421D01*
X159734311Y-114289419D01*
X159715200Y-114095380D01*
X159715201Y-111425619D01*
X159734312Y-111231580D01*
X159809838Y-110982604D01*
X159932482Y-110753154D01*
X160097536Y-110552035D01*
X160298655Y-110386981D01*
X160528105Y-110264337D01*
X160528107Y-110264336D01*
X160652593Y-110226574D01*
X160777081Y-110188811D01*
X161036000Y-110163310D01*
X161294920Y-110188811D01*
X161294920Y-110188811D01*
G37*
G36*
X96246800Y-114296800D02*
G01*
X93745200Y-114296800D01*
X93745200Y-111795200D01*
X96246800Y-111795200D01*
X96246800Y-114296800D01*
X96246800Y-114296800D01*
G37*
G36*
X115550800Y-114296800D02*
G01*
X113049200Y-114296800D01*
X113049200Y-111795200D01*
X115550800Y-111795200D01*
X115550800Y-114296800D01*
X115550800Y-114296800D01*
G37*
G36*
X146073338Y-112163738D02*
G01*
X146246373Y-112235412D01*
X146402100Y-112339465D01*
X146534535Y-112471900D01*
X146638588Y-112627627D01*
X146710262Y-112800662D01*
X146746800Y-112984354D01*
X146746800Y-113171646D01*
X146710262Y-113355338D01*
X146638588Y-113528373D01*
X146534535Y-113684100D01*
X146402100Y-113816535D01*
X146246373Y-113920588D01*
X146073338Y-113992262D01*
X145889646Y-114028800D01*
X145702354Y-114028800D01*
X145518662Y-113992262D01*
X145345627Y-113920588D01*
X145189900Y-113816535D01*
X145057465Y-113684100D01*
X144953412Y-113528373D01*
X144881738Y-113355338D01*
X144845200Y-113171646D01*
X144845200Y-112984354D01*
X144881738Y-112800662D01*
X144953412Y-112627627D01*
X145057465Y-112471900D01*
X145189900Y-112339465D01*
X145345627Y-112235412D01*
X145518662Y-112163738D01*
X145702354Y-112127200D01*
X145889646Y-112127200D01*
X146073338Y-112163738D01*
X146073338Y-112163738D01*
G37*
G36*
X149286800Y-114028800D02*
G01*
X147385200Y-114028800D01*
X147385200Y-112127200D01*
X149286800Y-112127200D01*
X149286800Y-114028800D01*
X149286800Y-114028800D01*
G37*
G36*
X141439800Y-113039800D02*
G01*
X139738200Y-113039800D01*
X139738200Y-111338200D01*
X141439800Y-111338200D01*
X141439800Y-113039800D01*
X141439800Y-113039800D01*
G37*
G36*
X138837169Y-111370895D02*
G01*
X138992005Y-111435031D01*
X139131354Y-111528140D01*
X139249860Y-111646646D01*
X139342969Y-111785995D01*
X139407105Y-111940831D01*
X139439800Y-112105203D01*
X139439800Y-112272797D01*
X139407105Y-112437169D01*
X139342969Y-112592005D01*
X139249860Y-112731354D01*
X139131354Y-112849860D01*
X138992005Y-112942969D01*
X138837169Y-113007105D01*
X138672797Y-113039800D01*
X138505203Y-113039800D01*
X138340831Y-113007105D01*
X138185995Y-112942969D01*
X138046646Y-112849860D01*
X137928140Y-112731354D01*
X137835031Y-112592005D01*
X137770895Y-112437169D01*
X137738200Y-112272797D01*
X137738200Y-112105203D01*
X137770895Y-111940831D01*
X137835031Y-111785995D01*
X137928140Y-111646646D01*
X138046646Y-111528140D01*
X138185995Y-111435031D01*
X138340831Y-111370895D01*
X138505203Y-111338200D01*
X138672797Y-111338200D01*
X138837169Y-111370895D01*
X138837169Y-111370895D01*
G37*
G36*
X132756169Y-110227895D02*
G01*
X132911005Y-110292031D01*
X133050354Y-110385140D01*
X133168860Y-110503646D01*
X133261969Y-110642995D01*
X133326105Y-110797831D01*
X133358800Y-110962203D01*
X133358800Y-111129797D01*
X133326105Y-111294169D01*
X133261969Y-111449005D01*
X133168860Y-111588354D01*
X133050354Y-111706860D01*
X132911005Y-111799969D01*
X132756169Y-111864105D01*
X132591797Y-111896800D01*
X132424203Y-111896800D01*
X132259831Y-111864105D01*
X132104995Y-111799969D01*
X131965646Y-111706860D01*
X131847140Y-111588354D01*
X131754031Y-111449005D01*
X131689895Y-111294169D01*
X131657200Y-111129797D01*
X131657200Y-110962203D01*
X131689895Y-110797831D01*
X131754031Y-110642995D01*
X131847140Y-110503646D01*
X131965646Y-110385140D01*
X132104995Y-110292031D01*
X132259831Y-110227895D01*
X132424203Y-110195200D01*
X132591797Y-110195200D01*
X132756169Y-110227895D01*
X132756169Y-110227895D01*
G37*
G36*
X127756169Y-110227895D02*
G01*
X127911005Y-110292031D01*
X128050354Y-110385140D01*
X128168860Y-110503646D01*
X128261969Y-110642995D01*
X128326105Y-110797831D01*
X128358800Y-110962203D01*
X128358800Y-111129797D01*
X128326105Y-111294169D01*
X128261969Y-111449005D01*
X128168860Y-111588354D01*
X128050354Y-111706860D01*
X127911005Y-111799969D01*
X127756169Y-111864105D01*
X127591797Y-111896800D01*
X127424203Y-111896800D01*
X127259831Y-111864105D01*
X127104995Y-111799969D01*
X126965646Y-111706860D01*
X126847140Y-111588354D01*
X126754031Y-111449005D01*
X126689895Y-111294169D01*
X126657200Y-111129797D01*
X126657200Y-110962203D01*
X126689895Y-110797831D01*
X126754031Y-110642995D01*
X126847140Y-110503646D01*
X126965646Y-110385140D01*
X127104995Y-110292031D01*
X127259831Y-110227895D01*
X127424203Y-110195200D01*
X127591797Y-110195200D01*
X127756169Y-110227895D01*
X127756169Y-110227895D01*
G37*
G36*
X80514200Y-107941402D02*
G01*
X80585091Y-107955503D01*
X80668071Y-107989875D01*
X80785423Y-108038483D01*
X80874959Y-108098309D01*
X80965719Y-108158953D01*
X81119047Y-108312281D01*
X81119048Y-108312283D01*
X81239517Y-108492577D01*
X81322497Y-108692910D01*
X81364800Y-108905579D01*
X81364800Y-109122421D01*
X81322497Y-109335090D01*
X81239517Y-109535423D01*
X81239516Y-109535424D01*
X81119047Y-109715719D01*
X80965719Y-109869047D01*
X80874959Y-109929691D01*
X80785423Y-109989517D01*
X80668071Y-110038125D01*
X80585091Y-110072497D01*
X80514200Y-110086598D01*
X80372421Y-110114800D01*
X80155579Y-110114800D01*
X80013800Y-110086598D01*
X79942909Y-110072497D01*
X79859929Y-110038125D01*
X79742577Y-109989517D01*
X79653041Y-109929691D01*
X79562281Y-109869047D01*
X79408953Y-109715719D01*
X79288484Y-109535424D01*
X79288483Y-109535423D01*
X79205503Y-109335090D01*
X79163200Y-109122421D01*
X79163200Y-108905579D01*
X79205503Y-108692910D01*
X79288483Y-108492577D01*
X79408952Y-108312283D01*
X79408953Y-108312281D01*
X79562281Y-108158953D01*
X79653041Y-108098309D01*
X79742577Y-108038483D01*
X79859929Y-107989875D01*
X79942909Y-107955503D01*
X80013800Y-107941402D01*
X80155579Y-107913200D01*
X80372421Y-107913200D01*
X80514200Y-107941402D01*
X80514200Y-107941402D01*
G37*
G36*
X171518420Y-102886311D02*
G01*
X171642908Y-102924074D01*
X171767394Y-102961836D01*
X171767396Y-102961837D01*
X171996846Y-103084481D01*
X172197965Y-103249535D01*
X172363019Y-103450654D01*
X172485663Y-103680104D01*
X172561189Y-103929080D01*
X172580300Y-104123119D01*
X172580300Y-106792881D01*
X172561189Y-106986920D01*
X172485663Y-107235896D01*
X172363020Y-107465345D01*
X172363018Y-107465347D01*
X172197965Y-107666465D01*
X172069564Y-107771840D01*
X171996845Y-107831519D01*
X171994448Y-107832800D01*
X171767393Y-107954164D01*
X171642907Y-107991926D01*
X171518419Y-108029689D01*
X171259500Y-108055190D01*
X171000580Y-108029689D01*
X170876092Y-107991926D01*
X170751606Y-107954164D01*
X170524551Y-107832800D01*
X170522154Y-107831519D01*
X170449434Y-107771839D01*
X170321035Y-107666465D01*
X170155982Y-107465346D01*
X170151503Y-107456966D01*
X170033337Y-107235895D01*
X169957811Y-106986919D01*
X169938700Y-106792880D01*
X169938701Y-104123119D01*
X169957812Y-103929080D01*
X170033338Y-103680104D01*
X170155982Y-103450654D01*
X170321036Y-103249535D01*
X170522155Y-103084481D01*
X170751605Y-102961837D01*
X170751607Y-102961836D01*
X170876093Y-102924074D01*
X171000581Y-102886311D01*
X171259500Y-102860810D01*
X171518420Y-102886311D01*
X171518420Y-102886311D01*
G37*
G36*
X161358420Y-102886311D02*
G01*
X161482908Y-102924074D01*
X161607394Y-102961836D01*
X161607396Y-102961837D01*
X161836846Y-103084481D01*
X162037965Y-103249535D01*
X162203019Y-103450654D01*
X162325663Y-103680104D01*
X162401189Y-103929080D01*
X162420300Y-104123119D01*
X162420300Y-106792881D01*
X162401189Y-106986920D01*
X162325663Y-107235896D01*
X162203020Y-107465345D01*
X162203018Y-107465347D01*
X162037965Y-107666465D01*
X161909564Y-107771840D01*
X161836845Y-107831519D01*
X161834448Y-107832800D01*
X161607393Y-107954164D01*
X161482907Y-107991926D01*
X161358419Y-108029689D01*
X161099500Y-108055190D01*
X160840580Y-108029689D01*
X160716092Y-107991926D01*
X160591606Y-107954164D01*
X160364551Y-107832800D01*
X160362154Y-107831519D01*
X160289434Y-107771839D01*
X160161035Y-107666465D01*
X159995982Y-107465346D01*
X159991503Y-107456966D01*
X159873337Y-107235895D01*
X159797811Y-106986919D01*
X159778700Y-106792880D01*
X159778701Y-104123119D01*
X159797812Y-103929080D01*
X159873338Y-103680104D01*
X159995982Y-103450654D01*
X160161036Y-103249535D01*
X160362155Y-103084481D01*
X160591605Y-102961837D01*
X160591607Y-102961836D01*
X160716093Y-102924074D01*
X160840581Y-102886311D01*
X161099500Y-102860810D01*
X161358420Y-102886311D01*
X161358420Y-102886311D01*
G37*
G36*
X156278420Y-102886311D02*
G01*
X156402908Y-102924074D01*
X156527394Y-102961836D01*
X156527396Y-102961837D01*
X156756846Y-103084481D01*
X156957965Y-103249535D01*
X157123019Y-103450654D01*
X157245663Y-103680104D01*
X157321189Y-103929080D01*
X157340300Y-104123119D01*
X157340300Y-106792881D01*
X157321189Y-106986920D01*
X157245663Y-107235896D01*
X157123020Y-107465345D01*
X157123018Y-107465347D01*
X156957965Y-107666465D01*
X156829564Y-107771840D01*
X156756845Y-107831519D01*
X156754448Y-107832800D01*
X156527393Y-107954164D01*
X156402907Y-107991926D01*
X156278419Y-108029689D01*
X156019500Y-108055190D01*
X155760580Y-108029689D01*
X155636092Y-107991926D01*
X155511606Y-107954164D01*
X155284551Y-107832800D01*
X155282154Y-107831519D01*
X155209434Y-107771839D01*
X155081035Y-107666465D01*
X154915982Y-107465346D01*
X154911503Y-107456966D01*
X154793337Y-107235895D01*
X154717811Y-106986919D01*
X154698700Y-106792880D01*
X154698701Y-104123119D01*
X154717812Y-103929080D01*
X154793338Y-103680104D01*
X154915982Y-103450654D01*
X155081036Y-103249535D01*
X155282155Y-103084481D01*
X155511605Y-102961837D01*
X155511607Y-102961836D01*
X155636093Y-102924074D01*
X155760581Y-102886311D01*
X156019500Y-102860810D01*
X156278420Y-102886311D01*
X156278420Y-102886311D01*
G37*
G36*
X166438420Y-102886311D02*
G01*
X166562908Y-102924074D01*
X166687394Y-102961836D01*
X166687396Y-102961837D01*
X166916846Y-103084481D01*
X167117965Y-103249535D01*
X167283019Y-103450654D01*
X167405663Y-103680104D01*
X167481189Y-103929080D01*
X167500300Y-104123119D01*
X167500300Y-106792881D01*
X167481189Y-106986920D01*
X167405663Y-107235896D01*
X167283020Y-107465345D01*
X167283018Y-107465347D01*
X167117965Y-107666465D01*
X166989564Y-107771840D01*
X166916845Y-107831519D01*
X166914448Y-107832800D01*
X166687393Y-107954164D01*
X166562907Y-107991926D01*
X166438419Y-108029689D01*
X166179500Y-108055190D01*
X165920580Y-108029689D01*
X165796092Y-107991926D01*
X165671606Y-107954164D01*
X165444551Y-107832800D01*
X165442154Y-107831519D01*
X165369434Y-107771839D01*
X165241035Y-107666465D01*
X165075982Y-107465346D01*
X165071503Y-107456966D01*
X164953337Y-107235895D01*
X164877811Y-106986919D01*
X164858700Y-106792880D01*
X164858701Y-104123119D01*
X164877812Y-103929080D01*
X164953338Y-103680104D01*
X165075982Y-103450654D01*
X165241036Y-103249535D01*
X165442155Y-103084481D01*
X165671605Y-102961837D01*
X165671607Y-102961836D01*
X165796093Y-102924074D01*
X165920581Y-102886311D01*
X166179500Y-102860810D01*
X166438420Y-102886311D01*
X166438420Y-102886311D01*
G37*
G36*
X139866787Y-106143510D02*
G01*
X140027162Y-106192160D01*
X140174965Y-106271162D01*
X140304517Y-106377483D01*
X140410838Y-106507035D01*
X140489840Y-106654838D01*
X140538490Y-106815213D01*
X140554916Y-106982000D01*
X140538490Y-107148787D01*
X140489840Y-107309162D01*
X140410838Y-107456965D01*
X140304517Y-107586517D01*
X140174965Y-107692838D01*
X140027162Y-107771840D01*
X139866787Y-107820490D01*
X139741794Y-107832800D01*
X139658206Y-107832800D01*
X139533213Y-107820490D01*
X139372838Y-107771840D01*
X139225035Y-107692838D01*
X139095483Y-107586517D01*
X138989162Y-107456965D01*
X138910160Y-107309162D01*
X138861510Y-107148787D01*
X138845084Y-106982000D01*
X138861510Y-106815213D01*
X138910160Y-106654838D01*
X138989162Y-106507035D01*
X139095483Y-106377483D01*
X139225035Y-106271162D01*
X139372838Y-106192160D01*
X139533213Y-106143510D01*
X139658206Y-106131200D01*
X139741794Y-106131200D01*
X139866787Y-106143510D01*
X139866787Y-106143510D01*
G37*
G36*
X146298169Y-105909895D02*
G01*
X146453005Y-105974031D01*
X146592354Y-106067140D01*
X146710860Y-106185646D01*
X146803969Y-106324995D01*
X146868105Y-106479831D01*
X146900800Y-106644203D01*
X146900800Y-106811797D01*
X146868105Y-106976169D01*
X146803969Y-107131005D01*
X146710860Y-107270354D01*
X146592354Y-107388860D01*
X146453005Y-107481969D01*
X146298169Y-107546105D01*
X146133797Y-107578800D01*
X145966203Y-107578800D01*
X145801831Y-107546105D01*
X145646995Y-107481969D01*
X145507646Y-107388860D01*
X145389140Y-107270354D01*
X145296031Y-107131005D01*
X145231895Y-106976169D01*
X145199200Y-106811797D01*
X145199200Y-106644203D01*
X145231895Y-106479831D01*
X145296031Y-106324995D01*
X145389140Y-106185646D01*
X145507646Y-106067140D01*
X145646995Y-105974031D01*
X145801831Y-105909895D01*
X145966203Y-105877200D01*
X146133797Y-105877200D01*
X146298169Y-105909895D01*
X146298169Y-105909895D01*
G37*
G36*
X148756787Y-105889510D02*
G01*
X148917162Y-105938160D01*
X149064965Y-106017162D01*
X149194517Y-106123483D01*
X149300838Y-106253035D01*
X149379840Y-106400838D01*
X149428490Y-106561213D01*
X149444916Y-106728000D01*
X149428490Y-106894787D01*
X149379840Y-107055162D01*
X149300838Y-107202965D01*
X149194517Y-107332517D01*
X149064965Y-107438838D01*
X148917162Y-107517840D01*
X148756787Y-107566490D01*
X148631794Y-107578800D01*
X148548206Y-107578800D01*
X148423213Y-107566490D01*
X148262838Y-107517840D01*
X148115035Y-107438838D01*
X147985483Y-107332517D01*
X147879162Y-107202965D01*
X147800160Y-107055162D01*
X147751510Y-106894787D01*
X147735084Y-106728000D01*
X147751510Y-106561213D01*
X147800160Y-106400838D01*
X147879162Y-106253035D01*
X147985483Y-106123483D01*
X148115035Y-106017162D01*
X148262838Y-105938160D01*
X148423213Y-105889510D01*
X148548206Y-105877200D01*
X148631794Y-105877200D01*
X148756787Y-105889510D01*
X148756787Y-105889510D01*
G37*
G36*
X130161146Y-104694605D02*
G01*
X130272834Y-104716821D01*
X130413111Y-104774926D01*
X130539357Y-104859280D01*
X130646720Y-104966643D01*
X130731074Y-105092889D01*
X130789179Y-105233166D01*
X130818800Y-105382083D01*
X130818800Y-105533917D01*
X130789179Y-105682834D01*
X130731074Y-105823111D01*
X130646720Y-105949357D01*
X130539357Y-106056720D01*
X130413111Y-106141074D01*
X130272834Y-106199179D01*
X130161146Y-106221395D01*
X130123918Y-106228800D01*
X129972082Y-106228800D01*
X129934854Y-106221395D01*
X129823166Y-106199179D01*
X129682889Y-106141074D01*
X129556643Y-106056720D01*
X129449280Y-105949357D01*
X129364926Y-105823111D01*
X129306821Y-105682834D01*
X129277200Y-105533917D01*
X129277200Y-105382083D01*
X129306821Y-105233166D01*
X129364926Y-105092889D01*
X129449280Y-104966643D01*
X129556643Y-104859280D01*
X129682889Y-104774926D01*
X129823166Y-104716821D01*
X129934854Y-104694605D01*
X129972082Y-104687200D01*
X130123918Y-104687200D01*
X130161146Y-104694605D01*
X130161146Y-104694605D01*
G37*
G36*
X132701146Y-104694605D02*
G01*
X132812834Y-104716821D01*
X132953111Y-104774926D01*
X133079357Y-104859280D01*
X133186720Y-104966643D01*
X133271074Y-105092889D01*
X133329179Y-105233166D01*
X133358800Y-105382083D01*
X133358800Y-105533917D01*
X133329179Y-105682834D01*
X133271074Y-105823111D01*
X133186720Y-105949357D01*
X133079357Y-106056720D01*
X132953111Y-106141074D01*
X132812834Y-106199179D01*
X132701146Y-106221395D01*
X132663918Y-106228800D01*
X132512082Y-106228800D01*
X132474854Y-106221395D01*
X132363166Y-106199179D01*
X132222889Y-106141074D01*
X132096643Y-106056720D01*
X131989280Y-105949357D01*
X131904926Y-105823111D01*
X131846821Y-105682834D01*
X131817200Y-105533917D01*
X131817200Y-105382083D01*
X131846821Y-105233166D01*
X131904926Y-105092889D01*
X131989280Y-104966643D01*
X132096643Y-104859280D01*
X132222889Y-104774926D01*
X132363166Y-104716821D01*
X132474854Y-104694605D01*
X132512082Y-104687200D01*
X132663918Y-104687200D01*
X132701146Y-104694605D01*
X132701146Y-104694605D01*
G37*
G36*
X127621146Y-104694605D02*
G01*
X127732834Y-104716821D01*
X127873111Y-104774926D01*
X127999357Y-104859280D01*
X128106720Y-104966643D01*
X128191074Y-105092889D01*
X128249179Y-105233166D01*
X128278800Y-105382083D01*
X128278800Y-105533917D01*
X128249179Y-105682834D01*
X128191074Y-105823111D01*
X128106720Y-105949357D01*
X127999357Y-106056720D01*
X127873111Y-106141074D01*
X127732834Y-106199179D01*
X127621146Y-106221395D01*
X127583918Y-106228800D01*
X127432082Y-106228800D01*
X127394854Y-106221395D01*
X127283166Y-106199179D01*
X127142889Y-106141074D01*
X127016643Y-106056720D01*
X126909280Y-105949357D01*
X126824926Y-105823111D01*
X126766821Y-105682834D01*
X126737200Y-105533917D01*
X126737200Y-105382083D01*
X126766821Y-105233166D01*
X126824926Y-105092889D01*
X126909280Y-104966643D01*
X127016643Y-104859280D01*
X127142889Y-104774926D01*
X127283166Y-104716821D01*
X127394854Y-104694605D01*
X127432082Y-104687200D01*
X127583918Y-104687200D01*
X127621146Y-104694605D01*
X127621146Y-104694605D01*
G37*
G36*
X139948169Y-103623895D02*
G01*
X140103005Y-103688031D01*
X140242354Y-103781140D01*
X140360860Y-103899646D01*
X140453969Y-104038995D01*
X140518105Y-104193831D01*
X140550800Y-104358203D01*
X140550800Y-104525797D01*
X140518105Y-104690169D01*
X140453969Y-104845005D01*
X140360860Y-104984354D01*
X140242354Y-105102860D01*
X140103005Y-105195969D01*
X139948169Y-105260105D01*
X139783797Y-105292800D01*
X139616203Y-105292800D01*
X139451831Y-105260105D01*
X139296995Y-105195969D01*
X139157646Y-105102860D01*
X139039140Y-104984354D01*
X138946031Y-104845005D01*
X138881895Y-104690169D01*
X138849200Y-104525797D01*
X138849200Y-104358203D01*
X138881895Y-104193831D01*
X138946031Y-104038995D01*
X139039140Y-103899646D01*
X139157646Y-103781140D01*
X139296995Y-103688031D01*
X139451831Y-103623895D01*
X139616203Y-103591200D01*
X139783797Y-103591200D01*
X139948169Y-103623895D01*
X139948169Y-103623895D01*
G37*
G36*
X80511224Y-102860810D02*
G01*
X80585091Y-102875503D01*
X80668071Y-102909875D01*
X80785423Y-102958483D01*
X80874959Y-103018309D01*
X80965719Y-103078953D01*
X81119047Y-103232281D01*
X81163534Y-103298861D01*
X81239517Y-103412577D01*
X81288125Y-103529929D01*
X81313505Y-103591200D01*
X81322497Y-103612910D01*
X81364800Y-103825579D01*
X81364800Y-104042421D01*
X81322497Y-104255090D01*
X81239517Y-104455423D01*
X81239516Y-104455424D01*
X81119047Y-104635719D01*
X80965719Y-104789047D01*
X80881975Y-104845003D01*
X80785423Y-104909517D01*
X80668071Y-104958125D01*
X80585091Y-104992497D01*
X80514200Y-105006598D01*
X80372421Y-105034800D01*
X80155579Y-105034800D01*
X80013800Y-105006598D01*
X79942909Y-104992497D01*
X79859929Y-104958125D01*
X79742577Y-104909517D01*
X79646025Y-104845003D01*
X79562281Y-104789047D01*
X79408953Y-104635719D01*
X79288484Y-104455424D01*
X79288483Y-104455423D01*
X79205503Y-104255090D01*
X79163200Y-104042421D01*
X79163200Y-103825579D01*
X79205503Y-103612910D01*
X79214496Y-103591200D01*
X79239875Y-103529929D01*
X79288483Y-103412577D01*
X79364466Y-103298861D01*
X79408953Y-103232281D01*
X79562281Y-103078953D01*
X79653041Y-103018309D01*
X79742577Y-102958483D01*
X79859929Y-102909875D01*
X79942909Y-102875503D01*
X80016776Y-102860810D01*
X80155579Y-102833200D01*
X80372421Y-102833200D01*
X80511224Y-102860810D01*
X80511224Y-102860810D01*
G37*
G36*
X119966400Y-100081846D02*
G01*
X120179021Y-100124139D01*
X120479447Y-100248580D01*
X120749824Y-100429240D01*
X120979760Y-100659176D01*
X121160420Y-100929553D01*
X121284861Y-101229979D01*
X121348300Y-101548910D01*
X121348300Y-101874090D01*
X121284861Y-102193021D01*
X121160420Y-102493447D01*
X120979760Y-102763824D01*
X120749824Y-102993760D01*
X120479447Y-103174420D01*
X120179021Y-103298861D01*
X119966400Y-103341154D01*
X119860091Y-103362300D01*
X119534909Y-103362300D01*
X119428600Y-103341154D01*
X119215979Y-103298861D01*
X118915553Y-103174420D01*
X118645176Y-102993760D01*
X118415240Y-102763824D01*
X118234580Y-102493447D01*
X118110139Y-102193021D01*
X118046700Y-101874090D01*
X118046700Y-101548910D01*
X118110139Y-101229979D01*
X118234580Y-100929553D01*
X118415240Y-100659176D01*
X118645176Y-100429240D01*
X118915553Y-100248580D01*
X119215979Y-100124139D01*
X119428600Y-100081846D01*
X119534909Y-100060700D01*
X119860091Y-100060700D01*
X119966400Y-100081846D01*
X119966400Y-100081846D01*
G37*
G36*
X98627752Y-99472369D02*
G01*
X98721183Y-99490953D01*
X98985212Y-99600318D01*
X99222831Y-99759090D01*
X99424910Y-99961169D01*
X99583682Y-100198788D01*
X99693047Y-100462817D01*
X99748800Y-100743109D01*
X99748800Y-101028891D01*
X99693047Y-101309183D01*
X99583682Y-101573212D01*
X99424910Y-101810831D01*
X99222831Y-102012910D01*
X98985212Y-102171682D01*
X98985211Y-102171683D01*
X98985210Y-102171683D01*
X98907880Y-102203714D01*
X98721183Y-102281047D01*
X98627752Y-102299631D01*
X98440893Y-102336800D01*
X98155107Y-102336800D01*
X97968248Y-102299631D01*
X97874817Y-102281047D01*
X97688120Y-102203714D01*
X97610790Y-102171683D01*
X97610789Y-102171683D01*
X97610788Y-102171682D01*
X97373169Y-102012910D01*
X97171090Y-101810831D01*
X97012318Y-101573212D01*
X96902953Y-101309183D01*
X96847200Y-101028891D01*
X96847200Y-100743109D01*
X96902953Y-100462817D01*
X97012318Y-100198788D01*
X97171090Y-99961169D01*
X97373169Y-99759090D01*
X97610788Y-99600318D01*
X97874817Y-99490953D01*
X97968248Y-99472369D01*
X98155107Y-99435200D01*
X98440893Y-99435200D01*
X98627752Y-99472369D01*
X98627752Y-99472369D01*
G37*
G36*
X104828800Y-102336800D02*
G01*
X101927200Y-102336800D01*
X101927200Y-99435200D01*
X104828800Y-99435200D01*
X104828800Y-102336800D01*
X104828800Y-102336800D01*
G37*
G36*
X93547752Y-99472369D02*
G01*
X93641183Y-99490953D01*
X93905212Y-99600318D01*
X94142831Y-99759090D01*
X94344910Y-99961169D01*
X94503682Y-100198788D01*
X94613047Y-100462817D01*
X94668800Y-100743109D01*
X94668800Y-101028891D01*
X94613047Y-101309183D01*
X94503682Y-101573212D01*
X94344910Y-101810831D01*
X94142831Y-102012910D01*
X93905212Y-102171682D01*
X93905211Y-102171683D01*
X93905210Y-102171683D01*
X93827880Y-102203714D01*
X93641183Y-102281047D01*
X93547752Y-102299631D01*
X93360893Y-102336800D01*
X93075107Y-102336800D01*
X92888248Y-102299631D01*
X92794817Y-102281047D01*
X92608120Y-102203714D01*
X92530790Y-102171683D01*
X92530789Y-102171683D01*
X92530788Y-102171682D01*
X92293169Y-102012910D01*
X92091090Y-101810831D01*
X91932318Y-101573212D01*
X91822953Y-101309183D01*
X91767200Y-101028891D01*
X91767200Y-100743109D01*
X91822953Y-100462817D01*
X91932318Y-100198788D01*
X92091090Y-99961169D01*
X92293169Y-99759090D01*
X92530788Y-99600318D01*
X92794817Y-99490953D01*
X92888248Y-99472369D01*
X93075107Y-99435200D01*
X93360893Y-99435200D01*
X93547752Y-99472369D01*
X93547752Y-99472369D01*
G37*
G36*
X88467752Y-99472369D02*
G01*
X88561183Y-99490953D01*
X88825212Y-99600318D01*
X89062831Y-99759090D01*
X89264910Y-99961169D01*
X89423682Y-100198788D01*
X89533047Y-100462817D01*
X89588800Y-100743109D01*
X89588800Y-101028891D01*
X89533047Y-101309183D01*
X89423682Y-101573212D01*
X89264910Y-101810831D01*
X89062831Y-102012910D01*
X88825212Y-102171682D01*
X88825211Y-102171683D01*
X88825210Y-102171683D01*
X88747880Y-102203714D01*
X88561183Y-102281047D01*
X88467752Y-102299631D01*
X88280893Y-102336800D01*
X87995107Y-102336800D01*
X87808248Y-102299631D01*
X87714817Y-102281047D01*
X87528120Y-102203714D01*
X87450790Y-102171683D01*
X87450789Y-102171683D01*
X87450788Y-102171682D01*
X87213169Y-102012910D01*
X87011090Y-101810831D01*
X86852318Y-101573212D01*
X86742953Y-101309183D01*
X86687200Y-101028891D01*
X86687200Y-100743109D01*
X86742953Y-100462817D01*
X86852318Y-100198788D01*
X87011090Y-99961169D01*
X87213169Y-99759090D01*
X87450788Y-99600318D01*
X87714817Y-99490953D01*
X87808248Y-99472369D01*
X87995107Y-99435200D01*
X88280893Y-99435200D01*
X88467752Y-99472369D01*
X88467752Y-99472369D01*
G37*
G36*
X139866787Y-99539510D02*
G01*
X140027162Y-99588160D01*
X140174965Y-99667162D01*
X140304517Y-99773483D01*
X140410838Y-99903035D01*
X140489840Y-100050838D01*
X140538490Y-100211213D01*
X140554916Y-100378000D01*
X140538490Y-100544787D01*
X140489840Y-100705162D01*
X140410838Y-100852965D01*
X140304517Y-100982517D01*
X140174965Y-101088838D01*
X140027162Y-101167840D01*
X139866787Y-101216490D01*
X139741794Y-101228800D01*
X139658206Y-101228800D01*
X139533213Y-101216490D01*
X139372838Y-101167840D01*
X139225035Y-101088838D01*
X139095483Y-100982517D01*
X138989162Y-100852965D01*
X138910160Y-100705162D01*
X138861510Y-100544787D01*
X138845084Y-100378000D01*
X138861510Y-100211213D01*
X138910160Y-100050838D01*
X138989162Y-99903035D01*
X139095483Y-99773483D01*
X139225035Y-99667162D01*
X139372838Y-99588160D01*
X139533213Y-99539510D01*
X139658206Y-99527200D01*
X139741794Y-99527200D01*
X139866787Y-99539510D01*
X139866787Y-99539510D01*
G37*
G36*
X161294920Y-95837811D02*
G01*
X161419408Y-95875574D01*
X161543894Y-95913336D01*
X161543896Y-95913337D01*
X161773346Y-96035981D01*
X161974465Y-96201035D01*
X162139519Y-96402154D01*
X162145402Y-96413161D01*
X162262164Y-96631606D01*
X162291415Y-96728034D01*
X162337689Y-96880580D01*
X162356800Y-97074619D01*
X162356800Y-99744381D01*
X162337689Y-99938420D01*
X162262163Y-100187396D01*
X162139520Y-100416845D01*
X162139518Y-100416847D01*
X161974465Y-100617965D01*
X161868214Y-100705162D01*
X161773345Y-100783019D01*
X161543895Y-100905663D01*
X161543893Y-100905664D01*
X161465134Y-100929555D01*
X161294919Y-100981189D01*
X161036000Y-101006690D01*
X160777080Y-100981189D01*
X160606865Y-100929555D01*
X160528106Y-100905664D01*
X160528104Y-100905663D01*
X160298654Y-100783019D01*
X160203785Y-100705162D01*
X160097535Y-100617965D01*
X159932482Y-100416846D01*
X159809836Y-100187393D01*
X159734312Y-99938421D01*
X159734311Y-99938419D01*
X159715200Y-99744380D01*
X159715201Y-97074619D01*
X159734312Y-96880580D01*
X159780586Y-96728034D01*
X159809837Y-96631606D01*
X159926599Y-96413161D01*
X159932482Y-96402154D01*
X160097536Y-96201035D01*
X160298655Y-96035981D01*
X160528105Y-95913337D01*
X160528107Y-95913336D01*
X160652593Y-95875574D01*
X160777081Y-95837811D01*
X161036000Y-95812310D01*
X161294920Y-95837811D01*
X161294920Y-95837811D01*
G37*
G36*
X156214920Y-95837811D02*
G01*
X156339408Y-95875574D01*
X156463894Y-95913336D01*
X156463896Y-95913337D01*
X156693346Y-96035981D01*
X156894465Y-96201035D01*
X157059519Y-96402154D01*
X157065402Y-96413161D01*
X157182164Y-96631606D01*
X157211415Y-96728034D01*
X157257689Y-96880580D01*
X157276800Y-97074619D01*
X157276800Y-99744381D01*
X157257689Y-99938420D01*
X157182163Y-100187396D01*
X157059520Y-100416845D01*
X157059518Y-100416847D01*
X156894465Y-100617965D01*
X156788214Y-100705162D01*
X156693345Y-100783019D01*
X156463895Y-100905663D01*
X156463893Y-100905664D01*
X156385134Y-100929555D01*
X156214919Y-100981189D01*
X155956000Y-101006690D01*
X155697080Y-100981189D01*
X155526865Y-100929555D01*
X155448106Y-100905664D01*
X155448104Y-100905663D01*
X155218654Y-100783019D01*
X155123785Y-100705162D01*
X155017535Y-100617965D01*
X154852482Y-100416846D01*
X154729836Y-100187393D01*
X154654312Y-99938421D01*
X154654311Y-99938419D01*
X154635200Y-99744380D01*
X154635201Y-97074619D01*
X154654312Y-96880580D01*
X154700586Y-96728034D01*
X154729837Y-96631606D01*
X154846599Y-96413161D01*
X154852482Y-96402154D01*
X155017536Y-96201035D01*
X155218655Y-96035981D01*
X155448105Y-95913337D01*
X155448107Y-95913336D01*
X155572593Y-95875574D01*
X155697081Y-95837811D01*
X155956000Y-95812310D01*
X156214920Y-95837811D01*
X156214920Y-95837811D01*
G37*
G36*
X166374920Y-95837811D02*
G01*
X166499408Y-95875574D01*
X166623894Y-95913336D01*
X166623896Y-95913337D01*
X166853346Y-96035981D01*
X167054465Y-96201035D01*
X167219519Y-96402154D01*
X167225402Y-96413161D01*
X167342164Y-96631606D01*
X167371415Y-96728034D01*
X167417689Y-96880580D01*
X167436800Y-97074619D01*
X167436800Y-99744381D01*
X167417689Y-99938420D01*
X167342163Y-100187396D01*
X167219520Y-100416845D01*
X167219518Y-100416847D01*
X167054465Y-100617965D01*
X166948214Y-100705162D01*
X166853345Y-100783019D01*
X166623895Y-100905663D01*
X166623893Y-100905664D01*
X166545134Y-100929555D01*
X166374919Y-100981189D01*
X166116000Y-101006690D01*
X165857080Y-100981189D01*
X165686865Y-100929555D01*
X165608106Y-100905664D01*
X165608104Y-100905663D01*
X165378654Y-100783019D01*
X165283785Y-100705162D01*
X165177535Y-100617965D01*
X165012482Y-100416846D01*
X164889836Y-100187393D01*
X164814312Y-99938421D01*
X164814311Y-99938419D01*
X164795200Y-99744380D01*
X164795201Y-97074619D01*
X164814312Y-96880580D01*
X164860586Y-96728034D01*
X164889837Y-96631606D01*
X165006599Y-96413161D01*
X165012482Y-96402154D01*
X165177536Y-96201035D01*
X165378655Y-96035981D01*
X165608105Y-95913337D01*
X165608107Y-95913336D01*
X165732593Y-95875574D01*
X165857081Y-95837811D01*
X166116000Y-95812310D01*
X166374920Y-95837811D01*
X166374920Y-95837811D01*
G37*
G36*
X171454920Y-95837811D02*
G01*
X171579408Y-95875574D01*
X171703894Y-95913336D01*
X171703896Y-95913337D01*
X171933346Y-96035981D01*
X172134465Y-96201035D01*
X172299519Y-96402154D01*
X172305402Y-96413161D01*
X172422164Y-96631606D01*
X172451415Y-96728034D01*
X172497689Y-96880580D01*
X172516800Y-97074619D01*
X172516800Y-99744381D01*
X172497689Y-99938420D01*
X172422163Y-100187396D01*
X172299520Y-100416845D01*
X172299518Y-100416847D01*
X172134465Y-100617965D01*
X172028214Y-100705162D01*
X171933345Y-100783019D01*
X171703895Y-100905663D01*
X171703893Y-100905664D01*
X171625134Y-100929555D01*
X171454919Y-100981189D01*
X171196000Y-101006690D01*
X170937080Y-100981189D01*
X170766865Y-100929555D01*
X170688106Y-100905664D01*
X170688104Y-100905663D01*
X170458654Y-100783019D01*
X170363785Y-100705162D01*
X170257535Y-100617965D01*
X170092482Y-100416846D01*
X169969836Y-100187393D01*
X169894312Y-99938421D01*
X169894311Y-99938419D01*
X169875200Y-99744380D01*
X169875201Y-97074619D01*
X169894312Y-96880580D01*
X169940586Y-96728034D01*
X169969837Y-96631606D01*
X170086599Y-96413161D01*
X170092482Y-96402154D01*
X170257536Y-96201035D01*
X170458655Y-96035981D01*
X170688105Y-95913337D01*
X170688107Y-95913336D01*
X170812593Y-95875574D01*
X170937081Y-95837811D01*
X171196000Y-95812310D01*
X171454920Y-95837811D01*
X171454920Y-95837811D01*
G37*
G36*
X80514200Y-97781402D02*
G01*
X80585091Y-97795503D01*
X80614095Y-97807517D01*
X80785423Y-97878483D01*
X80785424Y-97878484D01*
X80965719Y-97998953D01*
X81119047Y-98152281D01*
X81119048Y-98152283D01*
X81239517Y-98332577D01*
X81288125Y-98449929D01*
X81322497Y-98532909D01*
X81364800Y-98745581D01*
X81364800Y-98962419D01*
X81322497Y-99175091D01*
X81288125Y-99258071D01*
X81239517Y-99375423D01*
X81239516Y-99375424D01*
X81119047Y-99555719D01*
X80965719Y-99709047D01*
X80912844Y-99744377D01*
X80785423Y-99829517D01*
X80668071Y-99878125D01*
X80585091Y-99912497D01*
X80514200Y-99926598D01*
X80372421Y-99954800D01*
X80155579Y-99954800D01*
X80013800Y-99926598D01*
X79942909Y-99912497D01*
X79859929Y-99878125D01*
X79742577Y-99829517D01*
X79615156Y-99744377D01*
X79562281Y-99709047D01*
X79408953Y-99555719D01*
X79288484Y-99375424D01*
X79288483Y-99375423D01*
X79239875Y-99258071D01*
X79205503Y-99175091D01*
X79163200Y-98962419D01*
X79163200Y-98745581D01*
X79205503Y-98532909D01*
X79239875Y-98449929D01*
X79288483Y-98332577D01*
X79408952Y-98152283D01*
X79408953Y-98152281D01*
X79562281Y-97998953D01*
X79742576Y-97878484D01*
X79742577Y-97878483D01*
X79913905Y-97807517D01*
X79942909Y-97795503D01*
X80013800Y-97781402D01*
X80155579Y-97753200D01*
X80372421Y-97753200D01*
X80514200Y-97781402D01*
X80514200Y-97781402D01*
G37*
G36*
X132701146Y-97836605D02*
G01*
X132812834Y-97858821D01*
X132953111Y-97916926D01*
X133079357Y-98001280D01*
X133186720Y-98108643D01*
X133271074Y-98234889D01*
X133329179Y-98375166D01*
X133351395Y-98486854D01*
X133358800Y-98524082D01*
X133358800Y-98675918D01*
X133351395Y-98713146D01*
X133329179Y-98824834D01*
X133271074Y-98965111D01*
X133186720Y-99091357D01*
X133079357Y-99198720D01*
X132953111Y-99283074D01*
X132812834Y-99341179D01*
X132701146Y-99363395D01*
X132663918Y-99370800D01*
X132512082Y-99370800D01*
X132474854Y-99363395D01*
X132363166Y-99341179D01*
X132222889Y-99283074D01*
X132096643Y-99198720D01*
X131989280Y-99091357D01*
X131904926Y-98965111D01*
X131846821Y-98824834D01*
X131824605Y-98713146D01*
X131817200Y-98675918D01*
X131817200Y-98524082D01*
X131824605Y-98486854D01*
X131846821Y-98375166D01*
X131904926Y-98234889D01*
X131989280Y-98108643D01*
X132096643Y-98001280D01*
X132222889Y-97916926D01*
X132363166Y-97858821D01*
X132474854Y-97836605D01*
X132512082Y-97829200D01*
X132663918Y-97829200D01*
X132701146Y-97836605D01*
X132701146Y-97836605D01*
G37*
G36*
X130161146Y-97836605D02*
G01*
X130272834Y-97858821D01*
X130413111Y-97916926D01*
X130539357Y-98001280D01*
X130646720Y-98108643D01*
X130731074Y-98234889D01*
X130789179Y-98375166D01*
X130811395Y-98486854D01*
X130818800Y-98524082D01*
X130818800Y-98675918D01*
X130811395Y-98713146D01*
X130789179Y-98824834D01*
X130731074Y-98965111D01*
X130646720Y-99091357D01*
X130539357Y-99198720D01*
X130413111Y-99283074D01*
X130272834Y-99341179D01*
X130161146Y-99363395D01*
X130123918Y-99370800D01*
X129972082Y-99370800D01*
X129934854Y-99363395D01*
X129823166Y-99341179D01*
X129682889Y-99283074D01*
X129556643Y-99198720D01*
X129449280Y-99091357D01*
X129364926Y-98965111D01*
X129306821Y-98824834D01*
X129284605Y-98713146D01*
X129277200Y-98675918D01*
X129277200Y-98524082D01*
X129284605Y-98486854D01*
X129306821Y-98375166D01*
X129364926Y-98234889D01*
X129449280Y-98108643D01*
X129556643Y-98001280D01*
X129682889Y-97916926D01*
X129823166Y-97858821D01*
X129934854Y-97836605D01*
X129972082Y-97829200D01*
X130123918Y-97829200D01*
X130161146Y-97836605D01*
X130161146Y-97836605D01*
G37*
G36*
X127621146Y-97836605D02*
G01*
X127732834Y-97858821D01*
X127873111Y-97916926D01*
X127999357Y-98001280D01*
X128106720Y-98108643D01*
X128191074Y-98234889D01*
X128249179Y-98375166D01*
X128271395Y-98486854D01*
X128278800Y-98524082D01*
X128278800Y-98675918D01*
X128271395Y-98713146D01*
X128249179Y-98824834D01*
X128191074Y-98965111D01*
X128106720Y-99091357D01*
X127999357Y-99198720D01*
X127873111Y-99283074D01*
X127732834Y-99341179D01*
X127621146Y-99363395D01*
X127583918Y-99370800D01*
X127432082Y-99370800D01*
X127394854Y-99363395D01*
X127283166Y-99341179D01*
X127142889Y-99283074D01*
X127016643Y-99198720D01*
X126909280Y-99091357D01*
X126824926Y-98965111D01*
X126766821Y-98824834D01*
X126744605Y-98713146D01*
X126737200Y-98675918D01*
X126737200Y-98524082D01*
X126744605Y-98486854D01*
X126766821Y-98375166D01*
X126824926Y-98234889D01*
X126909280Y-98108643D01*
X127016643Y-98001280D01*
X127142889Y-97916926D01*
X127283166Y-97858821D01*
X127394854Y-97836605D01*
X127432082Y-97829200D01*
X127583918Y-97829200D01*
X127621146Y-97836605D01*
X127621146Y-97836605D01*
G37*
G36*
X139948169Y-97019895D02*
G01*
X140103005Y-97084031D01*
X140242354Y-97177140D01*
X140360860Y-97295646D01*
X140453969Y-97434995D01*
X140518105Y-97589831D01*
X140550800Y-97754203D01*
X140550800Y-97921797D01*
X140518105Y-98086169D01*
X140453969Y-98241005D01*
X140360860Y-98380354D01*
X140242354Y-98498860D01*
X140103005Y-98591969D01*
X139948169Y-98656105D01*
X139783797Y-98688800D01*
X139616203Y-98688800D01*
X139451831Y-98656105D01*
X139296995Y-98591969D01*
X139157646Y-98498860D01*
X139039140Y-98380354D01*
X138946031Y-98241005D01*
X138881895Y-98086169D01*
X138849200Y-97921797D01*
X138849200Y-97754203D01*
X138881895Y-97589831D01*
X138946031Y-97434995D01*
X139039140Y-97295646D01*
X139157646Y-97177140D01*
X139296995Y-97084031D01*
X139451831Y-97019895D01*
X139616203Y-96987200D01*
X139783797Y-96987200D01*
X139948169Y-97019895D01*
X139948169Y-97019895D01*
G37*
G36*
X147949169Y-96384895D02*
G01*
X148104005Y-96449031D01*
X148243354Y-96542140D01*
X148361860Y-96660646D01*
X148454969Y-96799995D01*
X148519105Y-96954831D01*
X148551800Y-97119203D01*
X148551800Y-97286797D01*
X148519105Y-97451169D01*
X148454969Y-97606005D01*
X148361860Y-97745354D01*
X148243354Y-97863860D01*
X148104005Y-97956969D01*
X147949169Y-98021105D01*
X147784797Y-98053800D01*
X147617203Y-98053800D01*
X147452831Y-98021105D01*
X147297995Y-97956969D01*
X147158646Y-97863860D01*
X147040140Y-97745354D01*
X146947031Y-97606005D01*
X146882895Y-97451169D01*
X146850200Y-97286797D01*
X146850200Y-97119203D01*
X146882895Y-96954831D01*
X146947031Y-96799995D01*
X147040140Y-96660646D01*
X147158646Y-96542140D01*
X147297995Y-96449031D01*
X147452831Y-96384895D01*
X147617203Y-96352200D01*
X147784797Y-96352200D01*
X147949169Y-96384895D01*
X147949169Y-96384895D01*
G37*
G36*
X145327787Y-96364510D02*
G01*
X145488162Y-96413160D01*
X145635965Y-96492162D01*
X145765517Y-96598483D01*
X145871838Y-96728035D01*
X145950840Y-96875838D01*
X145999490Y-97036213D01*
X146015916Y-97203000D01*
X145999490Y-97369787D01*
X145950840Y-97530162D01*
X145871838Y-97677965D01*
X145765517Y-97807517D01*
X145635965Y-97913838D01*
X145488162Y-97992840D01*
X145327787Y-98041490D01*
X145202794Y-98053800D01*
X145119206Y-98053800D01*
X144994213Y-98041490D01*
X144833838Y-97992840D01*
X144686035Y-97913838D01*
X144556483Y-97807517D01*
X144450162Y-97677965D01*
X144371160Y-97530162D01*
X144322510Y-97369787D01*
X144306084Y-97203000D01*
X144322510Y-97036213D01*
X144371160Y-96875838D01*
X144450162Y-96728035D01*
X144556483Y-96598483D01*
X144686035Y-96492162D01*
X144833838Y-96413160D01*
X144994213Y-96364510D01*
X145119206Y-96352200D01*
X145202794Y-96352200D01*
X145327787Y-96364510D01*
X145327787Y-96364510D01*
G37*
G36*
X81364800Y-94874800D02*
G01*
X79163200Y-94874800D01*
X79163200Y-92673200D01*
X81364800Y-92673200D01*
X81364800Y-94874800D01*
X81364800Y-94874800D01*
G37*
G36*
X128010169Y-92638395D02*
G01*
X128165005Y-92702531D01*
X128304354Y-92795640D01*
X128422860Y-92914146D01*
X128515969Y-93053495D01*
X128580105Y-93208331D01*
X128612800Y-93372703D01*
X128612800Y-93540297D01*
X128580105Y-93704669D01*
X128515969Y-93859505D01*
X128422860Y-93998854D01*
X128304354Y-94117360D01*
X128165005Y-94210469D01*
X128010169Y-94274605D01*
X127845797Y-94307300D01*
X127678203Y-94307300D01*
X127513831Y-94274605D01*
X127358995Y-94210469D01*
X127219646Y-94117360D01*
X127101140Y-93998854D01*
X127008031Y-93859505D01*
X126943895Y-93704669D01*
X126911200Y-93540297D01*
X126911200Y-93372703D01*
X126943895Y-93208331D01*
X127008031Y-93053495D01*
X127101140Y-92914146D01*
X127219646Y-92795640D01*
X127358995Y-92702531D01*
X127513831Y-92638395D01*
X127678203Y-92605700D01*
X127845797Y-92605700D01*
X128010169Y-92638395D01*
X128010169Y-92638395D01*
G37*
G36*
X133010169Y-92638395D02*
G01*
X133165005Y-92702531D01*
X133304354Y-92795640D01*
X133422860Y-92914146D01*
X133515969Y-93053495D01*
X133580105Y-93208331D01*
X133612800Y-93372703D01*
X133612800Y-93540297D01*
X133580105Y-93704669D01*
X133515969Y-93859505D01*
X133422860Y-93998854D01*
X133304354Y-94117360D01*
X133165005Y-94210469D01*
X133010169Y-94274605D01*
X132845797Y-94307300D01*
X132678203Y-94307300D01*
X132513831Y-94274605D01*
X132358995Y-94210469D01*
X132219646Y-94117360D01*
X132101140Y-93998854D01*
X132008031Y-93859505D01*
X131943895Y-93704669D01*
X131911200Y-93540297D01*
X131911200Y-93372703D01*
X131943895Y-93208331D01*
X132008031Y-93053495D01*
X132101140Y-92914146D01*
X132219646Y-92795640D01*
X132358995Y-92702531D01*
X132513831Y-92638395D01*
X132678203Y-92605700D01*
X132845797Y-92605700D01*
X133010169Y-92638395D01*
X133010169Y-92638395D01*
G37*
G36*
X161294920Y-88344811D02*
G01*
X161419408Y-88382574D01*
X161543894Y-88420336D01*
X161543896Y-88420337D01*
X161773346Y-88542981D01*
X161974465Y-88708035D01*
X162139519Y-88909154D01*
X162262163Y-89138604D01*
X162337689Y-89387580D01*
X162356800Y-89581619D01*
X162356800Y-92251381D01*
X162337689Y-92445420D01*
X162337688Y-92445422D01*
X162273550Y-92656860D01*
X162262163Y-92694396D01*
X162139520Y-92923845D01*
X162139518Y-92923847D01*
X161974465Y-93124965D01*
X161872881Y-93208332D01*
X161773345Y-93290019D01*
X161543895Y-93412663D01*
X161543893Y-93412664D01*
X161419407Y-93450426D01*
X161294919Y-93488189D01*
X161036000Y-93513690D01*
X160777080Y-93488189D01*
X160652592Y-93450426D01*
X160528106Y-93412664D01*
X160528104Y-93412663D01*
X160298654Y-93290019D01*
X160268073Y-93264921D01*
X160097535Y-93124965D01*
X159932482Y-92923846D01*
X159891300Y-92846800D01*
X159809837Y-92694395D01*
X159803408Y-92673200D01*
X159734312Y-92445421D01*
X159734311Y-92445419D01*
X159715200Y-92251380D01*
X159715201Y-89581619D01*
X159734312Y-89387580D01*
X159809838Y-89138604D01*
X159932482Y-88909154D01*
X160097536Y-88708035D01*
X160298655Y-88542981D01*
X160528105Y-88420337D01*
X160528107Y-88420336D01*
X160652593Y-88382574D01*
X160777081Y-88344811D01*
X161036000Y-88319310D01*
X161294920Y-88344811D01*
X161294920Y-88344811D01*
G37*
G36*
X166374920Y-88344811D02*
G01*
X166499408Y-88382574D01*
X166623894Y-88420336D01*
X166623896Y-88420337D01*
X166853346Y-88542981D01*
X167054465Y-88708035D01*
X167219519Y-88909154D01*
X167342163Y-89138604D01*
X167417689Y-89387580D01*
X167436800Y-89581619D01*
X167436800Y-92251381D01*
X167417689Y-92445420D01*
X167417688Y-92445422D01*
X167353550Y-92656860D01*
X167342163Y-92694396D01*
X167219520Y-92923845D01*
X167219518Y-92923847D01*
X167054465Y-93124965D01*
X166952881Y-93208332D01*
X166853345Y-93290019D01*
X166623895Y-93412663D01*
X166623893Y-93412664D01*
X166499407Y-93450426D01*
X166374919Y-93488189D01*
X166116000Y-93513690D01*
X165857080Y-93488189D01*
X165732592Y-93450426D01*
X165608106Y-93412664D01*
X165608104Y-93412663D01*
X165378654Y-93290019D01*
X165348073Y-93264921D01*
X165177535Y-93124965D01*
X165012482Y-92923846D01*
X164971300Y-92846800D01*
X164889837Y-92694395D01*
X164883408Y-92673200D01*
X164814312Y-92445421D01*
X164814311Y-92445419D01*
X164795200Y-92251380D01*
X164795201Y-89581619D01*
X164814312Y-89387580D01*
X164889838Y-89138604D01*
X165012482Y-88909154D01*
X165177536Y-88708035D01*
X165378655Y-88542981D01*
X165608105Y-88420337D01*
X165608107Y-88420336D01*
X165732593Y-88382574D01*
X165857081Y-88344811D01*
X166116000Y-88319310D01*
X166374920Y-88344811D01*
X166374920Y-88344811D01*
G37*
G36*
X171454920Y-88344811D02*
G01*
X171579408Y-88382574D01*
X171703894Y-88420336D01*
X171703896Y-88420337D01*
X171933346Y-88542981D01*
X172134465Y-88708035D01*
X172299519Y-88909154D01*
X172422163Y-89138604D01*
X172497689Y-89387580D01*
X172516800Y-89581619D01*
X172516800Y-92251381D01*
X172497689Y-92445420D01*
X172497688Y-92445422D01*
X172433550Y-92656860D01*
X172422163Y-92694396D01*
X172299520Y-92923845D01*
X172299518Y-92923847D01*
X172134465Y-93124965D01*
X172032881Y-93208332D01*
X171933345Y-93290019D01*
X171703895Y-93412663D01*
X171703893Y-93412664D01*
X171579407Y-93450426D01*
X171454919Y-93488189D01*
X171196000Y-93513690D01*
X170937080Y-93488189D01*
X170812592Y-93450426D01*
X170688106Y-93412664D01*
X170688104Y-93412663D01*
X170458654Y-93290019D01*
X170428073Y-93264921D01*
X170257535Y-93124965D01*
X170092482Y-92923846D01*
X170051300Y-92846800D01*
X169969837Y-92694395D01*
X169963408Y-92673200D01*
X169894312Y-92445421D01*
X169894311Y-92445419D01*
X169875200Y-92251380D01*
X169875201Y-89581619D01*
X169894312Y-89387580D01*
X169969838Y-89138604D01*
X170092482Y-88909154D01*
X170257536Y-88708035D01*
X170458655Y-88542981D01*
X170688105Y-88420337D01*
X170688107Y-88420336D01*
X170812593Y-88382574D01*
X170937081Y-88344811D01*
X171196000Y-88319310D01*
X171454920Y-88344811D01*
X171454920Y-88344811D01*
G37*
G36*
X156214920Y-88344811D02*
G01*
X156339408Y-88382574D01*
X156463894Y-88420336D01*
X156463896Y-88420337D01*
X156693346Y-88542981D01*
X156894465Y-88708035D01*
X157059519Y-88909154D01*
X157182163Y-89138604D01*
X157257689Y-89387580D01*
X157276800Y-89581619D01*
X157276800Y-92251381D01*
X157257689Y-92445420D01*
X157257688Y-92445422D01*
X157193550Y-92656860D01*
X157182163Y-92694396D01*
X157059520Y-92923845D01*
X157059518Y-92923847D01*
X156894465Y-93124965D01*
X156792881Y-93208332D01*
X156693345Y-93290019D01*
X156463895Y-93412663D01*
X156463893Y-93412664D01*
X156339407Y-93450426D01*
X156214919Y-93488189D01*
X155956000Y-93513690D01*
X155697080Y-93488189D01*
X155572592Y-93450426D01*
X155448106Y-93412664D01*
X155448104Y-93412663D01*
X155218654Y-93290019D01*
X155188073Y-93264921D01*
X155017535Y-93124965D01*
X154852482Y-92923846D01*
X154811300Y-92846800D01*
X154729837Y-92694395D01*
X154723408Y-92673200D01*
X154654312Y-92445421D01*
X154654311Y-92445419D01*
X154635200Y-92251380D01*
X154635201Y-89581619D01*
X154654312Y-89387580D01*
X154729838Y-89138604D01*
X154852482Y-88909154D01*
X155017536Y-88708035D01*
X155218655Y-88542981D01*
X155448105Y-88420337D01*
X155448107Y-88420336D01*
X155572593Y-88382574D01*
X155697081Y-88344811D01*
X155956000Y-88319310D01*
X156214920Y-88344811D01*
X156214920Y-88344811D01*
G37*
G36*
X140932169Y-91177895D02*
G01*
X141087005Y-91242031D01*
X141226354Y-91335140D01*
X141344860Y-91453646D01*
X141437969Y-91592995D01*
X141502105Y-91747831D01*
X141534800Y-91912203D01*
X141534800Y-92079797D01*
X141502105Y-92244169D01*
X141437969Y-92399005D01*
X141344860Y-92538354D01*
X141226354Y-92656860D01*
X141087005Y-92749969D01*
X140932169Y-92814105D01*
X140767797Y-92846800D01*
X140600203Y-92846800D01*
X140435831Y-92814105D01*
X140280995Y-92749969D01*
X140141646Y-92656860D01*
X140023140Y-92538354D01*
X139930031Y-92399005D01*
X139865895Y-92244169D01*
X139833200Y-92079797D01*
X139833200Y-91912203D01*
X139865895Y-91747831D01*
X139930031Y-91592995D01*
X140023140Y-91453646D01*
X140141646Y-91335140D01*
X140280995Y-91242031D01*
X140435831Y-91177895D01*
X140600203Y-91145200D01*
X140767797Y-91145200D01*
X140932169Y-91177895D01*
X140932169Y-91177895D01*
G37*
G36*
X139534800Y-92846800D02*
G01*
X137833200Y-92846800D01*
X137833200Y-91145200D01*
X139534800Y-91145200D01*
X139534800Y-92846800D01*
X139534800Y-92846800D01*
G37*
G36*
X148359338Y-90065738D02*
G01*
X148532373Y-90137412D01*
X148688100Y-90241465D01*
X148820535Y-90373900D01*
X148924588Y-90529627D01*
X148996262Y-90702662D01*
X149032800Y-90886354D01*
X149032800Y-91073646D01*
X148996262Y-91257338D01*
X148924588Y-91430373D01*
X148820535Y-91586100D01*
X148688100Y-91718535D01*
X148532373Y-91822588D01*
X148359338Y-91894262D01*
X148175646Y-91930800D01*
X147988354Y-91930800D01*
X147804662Y-91894262D01*
X147631627Y-91822588D01*
X147475900Y-91718535D01*
X147343465Y-91586100D01*
X147239412Y-91430373D01*
X147167738Y-91257338D01*
X147131200Y-91073646D01*
X147131200Y-90886354D01*
X147167738Y-90702662D01*
X147239412Y-90529627D01*
X147343465Y-90373900D01*
X147475900Y-90241465D01*
X147631627Y-90137412D01*
X147804662Y-90065738D01*
X147988354Y-90029200D01*
X148175646Y-90029200D01*
X148359338Y-90065738D01*
X148359338Y-90065738D01*
G37*
G36*
X146492800Y-91930800D02*
G01*
X144591200Y-91930800D01*
X144591200Y-90029200D01*
X146492800Y-90029200D01*
X146492800Y-91930800D01*
X146492800Y-91930800D01*
G37*
G36*
X95360844Y-89181267D02*
G01*
X95474661Y-89228412D01*
X95588476Y-89275555D01*
X95588477Y-89275556D01*
X95793336Y-89412438D01*
X95967562Y-89586664D01*
X96058817Y-89723237D01*
X96104445Y-89791524D01*
X96198733Y-90019156D01*
X96246800Y-90260806D01*
X96246800Y-90507194D01*
X96198733Y-90748844D01*
X96104445Y-90976476D01*
X96104444Y-90976477D01*
X95967562Y-91181336D01*
X95793336Y-91355562D01*
X95681376Y-91430371D01*
X95588476Y-91492445D01*
X95474661Y-91539588D01*
X95360844Y-91586733D01*
X95119194Y-91634800D01*
X94872806Y-91634800D01*
X94631156Y-91586733D01*
X94517339Y-91539588D01*
X94403524Y-91492445D01*
X94310624Y-91430371D01*
X94198664Y-91355562D01*
X94024438Y-91181336D01*
X93887556Y-90976477D01*
X93887555Y-90976476D01*
X93840412Y-90862661D01*
X93793267Y-90748844D01*
X93745200Y-90507194D01*
X93745200Y-90260806D01*
X93793267Y-90019156D01*
X93887555Y-89791524D01*
X93933183Y-89723237D01*
X94024438Y-89586664D01*
X94198664Y-89412438D01*
X94403523Y-89275556D01*
X94403524Y-89275555D01*
X94517339Y-89228412D01*
X94631156Y-89181267D01*
X94872806Y-89133200D01*
X95119194Y-89133200D01*
X95360844Y-89181267D01*
X95360844Y-89181267D01*
G37*
G36*
X114664844Y-89181267D02*
G01*
X114778661Y-89228412D01*
X114892476Y-89275555D01*
X114892477Y-89275556D01*
X115097336Y-89412438D01*
X115271562Y-89586664D01*
X115362817Y-89723237D01*
X115408445Y-89791524D01*
X115502733Y-90019156D01*
X115550800Y-90260806D01*
X115550800Y-90507194D01*
X115502733Y-90748844D01*
X115408445Y-90976476D01*
X115408444Y-90976477D01*
X115271562Y-91181336D01*
X115097336Y-91355562D01*
X114985376Y-91430371D01*
X114892476Y-91492445D01*
X114778661Y-91539588D01*
X114664844Y-91586733D01*
X114423194Y-91634800D01*
X114176806Y-91634800D01*
X113935156Y-91586733D01*
X113821339Y-91539588D01*
X113707524Y-91492445D01*
X113614624Y-91430371D01*
X113502664Y-91355562D01*
X113328438Y-91181336D01*
X113191556Y-90976477D01*
X113191555Y-90976476D01*
X113097267Y-90748844D01*
X113049200Y-90507194D01*
X113049200Y-90260806D01*
X113097267Y-90019156D01*
X113144412Y-89905339D01*
X113191555Y-89791524D01*
X113237183Y-89723237D01*
X113328438Y-89586664D01*
X113502664Y-89412438D01*
X113707523Y-89275556D01*
X113707524Y-89275555D01*
X113821339Y-89228412D01*
X113935156Y-89181267D01*
X114176806Y-89133200D01*
X114423194Y-89133200D01*
X114664844Y-89181267D01*
X114664844Y-89181267D01*
G37*
G36*
X146679169Y-85422895D02*
G01*
X146834005Y-85487031D01*
X146973354Y-85580140D01*
X147091860Y-85698646D01*
X147184969Y-85837995D01*
X147249105Y-85992831D01*
X147281800Y-86157203D01*
X147281800Y-86324797D01*
X147249105Y-86489169D01*
X147184969Y-86644005D01*
X147091860Y-86783354D01*
X146973354Y-86901860D01*
X146834005Y-86994969D01*
X146679169Y-87059105D01*
X146514797Y-87091800D01*
X146347203Y-87091800D01*
X146182831Y-87059105D01*
X146027995Y-86994969D01*
X145888646Y-86901860D01*
X145770140Y-86783354D01*
X145677031Y-86644005D01*
X145612895Y-86489169D01*
X145580200Y-86324797D01*
X145580200Y-86157203D01*
X145612895Y-85992831D01*
X145677031Y-85837995D01*
X145770140Y-85698646D01*
X145888646Y-85580140D01*
X146027995Y-85487031D01*
X146182831Y-85422895D01*
X146347203Y-85390200D01*
X146514797Y-85390200D01*
X146679169Y-85422895D01*
X146679169Y-85422895D01*
G37*
G36*
X139866787Y-85061510D02*
G01*
X140027162Y-85110160D01*
X140174965Y-85189162D01*
X140304517Y-85295483D01*
X140410838Y-85425035D01*
X140489840Y-85572838D01*
X140538490Y-85733213D01*
X140554916Y-85900000D01*
X140538490Y-86066787D01*
X140489840Y-86227162D01*
X140410838Y-86374965D01*
X140304517Y-86504517D01*
X140174965Y-86610838D01*
X140027162Y-86689840D01*
X139866787Y-86738490D01*
X139741794Y-86750800D01*
X139658206Y-86750800D01*
X139533213Y-86738490D01*
X139372838Y-86689840D01*
X139225035Y-86610838D01*
X139095483Y-86504517D01*
X138989162Y-86374965D01*
X138910160Y-86227162D01*
X138861510Y-86066787D01*
X138845084Y-85900000D01*
X138861510Y-85733213D01*
X138910160Y-85572838D01*
X138989162Y-85425035D01*
X139095483Y-85295483D01*
X139225035Y-85189162D01*
X139372838Y-85110160D01*
X139533213Y-85061510D01*
X139658206Y-85049200D01*
X139741794Y-85049200D01*
X139866787Y-85061510D01*
X139866787Y-85061510D01*
G37*
G36*
X147281800Y-84591800D02*
G01*
X145580200Y-84591800D01*
X145580200Y-82890200D01*
X147281800Y-82890200D01*
X147281800Y-84591800D01*
X147281800Y-84591800D01*
G37*
G36*
X139948169Y-82541895D02*
G01*
X140103005Y-82606031D01*
X140242354Y-82699140D01*
X140360860Y-82817646D01*
X140453969Y-82956995D01*
X140518105Y-83111831D01*
X140550800Y-83276203D01*
X140550800Y-83443797D01*
X140518105Y-83608169D01*
X140453969Y-83763005D01*
X140360860Y-83902354D01*
X140242354Y-84020860D01*
X140103005Y-84113969D01*
X139948169Y-84178105D01*
X139783797Y-84210800D01*
X139616203Y-84210800D01*
X139451831Y-84178105D01*
X139296995Y-84113969D01*
X139157646Y-84020860D01*
X139039140Y-83902354D01*
X138946031Y-83763005D01*
X138881895Y-83608169D01*
X138849200Y-83443797D01*
X138849200Y-83276203D01*
X138881895Y-83111831D01*
X138946031Y-82956995D01*
X139039140Y-82817646D01*
X139157646Y-82699140D01*
X139296995Y-82606031D01*
X139451831Y-82541895D01*
X139616203Y-82509200D01*
X139783797Y-82509200D01*
X139948169Y-82541895D01*
X139948169Y-82541895D01*
G37*
G36*
X127642800Y-84150800D02*
G01*
X125341200Y-84150800D01*
X125341200Y-81849200D01*
X127642800Y-81849200D01*
X127642800Y-84150800D01*
X127642800Y-84150800D01*
G37*
G36*
X134224888Y-81854750D02*
G01*
X134337596Y-81865851D01*
X134554523Y-81931655D01*
X134554525Y-81931656D01*
X134754439Y-82038512D01*
X134754440Y-82038513D01*
X134754444Y-82038515D01*
X134929676Y-82182324D01*
X135073485Y-82357556D01*
X135073487Y-82357560D01*
X135073488Y-82357561D01*
X135172016Y-82541895D01*
X135180345Y-82557477D01*
X135246149Y-82774404D01*
X135268368Y-83000000D01*
X135246149Y-83225596D01*
X135180345Y-83442523D01*
X135180344Y-83442525D01*
X135091806Y-83608169D01*
X135073485Y-83642444D01*
X134929676Y-83817676D01*
X134754444Y-83961485D01*
X134754440Y-83961487D01*
X134754439Y-83961488D01*
X134554525Y-84068344D01*
X134554523Y-84068345D01*
X134337596Y-84134149D01*
X134224888Y-84145250D01*
X134168535Y-84150800D01*
X134055465Y-84150800D01*
X133999112Y-84145250D01*
X133886404Y-84134149D01*
X133669477Y-84068345D01*
X133669475Y-84068344D01*
X133469561Y-83961488D01*
X133469560Y-83961487D01*
X133469556Y-83961485D01*
X133294324Y-83817676D01*
X133150515Y-83642444D01*
X133132195Y-83608169D01*
X133043656Y-83442525D01*
X133043655Y-83442523D01*
X132977851Y-83225596D01*
X132955632Y-83000000D01*
X132977851Y-82774404D01*
X133043655Y-82557477D01*
X133051984Y-82541895D01*
X133150512Y-82357561D01*
X133150513Y-82357560D01*
X133150515Y-82357556D01*
X133294324Y-82182324D01*
X133469556Y-82038515D01*
X133469560Y-82038513D01*
X133469561Y-82038512D01*
X133669475Y-81931656D01*
X133669477Y-81931655D01*
X133886404Y-81865851D01*
X133999112Y-81854750D01*
X134055465Y-81849200D01*
X134168535Y-81849200D01*
X134224888Y-81854750D01*
X134224888Y-81854750D01*
G37*
G36*
X115550800Y-84134800D02*
G01*
X113049200Y-84134800D01*
X113049200Y-81633200D01*
X115550800Y-81633200D01*
X115550800Y-84134800D01*
X115550800Y-84134800D01*
G37*
G36*
X96246800Y-84134800D02*
G01*
X93745200Y-84134800D01*
X93745200Y-81633200D01*
X96246800Y-81633200D01*
X96246800Y-84134800D01*
X96246800Y-84134800D01*
G37*
G36*
X81268900Y-74370346D02*
G01*
X81481521Y-74412639D01*
X81781947Y-74537080D01*
X82052324Y-74717740D01*
X82282260Y-74947676D01*
X82462920Y-75218053D01*
X82587361Y-75518479D01*
X82650800Y-75837410D01*
X82650800Y-76162590D01*
X82587361Y-76481521D01*
X82462920Y-76781947D01*
X82282260Y-77052324D01*
X82052324Y-77282260D01*
X81781947Y-77462920D01*
X81481521Y-77587361D01*
X81268900Y-77629654D01*
X81162591Y-77650800D01*
X80837409Y-77650800D01*
X80731100Y-77629654D01*
X80518479Y-77587361D01*
X80218053Y-77462920D01*
X79947676Y-77282260D01*
X79717740Y-77052324D01*
X79537080Y-76781947D01*
X79412639Y-76481521D01*
X79349200Y-76162590D01*
X79349200Y-75837410D01*
X79412639Y-75518479D01*
X79537080Y-75218053D01*
X79717740Y-74947676D01*
X79947676Y-74717740D01*
X80218053Y-74537080D01*
X80518479Y-74412639D01*
X80731100Y-74370346D01*
X80837409Y-74349200D01*
X81162591Y-74349200D01*
X81268900Y-74370346D01*
X81268900Y-74370346D01*
G37*
G36*
X169686900Y-74370346D02*
G01*
X169899521Y-74412639D01*
X170199947Y-74537080D01*
X170470324Y-74717740D01*
X170700260Y-74947676D01*
X170880920Y-75218053D01*
X171005361Y-75518479D01*
X171068800Y-75837410D01*
X171068800Y-76162590D01*
X171005361Y-76481521D01*
X170880920Y-76781947D01*
X170700260Y-77052324D01*
X170470324Y-77282260D01*
X170199947Y-77462920D01*
X169899521Y-77587361D01*
X169686900Y-77629654D01*
X169580591Y-77650800D01*
X169255409Y-77650800D01*
X169149100Y-77629654D01*
X168936479Y-77587361D01*
X168636053Y-77462920D01*
X168365676Y-77282260D01*
X168135740Y-77052324D01*
X167955080Y-76781947D01*
X167830639Y-76481521D01*
X167767200Y-76162590D01*
X167767200Y-75837410D01*
X167830639Y-75518479D01*
X167955080Y-75218053D01*
X168135740Y-74947676D01*
X168365676Y-74717740D01*
X168636053Y-74537080D01*
X168936479Y-74412639D01*
X169149100Y-74370346D01*
X169255409Y-74349200D01*
X169580591Y-74349200D01*
X169686900Y-74370346D01*
X169686900Y-74370346D01*
G37*
G36*
X130244680Y-71963717D02*
G01*
X130433803Y-72021087D01*
X130433805Y-72021088D01*
X130608099Y-72114250D01*
X130608101Y-72114251D01*
X130608100Y-72114251D01*
X130760873Y-72239627D01*
X130886249Y-72392400D01*
X130979413Y-72566696D01*
X131036783Y-72755819D01*
X131051300Y-72903216D01*
X131051300Y-73096783D01*
X131036783Y-73244180D01*
X130979413Y-73433303D01*
X130979412Y-73433305D01*
X130886250Y-73607599D01*
X130760873Y-73760373D01*
X130608099Y-73885750D01*
X130433806Y-73978912D01*
X130433804Y-73978913D01*
X130244681Y-74036283D01*
X130048000Y-74055654D01*
X129851320Y-74036283D01*
X129662197Y-73978913D01*
X129487900Y-73885749D01*
X129335127Y-73760373D01*
X129209751Y-73607600D01*
X129116587Y-73433304D01*
X129059217Y-73244181D01*
X129044700Y-73096784D01*
X129044700Y-72903217D01*
X129059217Y-72755820D01*
X129116587Y-72566697D01*
X129209751Y-72392400D01*
X129335127Y-72239627D01*
X129487900Y-72114251D01*
X129487899Y-72114251D01*
X129487901Y-72114250D01*
X129662194Y-72021088D01*
X129662196Y-72021087D01*
X129851319Y-71963717D01*
X130048000Y-71944346D01*
X130244680Y-71963717D01*
X130244680Y-71963717D01*
G37*
G36*
X132784680Y-71963717D02*
G01*
X132973803Y-72021087D01*
X132973805Y-72021088D01*
X133148099Y-72114250D01*
X133148101Y-72114251D01*
X133148100Y-72114251D01*
X133300873Y-72239627D01*
X133426249Y-72392400D01*
X133519413Y-72566696D01*
X133576783Y-72755819D01*
X133591300Y-72903216D01*
X133591300Y-73096783D01*
X133576783Y-73244180D01*
X133519413Y-73433303D01*
X133519412Y-73433305D01*
X133426250Y-73607599D01*
X133300873Y-73760373D01*
X133148099Y-73885750D01*
X132973806Y-73978912D01*
X132973804Y-73978913D01*
X132784681Y-74036283D01*
X132588000Y-74055654D01*
X132391320Y-74036283D01*
X132202197Y-73978913D01*
X132027900Y-73885749D01*
X131875127Y-73760373D01*
X131749751Y-73607600D01*
X131656587Y-73433304D01*
X131599217Y-73244181D01*
X131584700Y-73096784D01*
X131584700Y-72903217D01*
X131599217Y-72755820D01*
X131656587Y-72566697D01*
X131749751Y-72392400D01*
X131875127Y-72239627D01*
X132027900Y-72114251D01*
X132027899Y-72114251D01*
X132027901Y-72114250D01*
X132202194Y-72021088D01*
X132202196Y-72021087D01*
X132391319Y-71963717D01*
X132588000Y-71944346D01*
X132784680Y-71963717D01*
X132784680Y-71963717D01*
G37*
G36*
X128511300Y-74050800D02*
G01*
X126504700Y-74050800D01*
X126504700Y-71949200D01*
X128511300Y-71949200D01*
X128511300Y-74050800D01*
X128511300Y-74050800D01*
G37*
M02*
